<?xml version="1.0" encoding="utf-8" standalone="no"?>
<!DOCTYPE svg PUBLIC "-//W3C//DTD SVG 1.1//EN"
  "http://www.w3.org/Graphics/SVG/1.1/DTD/svg11.dtd">
<svg xmlns:xlink="http://www.w3.org/1999/xlink" width="449.582512pt" height="443.52pt" viewBox="0 0 449.582512 443.52" xmlns="http://www.w3.org/2000/svg" version="1.1">
 <metadata>
  <rdf:RDF xmlns:dc="http://purl.org/dc/elements/1.1/" xmlns:cc="http://creativecommons.org/ns#" xmlns:rdf="http://www.w3.org/1999/02/22-rdf-syntax-ns#">
   <cc:Work>
    <dc:type rdf:resource="http://purl.org/dc/dcmitype/StillImage"/>
    <dc:date>2025-04-17T13:06:39.568939</dc:date>
    <dc:format>image/svg+xml</dc:format>
    <dc:creator>
     <cc:Agent>
      <dc:title>Matplotlib v3.8.0, https://matplotlib.org/</dc:title>
     </cc:Agent>
    </dc:creator>
   </cc:Work>
  </rdf:RDF>
 </metadata>
 <defs>
  <style type="text/css">*{stroke-linejoin: round; stroke-linecap: butt}</style>
 </defs>
 <g id="figure_1">
  <g id="patch_1">
   <path d="M 0 443.52 
L 449.582512 443.52 
L 449.582512 0 
L 0 0 
z
" style="fill: #ffffff"/>
  </g>
  <g id="patch_2">
   <path d="M 6.062512 443.52 
L 449.582512 443.52 
L 449.582512 -0 
L 6.062512 -0 
z
" style="fill: #ffffff"/>
  </g>
  <g id="pane3d_1">
   <g id="patch_3">
    <path d="M 233.816026 262.567632 
L 433.322937 317.965802 
L 437.987204 111.177856 
L 233.816026 70.300703 
" style="fill: none; opacity: 0.5; stroke: #000000; stroke-linejoin: miter"/>
   </g>
  </g>
  <g id="pane3d_2">
   <g id="patch_4">
    <path d="M 233.816026 262.567632 
L 34.309115 317.965802 
L 29.644848 111.177856 
L 233.816026 70.300703 
" style="fill: none; opacity: 0.5; stroke: #000000; stroke-linejoin: miter"/>
   </g>
  </g>
  <g id="pane3d_3">
   <g id="patch_5">
    <path d="M 233.816026 262.567632 
L 34.309115 317.965802 
L 233.816026 383.048497 
L 433.322937 317.965802 
" style="fill: none; opacity: 0.5; stroke: #000000; stroke-linejoin: miter"/>
   </g>
  </g>
  <g id="axis3d_1">
   <g id="line2d_1">
    <path d="M 433.322937 317.965802 
L 233.816026 383.048497 
" style="fill: none; stroke: #000000; stroke-width: 0.8; stroke-linecap: square"/>
    <defs>
     <path id="m0b6ac4e04e" d="M 0 2.5 
C 0.663008 2.5 1.29895 2.236584 1.767767 1.767767 
C 2.236584 1.29895 2.5 0.663008 2.5 0 
C 2.5 -0.663008 2.236584 -1.29895 1.767767 -1.767767 
C 1.29895 -2.236584 0.663008 -2.5 0 -2.5 
C -0.663008 -2.5 -1.29895 -2.236584 -1.767767 -1.767767 
C -2.236584 -1.29895 -2.5 -0.663008 -2.5 0 
C -2.5 0.663008 -2.236584 1.29895 -1.767767 1.767767 
C -1.29895 2.236584 -0.663008 2.5 0 2.5 
z
" style="stroke: #000000"/>
    </defs>
    <g>
     <use xlink:href="#m0b6ac4e04e" x="433.322937" y="317.965802" style="stroke: #000000"/>
     <use xlink:href="#m0b6ac4e04e" x="233.816026" y="383.048497" style="stroke: #000000"/>
    </g>
   </g>
   <g id="xtick_1">
    <g id="line2d_2">
     <path d="M 413.102041 323.513136 
L 418.284403 324.973887 
" style="fill: none; stroke: #000000; stroke-width: 0.8; stroke-linecap: square"/>
    </g>
    <g id="text_1">
     <text style="font: 10px 'DejaVu Serif', 'Bitstream Vera Serif', 'Computer Modern Roman', 'New Century Schoolbook', 'Century Schoolbook L', 'Utopia', 'ITC Bookman', 'Bookman', 'Nimbus Roman No9 L', 'Times New Roman', 'Times', 'Palatino', 'Charter', serif; text-anchor: middle" x="425.393104" y="344.798123" transform="rotate(-0 425.393104 344.798123)">1</text>
    </g>
   </g>
   <g id="xtick_2">
    <g id="line2d_3">
     <path d="M 398.086804 328.404532 
L 403.273595 329.884414 
" style="fill: none; stroke: #000000; stroke-width: 0.8; stroke-linecap: square"/>
    </g>
    <g id="text_2">
     <text style="font: 10px 'DejaVu Serif', 'Bitstream Vera Serif', 'Computer Modern Roman', 'New Century Schoolbook', 'Century Schoolbook L', 'Utopia', 'ITC Bookman', 'Bookman', 'Nimbus Roman No9 L', 'Times New Roman', 'Times', 'Palatino', 'Charter', serif; text-anchor: middle" x="410.404706" y="349.796543" transform="rotate(-0 410.404706 349.796543)">2</text>
    </g>
   </g>
   <g id="xtick_3">
    <g id="line2d_4">
     <path d="M 382.874462 333.360138 
L 388.06535 334.85953 
" style="fill: none; stroke: #000000; stroke-width: 0.8; stroke-linecap: square"/>
    </g>
    <g id="text_3">
     <text style="font: 10px 'DejaVu Serif', 'Bitstream Vera Serif', 'Computer Modern Roman', 'New Century Schoolbook', 'Century Schoolbook L', 'Utopia', 'ITC Bookman', 'Bookman', 'Nimbus Roman No9 L', 'Times New Roman', 'Times', 'Palatino', 'Charter', serif; text-anchor: middle" x="395.218847" y="354.860813" transform="rotate(-0 395.218847 354.860813)">3</text>
    </g>
   </g>
   <g id="xtick_4">
    <g id="line2d_5">
     <path d="M 367.461106 338.381226 
L 372.655747 339.900515 
" style="fill: none; stroke: #000000; stroke-width: 0.8; stroke-linecap: square"/>
    </g>
    <g id="text_4">
     <text style="font: 10px 'DejaVu Serif', 'Bitstream Vera Serif', 'Computer Modern Roman', 'New Century Schoolbook', 'Century Schoolbook L', 'Utopia', 'ITC Bookman', 'Bookman', 'Nimbus Roman No9 L', 'Times New Roman', 'Times', 'Palatino', 'Charter', serif; text-anchor: middle" x="379.8316" y="359.992244" transform="rotate(-0 379.8316 359.992244)">4</text>
    </g>
   </g>
   <g id="xtick_5">
    <g id="line2d_6">
     <path d="M 351.842728 343.469102 
L 357.040761 345.008689 
" style="fill: none; stroke: #000000; stroke-width: 0.8; stroke-linecap: square"/>
    </g>
    <g id="text_5">
     <text style="font: 10px 'DejaVu Serif', 'Bitstream Vera Serif', 'Computer Modern Roman', 'New Century Schoolbook', 'Century Schoolbook L', 'Utopia', 'ITC Bookman', 'Bookman', 'Nimbus Roman No9 L', 'Times New Roman', 'Times', 'Palatino', 'Charter', serif; text-anchor: middle" x="364.238931" y="365.19218" transform="rotate(-0 364.238931 365.19218)">5</text>
    </g>
   </g>
   <g id="xtick_6">
    <g id="line2d_7">
     <path d="M 336.015207 348.62511 
L 341.216258 350.185402 
" style="fill: none; stroke: #000000; stroke-width: 0.8; stroke-linecap: square"/>
    </g>
    <g id="text_6">
     <text style="font: 10px 'DejaVu Serif', 'Bitstream Vera Serif', 'Computer Modern Roman', 'New Century Schoolbook', 'Century Schoolbook L', 'Utopia', 'ITC Bookman', 'Bookman', 'Nimbus Roman No9 L', 'Times New Roman', 'Times', 'Palatino', 'Charter', serif; text-anchor: middle" x="348.4367" y="370.462001" transform="rotate(-0 348.4367 370.462001)">6</text>
    </g>
   </g>
   <g id="xtick_7">
    <g id="line2d_8">
     <path d="M 319.974316 353.850625 
L 325.177993 355.432044 
" style="fill: none; stroke: #000000; stroke-width: 0.8; stroke-linecap: square"/>
    </g>
    <g id="text_7">
     <text style="font: 10px 'DejaVu Serif', 'Bitstream Vera Serif', 'Computer Modern Roman', 'New Century Schoolbook', 'Century Schoolbook L', 'Utopia', 'ITC Bookman', 'Bookman', 'Nimbus Roman No9 L', 'Times New Roman', 'Times', 'Palatino', 'Charter', serif; text-anchor: middle" x="332.420652" y="375.803128" transform="rotate(-0 332.420652 375.803128)">7</text>
    </g>
   </g>
   <g id="xtick_8">
    <g id="line2d_9">
     <path d="M 303.715709 359.147064 
L 308.921604 360.750042 
" style="fill: none; stroke: #000000; stroke-width: 0.8; stroke-linecap: square"/>
    </g>
    <g id="text_8">
     <text style="font: 10px 'DejaVu Serif', 'Bitstream Vera Serif', 'Computer Modern Roman', 'New Century Schoolbook', 'Century Schoolbook L', 'Utopia', 'ITC Bookman', 'Bookman', 'Nimbus Roman No9 L', 'Times New Roman', 'Times', 'Palatino', 'Charter', serif; text-anchor: middle" x="316.186419" y="381.217016" transform="rotate(-0 316.186419 381.217016)">8</text>
    </g>
   </g>
   <g id="xtick_9">
    <g id="line2d_10">
     <path d="M 287.234926 364.515879 
L 292.442612 366.14086 
" style="fill: none; stroke: #000000; stroke-width: 0.8; stroke-linecap: square"/>
    </g>
    <g id="text_9">
     <text style="font: 10px 'DejaVu Serif', 'Bitstream Vera Serif', 'Computer Modern Roman', 'New Century Schoolbook', 'Century Schoolbook L', 'Utopia', 'ITC Bookman', 'Bookman', 'Nimbus Roman No9 L', 'Times New Roman', 'Times', 'Palatino', 'Charter', serif; text-anchor: middle" x="299.729512" y="386.705163" transform="rotate(-0 299.729512 386.705163)">9</text>
    </g>
   </g>
   <g id="xtick_10">
    <g id="line2d_11">
     <path d="M 270.527379 369.958566 
L 275.736413 371.606005 
" style="fill: none; stroke: #000000; stroke-width: 0.8; stroke-linecap: square"/>
    </g>
    <g id="text_10">
     <text style="font: 10px 'DejaVu Serif', 'Bitstream Vera Serif', 'Computer Modern Roman', 'New Century Schoolbook', 'Century Schoolbook L', 'Utopia', 'ITC Bookman', 'Bookman', 'Nimbus Roman No9 L', 'Times New Roman', 'Times', 'Palatino', 'Charter', serif; text-anchor: middle" x="283.045318" y="392.269107" transform="rotate(-0 283.045318 392.269107)">10</text>
    </g>
   </g>
   <g id="xtick_11">
    <g id="line2d_12">
     <path d="M 253.588357 375.476658 
L 258.798274 377.147025 
" style="fill: none; stroke: #000000; stroke-width: 0.8; stroke-linecap: square"/>
    </g>
    <g id="text_11">
     <text style="font: 10px 'DejaVu Serif', 'Bitstream Vera Serif', 'Computer Modern Roman', 'New Century Schoolbook', 'Century Schoolbook L', 'Utopia', 'ITC Bookman', 'Bookman', 'Nimbus Roman No9 L', 'Times New Roman', 'Times', 'Palatino', 'Charter', serif; text-anchor: middle" x="266.129095" y="397.910429" transform="rotate(-0 266.129095 397.910429)">11</text>
    </g>
   </g>
   <g id="xtick_12">
    <g id="line2d_13">
     <path d="M 236.413016 381.071734 
L 241.623333 382.765511 
" style="fill: none; stroke: #000000; stroke-width: 0.8; stroke-linecap: square"/>
    </g>
    <g id="text_12">
     <text style="font: 10px 'DejaVu Serif', 'Bitstream Vera Serif', 'Computer Modern Roman', 'New Century Schoolbook', 'Century Schoolbook L', 'Utopia', 'ITC Bookman', 'Bookman', 'Nimbus Roman No9 L', 'Times New Roman', 'Times', 'Palatino', 'Charter', serif; text-anchor: middle" x="248.97597" y="403.630755" transform="rotate(-0 248.97597 403.630755)">12</text>
    </g>
   </g>
   <g id="text_13">
    <text style="font: 10px 'DejaVu Serif', 'Bitstream Vera Serif', 'Computer Modern Roman', 'New Century Schoolbook', 'Century Schoolbook L', 'Utopia', 'ITC Bookman', 'Bookman', 'Nimbus Roman No9 L', 'Times New Roman', 'Times', 'Palatino', 'Charter', serif; text-anchor: middle" x="361.923706" y="381.697026" transform="rotate(-18.067245 361.923706 381.697026)">Vertex multiplier</text>
   </g>
  </g>
  <g id="axis3d_2">
   <g id="line2d_14">
    <path d="M 34.309115 317.965802 
L 233.816026 383.048497 
" style="fill: none; stroke: #000000; stroke-width: 0.8; stroke-linecap: square"/>
    <g>
     <use xlink:href="#m0b6ac4e04e" x="34.309115" y="317.965802" style="stroke: #000000"/>
     <use xlink:href="#m0b6ac4e04e" x="233.816026" y="383.048497" style="stroke: #000000"/>
    </g>
   </g>
   <g id="xtick_13">
    <g id="line2d_15">
     <path d="M 54.530011 323.513136 
L 49.347649 324.973887 
" style="fill: none; stroke: #000000; stroke-width: 0.8; stroke-linecap: square"/>
    </g>
    <g id="text_14">
     <text style="font: 10px 'DejaVu Serif', 'Bitstream Vera Serif', 'Computer Modern Roman', 'New Century Schoolbook', 'Century Schoolbook L', 'Utopia', 'ITC Bookman', 'Bookman', 'Nimbus Roman No9 L', 'Times New Roman', 'Times', 'Palatino', 'Charter', serif; text-anchor: middle" x="42.238947" y="344.798123" transform="rotate(-0 42.238947 344.798123)">1</text>
    </g>
   </g>
   <g id="xtick_14">
    <g id="line2d_16">
     <path d="M 69.545247 328.404532 
L 64.358457 329.884414 
" style="fill: none; stroke: #000000; stroke-width: 0.8; stroke-linecap: square"/>
    </g>
    <g id="text_15">
     <text style="font: 10px 'DejaVu Serif', 'Bitstream Vera Serif', 'Computer Modern Roman', 'New Century Schoolbook', 'Century Schoolbook L', 'Utopia', 'ITC Bookman', 'Bookman', 'Nimbus Roman No9 L', 'Times New Roman', 'Times', 'Palatino', 'Charter', serif; text-anchor: middle" x="57.227346" y="349.796543" transform="rotate(-0 57.227346 349.796543)">2</text>
    </g>
   </g>
   <g id="xtick_15">
    <g id="line2d_17">
     <path d="M 84.75759 333.360138 
L 79.566702 334.85953 
" style="fill: none; stroke: #000000; stroke-width: 0.8; stroke-linecap: square"/>
    </g>
    <g id="text_16">
     <text style="font: 10px 'DejaVu Serif', 'Bitstream Vera Serif', 'Computer Modern Roman', 'New Century Schoolbook', 'Century Schoolbook L', 'Utopia', 'ITC Bookman', 'Bookman', 'Nimbus Roman No9 L', 'Times New Roman', 'Times', 'Palatino', 'Charter', serif; text-anchor: middle" x="72.413204" y="354.860813" transform="rotate(-0 72.413204 354.860813)">3</text>
    </g>
   </g>
   <g id="xtick_16">
    <g id="line2d_18">
     <path d="M 100.170945 338.381226 
L 94.976305 339.900515 
" style="fill: none; stroke: #000000; stroke-width: 0.8; stroke-linecap: square"/>
    </g>
    <g id="text_17">
     <text style="font: 10px 'DejaVu Serif', 'Bitstream Vera Serif', 'Computer Modern Roman', 'New Century Schoolbook', 'Century Schoolbook L', 'Utopia', 'ITC Bookman', 'Bookman', 'Nimbus Roman No9 L', 'Times New Roman', 'Times', 'Palatino', 'Charter', serif; text-anchor: middle" x="87.800452" y="359.992244" transform="rotate(-0 87.800452 359.992244)">4</text>
    </g>
   </g>
   <g id="xtick_17">
    <g id="line2d_19">
     <path d="M 115.789324 343.469102 
L 110.591291 345.008689 
" style="fill: none; stroke: #000000; stroke-width: 0.8; stroke-linecap: square"/>
    </g>
    <g id="text_18">
     <text style="font: 10px 'DejaVu Serif', 'Bitstream Vera Serif', 'Computer Modern Roman', 'New Century Schoolbook', 'Century Schoolbook L', 'Utopia', 'ITC Bookman', 'Bookman', 'Nimbus Roman No9 L', 'Times New Roman', 'Times', 'Palatino', 'Charter', serif; text-anchor: middle" x="103.393121" y="365.19218" transform="rotate(-0 103.393121 365.19218)">5</text>
    </g>
   </g>
   <g id="xtick_18">
    <g id="line2d_20">
     <path d="M 131.616845 348.62511 
L 126.415794 350.185402 
" style="fill: none; stroke: #000000; stroke-width: 0.8; stroke-linecap: square"/>
    </g>
    <g id="text_19">
     <text style="font: 10px 'DejaVu Serif', 'Bitstream Vera Serif', 'Computer Modern Roman', 'New Century Schoolbook', 'Century Schoolbook L', 'Utopia', 'ITC Bookman', 'Bookman', 'Nimbus Roman No9 L', 'Times New Roman', 'Times', 'Palatino', 'Charter', serif; text-anchor: middle" x="119.195352" y="370.462001" transform="rotate(-0 119.195352 370.462001)">6</text>
    </g>
   </g>
   <g id="xtick_19">
    <g id="line2d_21">
     <path d="M 147.657736 353.850625 
L 142.454059 355.432044 
" style="fill: none; stroke: #000000; stroke-width: 0.8; stroke-linecap: square"/>
    </g>
    <g id="text_20">
     <text style="font: 10px 'DejaVu Serif', 'Bitstream Vera Serif', 'Computer Modern Roman', 'New Century Schoolbook', 'Century Schoolbook L', 'Utopia', 'ITC Bookman', 'Bookman', 'Nimbus Roman No9 L', 'Times New Roman', 'Times', 'Palatino', 'Charter', serif; text-anchor: middle" x="135.2114" y="375.803128" transform="rotate(-0 135.2114 375.803128)">7</text>
    </g>
   </g>
   <g id="xtick_20">
    <g id="line2d_22">
     <path d="M 163.916342 359.147064 
L 158.710448 360.750042 
" style="fill: none; stroke: #000000; stroke-width: 0.8; stroke-linecap: square"/>
    </g>
    <g id="text_21">
     <text style="font: 10px 'DejaVu Serif', 'Bitstream Vera Serif', 'Computer Modern Roman', 'New Century Schoolbook', 'Century Schoolbook L', 'Utopia', 'ITC Bookman', 'Bookman', 'Nimbus Roman No9 L', 'Times New Roman', 'Times', 'Palatino', 'Charter', serif; text-anchor: middle" x="151.445632" y="381.217016" transform="rotate(-0 151.445632 381.217016)">8</text>
    </g>
   </g>
   <g id="xtick_21">
    <g id="line2d_23">
     <path d="M 180.397126 364.515879 
L 175.18944 366.14086 
" style="fill: none; stroke: #000000; stroke-width: 0.8; stroke-linecap: square"/>
    </g>
    <g id="text_22">
     <text style="font: 10px 'DejaVu Serif', 'Bitstream Vera Serif', 'Computer Modern Roman', 'New Century Schoolbook', 'Century Schoolbook L', 'Utopia', 'ITC Bookman', 'Bookman', 'Nimbus Roman No9 L', 'Times New Roman', 'Times', 'Palatino', 'Charter', serif; text-anchor: middle" x="167.902539" y="386.705163" transform="rotate(-0 167.902539 386.705163)">9</text>
    </g>
   </g>
   <g id="xtick_22">
    <g id="line2d_24">
     <path d="M 197.104672 369.958566 
L 191.895639 371.606005 
" style="fill: none; stroke: #000000; stroke-width: 0.8; stroke-linecap: square"/>
    </g>
    <g id="text_23">
     <text style="font: 10px 'DejaVu Serif', 'Bitstream Vera Serif', 'Computer Modern Roman', 'New Century Schoolbook', 'Century Schoolbook L', 'Utopia', 'ITC Bookman', 'Bookman', 'Nimbus Roman No9 L', 'Times New Roman', 'Times', 'Palatino', 'Charter', serif; text-anchor: middle" x="184.586734" y="392.269107" transform="rotate(-0 184.586734 392.269107)">10</text>
    </g>
   </g>
   <g id="xtick_23">
    <g id="line2d_25">
     <path d="M 214.043695 375.476658 
L 208.833777 377.147025 
" style="fill: none; stroke: #000000; stroke-width: 0.8; stroke-linecap: square"/>
    </g>
    <g id="text_24">
     <text style="font: 10px 'DejaVu Serif', 'Bitstream Vera Serif', 'Computer Modern Roman', 'New Century Schoolbook', 'Century Schoolbook L', 'Utopia', 'ITC Bookman', 'Bookman', 'Nimbus Roman No9 L', 'Times New Roman', 'Times', 'Palatino', 'Charter', serif; text-anchor: middle" x="201.502957" y="397.910429" transform="rotate(-0 201.502957 397.910429)">11</text>
    </g>
   </g>
   <g id="xtick_24">
    <g id="line2d_26">
     <path d="M 231.219036 381.071734 
L 226.008718 382.765511 
" style="fill: none; stroke: #000000; stroke-width: 0.8; stroke-linecap: square"/>
    </g>
    <g id="text_25">
     <text style="font: 10px 'DejaVu Serif', 'Bitstream Vera Serif', 'Computer Modern Roman', 'New Century Schoolbook', 'Century Schoolbook L', 'Utopia', 'ITC Bookman', 'Bookman', 'Nimbus Roman No9 L', 'Times New Roman', 'Times', 'Palatino', 'Charter', serif; text-anchor: middle" x="218.656082" y="403.630755" transform="rotate(-0 218.656082 403.630755)">12</text>
    </g>
   </g>
   <g id="text_26">
    <text style="font: 10px 'DejaVu Serif', 'Bitstream Vera Serif', 'Computer Modern Roman', 'New Century Schoolbook', 'Century Schoolbook L', 'Utopia', 'ITC Bookman', 'Bookman', 'Nimbus Roman No9 L', 'Times New Roman', 'Times', 'Palatino', 'Charter', serif; text-anchor: middle" x="105.730394" y="381.629438" transform="rotate(-341.932755 105.730394 381.629438)">Edge multiplier</text>
   </g>
  </g>
  <g id="axis3d_3">
   <g id="line2d_27">
    <path d="M 34.309115 317.965802 
L 29.644848 111.177856 
" style="fill: none; stroke: #000000; stroke-width: 0.8; stroke-linecap: square"/>
    <g>
     <use xlink:href="#m0b6ac4e04e" x="34.309115" y="317.965802" style="stroke: #000000"/>
     <use xlink:href="#m0b6ac4e04e" x="29.644848" y="111.177856" style="stroke: #000000"/>
    </g>
   </g>
   <g id="xtick_25">
    <g id="line2d_28">
     <path d="M 35.942006 313.446556 
L 30.76308 314.876759 
" style="fill: none; stroke: #000000; stroke-width: 0.8; stroke-linecap: square"/>
    </g>
    <g id="text_27">
     <text style="font: 10px 'DejaVu Serif', 'Bitstream Vera Serif', 'Computer Modern Roman', 'New Century Schoolbook', 'Century Schoolbook L', 'Utopia', 'ITC Bookman', 'Bookman', 'Nimbus Roman No9 L', 'Times New Roman', 'Times', 'Palatino', 'Charter', serif; text-anchor: middle" x="14.344514" y="321.521114" transform="rotate(-0 14.344514 321.521114)">0</text>
    </g>
   </g>
   <g id="xtick_26">
    <g id="line2d_29">
     <path d="M 35.411468 289.719165 
L 30.217601 291.107233 
" style="fill: none; stroke: #000000; stroke-width: 0.8; stroke-linecap: square"/>
    </g>
    <g id="text_28">
     <text style="font: 10px 'DejaVu Serif', 'Bitstream Vera Serif', 'Computer Modern Roman', 'New Century Schoolbook', 'Century Schoolbook L', 'Utopia', 'ITC Bookman', 'Bookman', 'Nimbus Roman No9 L', 'Times New Roman', 'Times', 'Palatino', 'Charter', serif; text-anchor: middle" x="13.755689" y="297.779695" transform="rotate(-0 13.755689 297.779695)">20</text>
    </g>
   </g>
   <g id="xtick_27">
    <g id="line2d_30">
     <path d="M 34.878076 265.864197 
L 29.669183 267.209655 
" style="fill: none; stroke: #000000; stroke-width: 0.8; stroke-linecap: square"/>
    </g>
    <g id="text_29">
     <text style="font: 10px 'DejaVu Serif', 'Bitstream Vera Serif', 'Computer Modern Roman', 'New Century Schoolbook', 'Century Schoolbook L', 'Utopia', 'ITC Bookman', 'Bookman', 'Nimbus Roman No9 L', 'Times New Roman', 'Times', 'Palatino', 'Charter', serif; text-anchor: middle" x="13.163695" y="273.91054" transform="rotate(-0 13.163695 273.91054)">40</text>
    </g>
   </g>
   <g id="xtick_28">
    <g id="line2d_31">
     <path d="M 34.341809 241.88062 
L 29.117802 243.182986 
" style="fill: none; stroke: #000000; stroke-width: 0.8; stroke-linecap: square"/>
    </g>
    <g id="text_30">
     <text style="font: 10px 'DejaVu Serif', 'Bitstream Vera Serif', 'Computer Modern Roman', 'New Century Schoolbook', 'Century Schoolbook L', 'Utopia', 'ITC Bookman', 'Bookman', 'Nimbus Roman No9 L', 'Times New Roman', 'Times', 'Palatino', 'Charter', serif; text-anchor: middle" x="12.568508" y="249.912616" transform="rotate(-0 12.568508 249.912616)">60</text>
    </g>
   </g>
   <g id="xtick_29">
    <g id="line2d_32">
     <path d="M 33.802643 217.76739 
L 28.563435 219.026179 
" style="fill: none; stroke: #000000; stroke-width: 0.8; stroke-linecap: square"/>
    </g>
    <g id="text_31">
     <text style="font: 10px 'DejaVu Serif', 'Bitstream Vera Serif', 'Computer Modern Roman', 'New Century Schoolbook', 'Century Schoolbook L', 'Utopia', 'ITC Bookman', 'Bookman', 'Nimbus Roman No9 L', 'Times New Roman', 'Times', 'Palatino', 'Charter', serif; text-anchor: middle" x="11.970101" y="225.784878" transform="rotate(-0 11.970101 225.784878)">80</text>
    </g>
   </g>
   <g id="xtick_30">
    <g id="line2d_33">
     <path d="M 33.260555 193.523454 
L 28.006057 194.738173 
" style="fill: none; stroke: #000000; stroke-width: 0.8; stroke-linecap: square"/>
    </g>
    <g id="text_32">
     <text style="font: 10px 'DejaVu Serif', 'Bitstream Vera Serif', 'Computer Modern Roman', 'New Century Schoolbook', 'Century Schoolbook L', 'Utopia', 'ITC Bookman', 'Bookman', 'Nimbus Roman No9 L', 'Times New Roman', 'Times', 'Palatino', 'Charter', serif; text-anchor: middle" x="11.368449" y="201.52627" transform="rotate(-0 11.368449 201.52627)">100</text>
    </g>
   </g>
   <g id="xtick_31">
    <g id="line2d_34">
     <path d="M 32.71552 169.147746 
L 27.445644 170.317896 
" style="fill: none; stroke: #000000; stroke-width: 0.8; stroke-linecap: square"/>
    </g>
    <g id="text_33">
     <text style="font: 10px 'DejaVu Serif', 'Bitstream Vera Serif', 'Computer Modern Roman', 'New Century Schoolbook', 'Century Schoolbook L', 'Utopia', 'ITC Bookman', 'Bookman', 'Nimbus Roman No9 L', 'Times New Roman', 'Times', 'Palatino', 'Charter', serif; text-anchor: middle" x="10.763524" y="177.135723" transform="rotate(-0 10.763524 177.135723)">120</text>
    </g>
   </g>
   <g id="xtick_32">
    <g id="line2d_35">
     <path d="M 32.167514 144.639189 
L 26.88217 145.764265 
" style="fill: none; stroke: #000000; stroke-width: 0.8; stroke-linecap: square"/>
    </g>
    <g id="text_34">
     <text style="font: 10px 'DejaVu Serif', 'Bitstream Vera Serif', 'Computer Modern Roman', 'New Century Schoolbook', 'Century Schoolbook L', 'Utopia', 'ITC Bookman', 'Bookman', 'Nimbus Roman No9 L', 'Times New Roman', 'Times', 'Palatino', 'Charter', serif; text-anchor: middle" x="10.1553" y="152.61216" transform="rotate(-0 10.1553 152.61216)">140</text>
    </g>
   </g>
   <g id="xtick_33">
    <g id="line2d_36">
     <path d="M 31.616514 119.996693 
L 26.315611 121.076184 
" style="fill: none; stroke: #000000; stroke-width: 0.8; stroke-linecap: square"/>
    </g>
    <g id="text_35">
     <text style="font: 10px 'DejaVu Serif', 'Bitstream Vera Serif', 'Computer Modern Roman', 'New Century Schoolbook', 'Century Schoolbook L', 'Utopia', 'ITC Bookman', 'Bookman', 'Nimbus Roman No9 L', 'Times New Roman', 'Times', 'Palatino', 'Charter', serif; text-anchor: middle" x="9.54375" y="127.954488" transform="rotate(-0 9.54375 127.954488)">160</text>
    </g>
   </g>
   <g id="text_36">
    <text style="font: 10px 'DejaVu Serif', 'Bitstream Vera Serif', 'Computer Modern Roman', 'New Century Schoolbook', 'Century Schoolbook L', 'Utopia', 'ITC Bookman', 'Bookman', 'Nimbus Roman No9 L', 'Times New Roman', 'Times', 'Palatino', 'Charter', serif; text-anchor: middle" x="-14.437018" y="215.828711" transform="rotate(-271.292133 -14.437018 215.828711)">Broken constraints</text>
   </g>
  </g>
  <g id="axes_1">
   <g id="QuadContourSet3D_1">
    <path d="M 263.963434 227.037751 
L 279.206753 251.979383 
L 294.63063 267.487463 
L 310.317518 270.055778 
L 326.199161 273.230409 
L 342.26915 277.59908 
L 358.48403 286.081105 
L 374.962959 290.001247 
L 391.664095 293.385284 
L 408.502109 300.942493 
L 425.635513 304.441372 
L 425.661207 303.25478 
L 408.548607 298.583567 
L 391.716303 290.451715 
L 375.046469 284.751511 
L 358.500309 284.921921 
L 342.33254 272.405629 
L 326.228965 270.362399 
L 310.30281 271.765486 
L 294.661633 262.952551 
L 279.206753 251.979383 
L 263.96153 227.602002 
L 249.0405 78.835684 
L 248.979571 115.19075 
z
" clip-path="url(#p5b9e60f6d0)" style="fill: #4e68d8"/>
    <path d="M 248.919128 151.255989 
L 248.961291 126.097933 
L 248.961291 126.097933 
L 263.992017 218.565422 
L 279.206753 251.979383 
L 294.646128 265.220585 
L 310.322422 269.485729 
L 326.133658 279.533525 
L 342.163664 286.24136 
L 358.467754 287.239987 
L 374.935144 291.749779 
L 391.611923 296.316914 
L 408.432408 304.47853 
L 425.507146 310.369567 
L 425.507146 310.369567 
L 425.609826 305.627646 
L 425.635513 304.441372 
L 408.502109 300.942493 
L 391.664095 293.385284 
L 374.962959 290.001247 
L 358.48403 286.081105 
L 342.26915 277.59908 
L 326.199161 273.230409 
L 310.317518 270.055778 
L 294.63063 267.487463 
L 279.206753 251.979383 
L 263.963434 227.037751 
L 248.979571 115.19075 
z
" clip-path="url(#p5b9e60f6d0)" style="fill: #779af7"/>
    <path d="M 248.945932 135.262553 
L 248.921039 150.11548 
L 264.032124 206.677136 
L 279.299007 233.868328 
L 294.762612 248.1821 
L 310.396055 260.92622 
L 326.175331 275.523486 
L 342.219897 281.634237 
L 358.459618 287.819315 
L 374.916607 292.915084 
L 391.559784 299.246607 
L 408.478869 302.121486 
L 425.532806 309.184563 
L 425.558472 307.999241 
L 425.507146 310.369567 
L 408.432408 304.47853 
L 391.611923 296.316914 
L 374.935144 291.749779 
L 358.467754 287.239987 
L 342.163664 286.24136 
L 326.133658 279.533525 
L 310.322422 269.485729 
L 294.646128 265.220585 
L 279.206753 251.979383 
L 263.992017 218.565422 
L 248.961291 126.097933 
z
" clip-path="url(#p5b9e60f6d0)" style="fill: #a3c2fe"/>
    <path d="M 248.896229 164.919614 
L 248.95937 127.244528 
L 248.95937 127.244528 
L 264.106894 184.514841 
L 279.327913 228.193516 
L 294.770393 247.043881 
L 310.410798 259.212341 
L 326.240893 269.214676 
L 342.262111 278.175755 
L 358.500309 284.921921 
L 374.916607 292.915084 
L 391.528518 301.003493 
L 408.385971 306.834321 
L 425.481493 311.554254 
L 425.481493 311.554254 
L 425.507146 310.369567 
L 425.532806 309.184563 
L 408.478869 302.121486 
L 391.559784 299.246607 
L 374.916607 292.915084 
L 358.459618 287.819315 
L 342.219897 281.634237 
L 326.175331 275.523486 
L 310.396055 260.92622 
L 294.762612 248.1821 
L 279.299007 233.868328 
L 264.032124 206.677136 
L 248.921039 150.11548 
z
" clip-path="url(#p5b9e60f6d0)" style="fill: #ccd9ed"/>
    <path d="M 249.017231 92.71963 
L 248.972831 119.212248 
L 264.158874 169.107352 
L 279.400339 213.974878 
L 294.817124 240.208456 
L 310.391141 261.497367 
L 326.288632 264.620823 
L 342.304357 274.714579 
L 358.492169 285.501551 
L 375.000062 287.668797 
L 391.591063 297.489023 
L 408.490488 301.532029 
L 425.532806 309.184563 
L 425.532806 309.184563 
L 425.481493 311.554254 
L 408.385971 306.834321 
L 391.528518 301.003493 
L 374.916607 292.915084 
L 358.500309 284.921921 
L 342.262111 278.175755 
L 326.240893 269.214676 
L 310.410798 259.212341 
L 294.770393 247.043881 
L 279.327913 228.193516 
L 264.106894 184.514841 
L 248.95937 127.244528 
z
" clip-path="url(#p5b9e60f6d0)" style="fill: #ecd3c5"/>
    <path d="M 248.92869 145.550557 
L 248.994034 106.561201 
L 248.994034 106.561201 
L 264.156946 169.678943 
L 279.380037 217.960656 
L 294.809331 241.348422 
L 310.450143 254.638768 
L 326.31252 262.322116 
L 342.318447 273.560254 
L 358.532881 282.602643 
L 375.046469 284.751511 
L 391.570209 298.660823 
L 408.339559 309.188859 
L 425.584145 306.813602 
L 425.584145 306.813602 
L 425.532806 309.184563 
L 425.532806 309.184563 
L 408.490488 301.532029 
L 391.591063 297.489023 
L 375.000062 287.668797 
L 358.492169 285.501551 
L 342.304357 274.714579 
L 326.288632 264.620823 
L 310.391141 261.497367 
L 294.817124 240.208456 
L 279.400339 213.974878 
L 264.158874 169.107352 
L 248.972831 119.212248 
z
" clip-path="url(#p5b9e60f6d0)" style="fill: #f7b093"/>
    <path d="M 248.976682 116.914687 
L 248.962252 125.524527 
L 264.226522 149.055804 
L 279.478819 198.567832 
L 294.906892 227.077887 
L 310.528952 245.477512 
L 326.324469 261.172317 
L 342.381894 268.362079 
L 358.647018 274.475619 
L 375.018621 286.502113 
L 391.705858 291.038584 
L 408.589314 296.518475 
L 425.545638 308.591942 
L 425.532806 309.184563 
L 425.584145 306.813602 
L 408.339559 309.188859 
L 391.570209 298.660823 
L 375.046469 284.751511 
L 358.532881 282.602643 
L 342.318447 273.560254 
L 326.31252 262.322116 
L 310.450143 254.638768 
L 294.809331 241.348422 
L 279.380037 217.960656 
L 264.156946 169.678943 
L 248.994034 106.561201 
z
" clip-path="url(#p5b9e60f6d0)" style="fill: #eb7d62"/>
    <path d="M 248.94785 134.117992 
L 249.015295 93.87471 
L 264.265314 137.557582 
L 279.490469 196.280793 
L 294.996924 213.908616 
L 310.558548 242.037181 
L 326.420171 251.963221 
L 342.417175 265.471577 
L 358.761363 266.333706 
L 375.06504 283.58406 
L 391.841741 283.403226 
L 408.606765 295.633142 
L 425.558472 307.999241 
L 425.558472 307.999241 
L 425.545638 308.591942 
L 408.589314 296.518475 
L 391.705858 291.038584 
L 375.018621 286.502113 
L 358.647018 274.475619 
L 342.381894 268.362079 
L 326.324469 261.172317 
L 310.528952 245.477512 
L 294.906892 227.077887 
L 279.478819 198.567832 
L 264.226522 149.055804 
L 248.962252 125.524527 
z
" clip-path="url(#p5b9e60f6d0)" style="fill: #ca3b37"/>
   </g>
   <g id="QuadContourSet3D_2">
    <path d="M 203.424888 154.793935 
L 187.818871 132.926707 
L 172.169018 145.729459 
L 156.536855 179.654131 
L 140.09691 144.672624 
L 123.348135 112.532162 
L 107.532149 171.02361 
L 90.187307 133.987229 
L 73.390101 148.533366 
L 56.559171 170.523728 
L 38.251064 131.468669 
L 38.717262 152.998537 
L 56.5831 171.737675 
L 73.74511 168.481628 
L 90.6849 165.267742 
L 107.69895 182.900637 
L 123.79184 148.884275 
L 140.384258 172.323305 
L 156.676706 195.911139 
L 172.426648 183.413751 
L 188.048171 177.94239 
L 203.546284 190.776842 
L 218.713879 151.826135 
L 218.591552 78.835684 
z
" clip-path="url(#p5b9e60f6d0)" style="fill: #4e68d8"/>
    <path d="M 203.546284 190.776842 
L 188.048171 177.94239 
L 172.426648 183.413751 
L 156.676706 195.911139 
L 140.384258 172.323305 
L 123.79184 148.884275 
L 107.69895 182.900637 
L 90.6849 165.267742 
L 73.74511 168.481628 
L 56.5831 171.737675 
L 38.717262 152.998537 
L 39.181243 174.426002 
L 40.442622 232.67872 
L 40.442622 232.67872 
L 58.030647 245.173712 
L 74.524878 212.297462 
L 91.913929 242.528931 
L 108.427673 234.788967 
L 124.775482 229.472637 
L 141.091975 240.425021 
L 157.132672 248.91519 
L 172.752508 231.078237 
L 188.425299 251.979383 
L 203.738893 247.867698 
L 218.868031 243.805539 
L 218.868031 243.805539 
L 218.834256 223.652993 
L 218.713879 151.826135 
z
" clip-path="url(#p5b9e60f6d0)" style="fill: #779af7"/>
    <path d="M 203.738893 247.867698 
L 188.425299 251.979383 
L 172.752508 231.078237 
L 157.132672 248.91519 
L 141.091975 240.425021 
L 124.775482 229.472637 
L 108.427673 234.788967 
L 91.913929 242.528931 
L 74.524878 212.297462 
L 58.030647 245.173712 
L 40.442622 232.67872 
L 40.755416 247.124115 
L 41.028282 259.725554 
L 58.359541 261.858952 
L 75.402285 261.599712 
L 92.306501 267.20744 
L 108.764323 258.759991 
L 125.250158 268.362079 
L 141.289654 259.447062 
L 157.142525 250.060494 
L 172.943265 258.980708 
L 188.471285 261.007388 
L 203.778632 259.646958 
L 218.882993 252.733089 
L 218.879255 250.502878 
L 218.868031 243.805539 
z
" clip-path="url(#p5b9e60f6d0)" style="fill: #a3c2fe"/>
    <path d="M 203.778632 259.646958 
L 188.471285 261.007388 
L 172.943265 258.980708 
L 157.142525 250.060494 
L 141.289654 259.447062 
L 125.250158 268.362079 
L 108.764323 258.759991 
L 92.306501 267.20744 
L 75.402285 261.599712 
L 58.359541 261.858952 
L 41.028282 259.725554 
L 41.300378 272.291423 
L 41.429678 278.262712 
L 41.429678 278.262712 
L 58.82726 285.58699 
L 75.664673 276.343528 
L 92.436877 275.403294 
L 108.90338 268.661489 
L 125.313605 273.560254 
L 141.391159 269.214676 
L 157.270377 264.922707 
L 173.040131 273.149608 
L 188.499979 266.640607 
L 203.776742 259.086747 
L 218.877386 249.387353 
L 218.877386 249.387353 
L 218.886729 254.962185 
L 218.882993 252.733089 
z
" clip-path="url(#p5b9e60f6d0)" style="fill: #ccd9ed"/>
    <path d="M 203.776742 259.086747 
L 188.499979 266.640607 
L 173.040131 273.149608 
L 157.270377 264.922707 
L 141.391159 269.214676 
L 125.313605 273.560254 
L 108.90338 268.661489 
L 92.436877 275.403294 
L 75.664673 276.343528 
L 58.82726 285.58699 
L 41.429678 278.262712 
L 41.636196 287.800107 
L 41.597508 286.013406 
L 58.920505 290.317425 
L 75.717046 279.286433 
L 92.585583 284.751511 
L 109.107315 283.182576 
L 125.355862 277.022329 
L 141.450765 274.950328 
L 157.348843 274.044074 
L 173.01304 269.186864 
L 188.502847 267.203537 
L 203.784301 261.327169 
L 218.88019 251.060535 
L 218.873645 247.155466 
L 218.877386 249.387353 
z
" clip-path="url(#p5b9e60f6d0)" style="fill: #ecd3c5"/>
    <path d="M 203.784301 261.327169 
L 188.502847 267.203537 
L 173.01304 269.186864 
L 157.348843 274.044074 
L 141.450765 274.950328 
L 125.355862 277.022329 
L 109.107315 283.182576 
L 92.585583 284.751511 
L 75.717046 279.286433 
L 58.920505 290.317425 
L 41.597508 286.013406 
L 41.558804 284.225984 
L 41.842272 297.317049 
L 41.842272 297.317049 
L 59.01365 295.042821 
L 75.936636 291.625376 
L 92.585583 284.751511 
L 109.099171 282.602643 
L 125.384016 279.328882 
L 141.498393 279.533525 
L 157.339044 272.904926 
L 173.040131 273.149608 
L 188.494243 265.514534 
L 203.795632 264.685689 
L 218.879255 250.502878 
L 218.879255 250.502878 
L 218.886729 254.962185 
L 218.88019 251.060535 
z
" clip-path="url(#p5b9e60f6d0)" style="fill: #f7b093"/>
    <path d="M 203.795632 264.685689 
L 188.494243 265.514534 
L 173.040131 273.149608 
L 157.339044 272.904926 
L 141.498393 279.533525 
L 125.384016 279.328882 
L 109.099171 282.602643 
L 92.585583 284.751511 
L 75.936636 291.625376 
L 59.01365 295.042821 
L 41.842272 297.317049 
L 41.73929 292.561131 
L 41.822971 296.425703 
L 58.996193 294.157193 
L 75.967956 293.385284 
L 92.780286 296.991244 
L 109.164298 287.239987 
L 125.447307 284.514249 
L 141.540028 283.539947 
L 157.368435 276.321494 
L 173.028524 271.451721 
L 188.502847 267.203537 
L 203.788079 262.446957 
L 218.883927 253.290468 
L 218.881124 251.618123 
L 218.879255 250.502878 
z
" clip-path="url(#p5b9e60f6d0)" style="fill: #eb7d62"/>
    <path d="M 203.788079 262.446957 
L 188.502847 267.203537 
L 173.028524 271.451721 
L 157.368435 276.321494 
L 141.540028 283.539947 
L 125.447307 284.514249 
L 109.164298 287.239987 
L 92.780286 296.991244 
L 75.967956 293.385284 
L 58.996193 294.157193 
L 41.822971 296.425703 
L 41.90658 300.286909 
L 42.07358 307.999241 
L 59.176417 303.300165 
L 76.082691 299.832313 
L 92.715445 292.915084 
L 109.213098 290.714819 
L 125.468388 286.24136 
L 141.545973 284.111998 
L 157.388016 278.597748 
L 173.032393 272.017756 
L 188.517179 270.017118 
L 203.784301 261.327169 
L 218.886729 254.962185 
L 218.886729 254.962185 
L 218.883927 253.290468 
z
" clip-path="url(#p5b9e60f6d0)" style="fill: #ca3b37"/>
   </g>
   <g id="Poly3DCollection_1">
    <path d="M 248.980872 231.599268 
L 233.816026 234.504258 
L 249.133014 260.355 
L 264.262111 256.141506 
z
" clip-path="url(#p5b9e60f6d0)" style="fill: #7da0f9; fill-opacity: 0.5; stroke: #000000; stroke-width: 0.5"/>
    <path d="M 233.816026 81.955268 
L 218.526851 158.375469 
L 233.816026 234.504258 
L 248.980872 231.599268 
z
" clip-path="url(#p5b9e60f6d0)" style="fill: #f7b599; fill-opacity: 0.5; stroke: #000000; stroke-width: 0.5"/>
    <path d="M 264.262111 256.141506 
L 249.133014 260.355 
L 264.584604 280.678586 
L 279.731636 267.204803 
z
" clip-path="url(#p5b9e60f6d0)" style="fill: #5572df; fill-opacity: 0.5; stroke: #000000; stroke-width: 0.5"/>
    <path d="M 218.526851 158.375469 
L 202.960647 136.404764 
L 218.447758 230.550216 
L 233.816026 234.504258 
z
" clip-path="url(#p5b9e60f6d0)" style="fill: #f2c9b4; fill-opacity: 0.5; stroke: #000000; stroke-width: 0.5"/>
    <path d="M 233.816026 234.504258 
L 218.447758 230.550216 
L 233.816026 264.620823 
L 249.133014 260.355 
z
" clip-path="url(#p5b9e60f6d0)" style="fill: #84a7fc; fill-opacity: 0.5; stroke: #000000; stroke-width: 0.5"/>
    <path d="M 279.731636 267.204803 
L 264.584604 280.678586 
L 280.298953 277.022329 
L 295.384926 276.09657 
z
" clip-path="url(#p5b9e60f6d0)" style="fill: #4a63d3; fill-opacity: 0.5; stroke: #000000; stroke-width: 0.5"/>
    <path d="M 249.133014 260.355 
L 233.816026 264.620823 
L 249.308324 278.175755 
L 264.584604 280.678586 
z
" clip-path="url(#p5b9e60f6d0)" style="fill: #5470de; fill-opacity: 0.5; stroke: #000000; stroke-width: 0.5"/>
    <path d="M 202.960647 136.404764 
L 187.29188 149.305627 
L 202.867937 228.856903 
L 218.447758 230.550216 
z
" clip-path="url(#p5b9e60f6d0)" style="fill: #f7b99e; fill-opacity: 0.5; stroke: #000000; stroke-width: 0.5"/>
    <path d="M 218.447758 230.550216 
L 202.867937 228.856903 
L 218.263164 243.442212 
L 233.816026 264.620823 
z
" clip-path="url(#p5b9e60f6d0)" style="fill: #9dbdff; fill-opacity: 0.5; stroke: #000000; stroke-width: 0.5"/>
    <path d="M 264.584604 280.678586 
L 249.308324 278.175755 
L 264.99524 282.602643 
L 280.298953 277.022329 
z
" clip-path="url(#p5b9e60f6d0)" style="fill: #4a63d3; fill-opacity: 0.5; stroke: #000000; stroke-width: 0.5"/>
    <path d="M 295.384926 276.09657 
L 280.298953 277.022329 
L 296.158168 284.921921 
L 311.307691 274.714579 
z
" clip-path="url(#p5b9e60f6d0)" style="fill: #4e68d8; fill-opacity: 0.5; stroke: #000000; stroke-width: 0.5"/>
    <path d="M 233.816026 264.620823 
L 218.263164 243.442212 
L 233.816026 272.150879 
L 249.308324 278.175755 
z
" clip-path="url(#p5b9e60f6d0)" style="fill: #6e90f2; fill-opacity: 0.5; stroke: #000000; stroke-width: 0.5"/>
    <path d="M 187.29188 149.305627 
L 171.605289 183.453173 
L 187.03552 220.135252 
L 202.867937 228.856903 
z
" clip-path="url(#p5b9e60f6d0)" style="fill: #f4c5ad; fill-opacity: 0.5; stroke: #000000; stroke-width: 0.5"/>
    <path d="M 202.867937 228.856903 
L 187.03552 220.135252 
L 202.563333 261.674484 
L 218.263164 243.442212 
z
" clip-path="url(#p5b9e60f6d0)" style="fill: #aec9fc; fill-opacity: 0.5; stroke: #000000; stroke-width: 0.5"/>
    <path d="M 280.298953 277.022329 
L 264.99524 282.602643 
L 280.849553 292.915084 
L 296.158168 284.921921 
z
" clip-path="url(#p5b9e60f6d0)" style="fill: #4a63d3; fill-opacity: 0.5; stroke: #000000; stroke-width: 0.5"/>
    <path d="M 311.307691 274.714579 
L 296.158168 284.921921 
L 312.215536 291.749779 
L 327.414796 276.799143 
z
" clip-path="url(#p5b9e60f6d0)" style="fill: #4f69d9; fill-opacity: 0.5; stroke: #000000; stroke-width: 0.5"/>
    <path d="M 249.308324 278.175755 
L 233.816026 272.150879 
L 249.508297 284.751511 
L 264.99524 282.602643 
z
" clip-path="url(#p5b9e60f6d0)" style="fill: #5572df; fill-opacity: 0.5; stroke: #000000; stroke-width: 0.5"/>
    <path d="M 218.263164 243.442212 
L 202.563333 261.674484 
L 218.084456 262.517304 
L 233.816026 272.150879 
z
" clip-path="url(#p5b9e60f6d0)" style="fill: #84a7fc; fill-opacity: 0.5; stroke: #000000; stroke-width: 0.5"/>
    <path d="M 171.605289 183.453173 
L 155.222147 148.290693 
L 170.931915 207.740548 
L 187.03552 220.135252 
z
" clip-path="url(#p5b9e60f6d0)" style="fill: #f7b093; fill-opacity: 0.5; stroke: #000000; stroke-width: 0.5"/>
    <path d="M 187.03552 220.135252 
L 170.931915 207.740548 
L 186.571497 253.122181 
L 202.563333 261.674484 
z
" clip-path="url(#p5b9e60f6d0)" style="fill: #bfd3f6; fill-opacity: 0.5; stroke: #000000; stroke-width: 0.5"/>
    <path d="M 296.158168 284.921921 
L 280.849553 292.915084 
L 296.90936 299.832313 
L 312.215536 291.749779 
z
" clip-path="url(#p5b9e60f6d0)" style="fill: #4257c9; fill-opacity: 0.5; stroke: #000000; stroke-width: 0.5"/>
    <path d="M 264.99524 282.602643 
L 249.508297 284.751511 
L 265.362693 299.832313 
L 280.849553 292.915084 
z
" clip-path="url(#p5b9e60f6d0)" style="fill: #485fd1; fill-opacity: 0.5; stroke: #000000; stroke-width: 0.5"/>
    <path d="M 327.414796 276.799143 
L 312.215536 291.749779 
L 328.493564 296.316914 
L 343.604187 289.418249 
z
" clip-path="url(#p5b9e60f6d0)" style="fill: #4a63d3; fill-opacity: 0.5; stroke: #000000; stroke-width: 0.5"/>
    <path d="M 233.816026 272.150879 
L 218.084456 262.517304 
L 233.816026 276.343528 
L 249.508297 284.751511 
z
" clip-path="url(#p5b9e60f6d0)" style="fill: #6c8ff1; fill-opacity: 0.5; stroke: #000000; stroke-width: 0.5"/>
    <path d="M 202.563333 261.674484 
L 186.571497 253.122181 
L 202.173177 272.809469 
L 218.084456 262.517304 
z
" clip-path="url(#p5b9e60f6d0)" style="fill: #88abfd; fill-opacity: 0.5; stroke: #000000; stroke-width: 0.5"/>
    <path d="M 280.849553 292.915084 
L 265.362693 299.832313 
L 281.470366 298.583567 
L 296.90936 299.832313 
z
" clip-path="url(#p5b9e60f6d0)" style="fill: #4055c8; fill-opacity: 0.5; stroke: #000000; stroke-width: 0.5"/>
    <path d="M 312.215536 291.749779 
L 296.90936 299.832313 
L 313.218791 300.942493 
L 328.493564 296.316914 
z
" clip-path="url(#p5b9e60f6d0)" style="fill: #4257c9; fill-opacity: 0.5; stroke: #000000; stroke-width: 0.5"/>
    <path d="M 343.604187 289.418249 
L 328.493564 296.316914 
L 344.935542 304.47853 
L 360.152961 289.277744 
z
" clip-path="url(#p5b9e60f6d0)" style="fill: #465ecf; fill-opacity: 0.5; stroke: #000000; stroke-width: 0.5"/>
    <path d="M 155.222147 148.290693 
L 138.523364 115.982161 
L 154.541686 192.758847 
L 170.931915 207.740548 
z
" clip-path="url(#p5b9e60f6d0)" style="fill: #dc5d4a; fill-opacity: 0.5; stroke: #000000; stroke-width: 0.5"/>
    <path d="M 249.508297 284.751511 
L 233.816026 276.343528 
L 249.713501 291.499246 
L 265.362693 299.832313 
z
" clip-path="url(#p5b9e60f6d0)" style="fill: #5572df; fill-opacity: 0.5; stroke: #000000; stroke-width: 0.5"/>
    <path d="M 170.931915 207.740548 
L 154.541686 192.758847 
L 170.311454 242.062799 
L 186.571497 253.122181 
z
" clip-path="url(#p5b9e60f6d0)" style="fill: #dfdbd9; fill-opacity: 0.5; stroke: #000000; stroke-width: 0.5"/>
    <path d="M 218.084456 262.517304 
L 202.173177 272.809469 
L 217.907956 285.58699 
L 233.816026 276.343528 
z
" clip-path="url(#p5b9e60f6d0)" style="fill: #7699f6; fill-opacity: 0.5; stroke: #000000; stroke-width: 0.5"/>
    <path d="M 186.571497 253.122181 
L 170.311454 242.062799 
L 186.040875 276.110971 
L 202.173177 272.809469 
z
" clip-path="url(#p5b9e60f6d0)" style="fill: #97b8ff; fill-opacity: 0.5; stroke: #000000; stroke-width: 0.5"/>
    <path d="M 328.493564 296.316914 
L 313.218791 300.942493 
L 329.712926 305.627646 
L 344.935542 304.47853 
z
" clip-path="url(#p5b9e60f6d0)" style="fill: #4257c9; fill-opacity: 0.5; stroke: #000000; stroke-width: 0.5"/>
    <path d="M 296.90936 299.832313 
L 281.470366 298.583567 
L 297.738732 306.813602 
L 313.218791 300.942493 
z
" clip-path="url(#p5b9e60f6d0)" style="fill: #4257c9; fill-opacity: 0.5; stroke: #000000; stroke-width: 0.5"/>
    <path d="M 265.362693 299.832313 
L 249.713501 291.499246 
L 265.781659 305.627646 
L 281.470366 298.583567 
z
" clip-path="url(#p5b9e60f6d0)" style="fill: #485fd1; fill-opacity: 0.5; stroke: #000000; stroke-width: 0.5"/>
    <path d="M 360.152961 289.277744 
L 344.935542 304.47853 
L 361.678559 305.627646 
L 376.836151 295.042821 
z
" clip-path="url(#p5b9e60f6d0)" style="fill: #4961d2; fill-opacity: 0.5; stroke: #000000; stroke-width: 0.5"/>
    <path d="M 138.523364 115.982161 
L 122.61036 174.848957 
L 138.139183 202.730559 
L 154.541686 192.758847 
z
" clip-path="url(#p5b9e60f6d0)" style="fill: #de614d; fill-opacity: 0.5; stroke: #000000; stroke-width: 0.5"/>
    <path d="M 233.816026 276.343528 
L 217.907956 285.58699 
L 233.816026 296.128548 
L 249.713501 291.499246 
z
" clip-path="url(#p5b9e60f6d0)" style="fill: #6282ea; fill-opacity: 0.5; stroke: #000000; stroke-width: 0.5"/>
    <path d="M 202.173177 272.809469 
L 186.040875 276.110971 
L 201.833261 300.880642 
L 217.907956 285.58699 
z
" clip-path="url(#p5b9e60f6d0)" style="fill: #6a8bef; fill-opacity: 0.5; stroke: #000000; stroke-width: 0.5"/>
    <path d="M 154.541686 192.758847 
L 138.139183 202.730559 
L 153.934972 247.561146 
L 170.311454 242.062799 
z
" clip-path="url(#p5b9e60f6d0)" style="fill: #ead4c8; fill-opacity: 0.5; stroke: #000000; stroke-width: 0.5"/>
    <path d="M 170.311454 242.062799 
L 153.934972 247.561146 
L 169.618256 268.704796 
L 186.040875 276.110971 
z
" clip-path="url(#p5b9e60f6d0)" style="fill: #a7c5fe; fill-opacity: 0.5; stroke: #000000; stroke-width: 0.5"/>
    <path d="M 313.218791 300.942493 
L 297.738732 306.813602 
L 314.215546 313.951573 
L 329.712926 305.627646 
z
" clip-path="url(#p5b9e60f6d0)" style="fill: #4055c8; fill-opacity: 0.5; stroke: #000000; stroke-width: 0.5"/>
    <path d="M 344.935542 304.47853 
L 329.712926 305.627646 
L 346.420867 310.37353 
L 361.678559 305.627646 
z
" clip-path="url(#p5b9e60f6d0)" style="fill: #4257c9; fill-opacity: 0.5; stroke: #000000; stroke-width: 0.5"/>
    <path d="M 281.470366 298.583567 
L 265.781659 305.627646 
L 282.075244 310.37353 
L 297.738732 306.813602 
z
" clip-path="url(#p5b9e60f6d0)" style="fill: #445acc; fill-opacity: 0.5; stroke: #000000; stroke-width: 0.5"/>
    <path d="M 376.836151 295.042821 
L 361.678559 305.627646 
L 378.554663 312.759213 
L 393.68701 303.25478 
z
" clip-path="url(#p5b9e60f6d0)" style="fill: #465ecf; fill-opacity: 0.5; stroke: #000000; stroke-width: 0.5"/>
    <path d="M 122.61036 174.848957 
L 105.319842 137.615155 
L 121.441031 204.390799 
L 138.139183 202.730559 
z
" clip-path="url(#p5b9e60f6d0)" style="fill: #e57058; fill-opacity: 0.5; stroke: #000000; stroke-width: 0.5"/>
    <path d="M 249.713501 291.499246 
L 233.816026 296.128548 
L 249.911109 305.598303 
L 265.781659 305.627646 
z
" clip-path="url(#p5b9e60f6d0)" style="fill: #506bda; fill-opacity: 0.5; stroke: #000000; stroke-width: 0.5"/>
    <path d="M 217.907956 285.58699 
L 201.833261 300.880642 
L 217.712256 300.817922 
L 233.816026 296.128548 
z
" clip-path="url(#p5b9e60f6d0)" style="fill: #5977e3; fill-opacity: 0.5; stroke: #000000; stroke-width: 0.5"/>
    <path d="M 138.139183 202.730559 
L 121.441031 204.390799 
L 137.376719 255.529034 
L 153.934972 247.561146 
z
" clip-path="url(#p5b9e60f6d0)" style="fill: #e7d7ce; fill-opacity: 0.5; stroke: #000000; stroke-width: 0.5"/>
    <path d="M 186.040875 276.110971 
L 169.618256 268.704796 
L 185.439444 288.844363 
L 201.833261 300.880642 
z
" clip-path="url(#p5b9e60f6d0)" style="fill: #7699f6; fill-opacity: 0.5; stroke: #000000; stroke-width: 0.5"/>
    <path d="M 153.934972 247.561146 
L 137.376719 255.529034 
L 153.112063 280.443602 
L 169.618256 268.704796 
z
" clip-path="url(#p5b9e60f6d0)" style="fill: #a7c5fe; fill-opacity: 0.5; stroke: #000000; stroke-width: 0.5"/>
    <path d="M 361.678559 305.627646 
L 346.420867 310.37353 
L 363.294104 318.780754 
L 378.554663 312.759213 
z
" clip-path="url(#p5b9e60f6d0)" style="fill: #4055c8; fill-opacity: 0.5; stroke: #000000; stroke-width: 0.5"/>
    <path d="M 329.712926 305.627646 
L 314.215546 313.951573 
L 330.937755 317.581273 
L 346.420867 310.37353 
z
" clip-path="url(#p5b9e60f6d0)" style="fill: #4055c8; fill-opacity: 0.5; stroke: #000000; stroke-width: 0.5"/>
    <path d="M 297.738732 306.813602 
L 282.075244 310.37353 
L 298.5902 313.980877 
L 314.215546 313.951573 
z
" clip-path="url(#p5b9e60f6d0)" style="fill: #4257c9; fill-opacity: 0.5; stroke: #000000; stroke-width: 0.5"/>
    <path d="M 393.68701 303.25478 
L 378.554663 312.759213 
L 395.729492 315.181335 
L 410.814202 307.98656 
z
" clip-path="url(#p5b9e60f6d0)" style="fill: #445acc; fill-opacity: 0.5; stroke: #000000; stroke-width: 0.5"/>
    <path d="M 265.781659 305.627646 
L 249.911109 305.598303 
L 266.207508 312.780094 
L 282.075244 310.37353 
z
" clip-path="url(#p5b9e60f6d0)" style="fill: #485fd1; fill-opacity: 0.5; stroke: #000000; stroke-width: 0.5"/>
    <path d="M 233.816026 296.128548 
L 217.712256 300.817922 
L 233.816026 304.365478 
L 249.911109 305.598303 
z
" clip-path="url(#p5b9e60f6d0)" style="fill: #5673e0; fill-opacity: 0.5; stroke: #000000; stroke-width: 0.5"/>
    <path d="M 105.319842 137.615155 
L 88.493381 152.275109 
L 104.376131 196.359613 
L 121.441031 204.390799 
z
" clip-path="url(#p5b9e60f6d0)" style="fill: #d1493f; fill-opacity: 0.5; stroke: #000000; stroke-width: 0.5"/>
    <path d="M 201.833261 300.880642 
L 185.439444 288.844363 
L 201.362891 295.934845 
L 217.712256 300.817922 
z
" clip-path="url(#p5b9e60f6d0)" style="fill: #6282ea; fill-opacity: 0.5; stroke: #000000; stroke-width: 0.5"/>
    <path d="M 169.618256 268.704796 
L 153.112063 280.443602 
L 168.900931 294.729159 
L 185.439444 288.844363 
z
" clip-path="url(#p5b9e60f6d0)" style="fill: #82a6fb; fill-opacity: 0.5; stroke: #000000; stroke-width: 0.5"/>
    <path d="M 121.441031 204.390799 
L 104.376131 196.359613 
L 120.12321 224.840445 
L 137.376719 255.529034 
z
" clip-path="url(#p5b9e60f6d0)" style="fill: #f4c6af; fill-opacity: 0.5; stroke: #000000; stroke-width: 0.5"/>
    <path d="M 137.376719 255.529034 
L 120.12321 224.840445 
L 136.244376 276.604441 
L 153.112063 280.443602 
z
" clip-path="url(#p5b9e60f6d0)" style="fill: #bad0f8; fill-opacity: 0.5; stroke: #000000; stroke-width: 0.5"/>
    <path d="M 378.554663 312.759213 
L 363.294104 318.780754 
L 380.414944 324.879687 
L 395.729492 315.181335 
z
" clip-path="url(#p5b9e60f6d0)" style="fill: #3e51c5; fill-opacity: 0.5; stroke: #000000; stroke-width: 0.5"/>
    <path d="M 314.215546 313.951573 
L 298.5902 313.980877 
L 315.270986 323.673329 
L 330.937755 317.581273 
z
" clip-path="url(#p5b9e60f6d0)" style="fill: #3f53c6; fill-opacity: 0.5; stroke: #000000; stroke-width: 0.5"/>
    <path d="M 346.420867 310.37353 
L 330.937755 317.581273 
L 347.884109 321.259625 
L 363.294104 318.780754 
z
" clip-path="url(#p5b9e60f6d0)" style="fill: #3f53c6; fill-opacity: 0.5; stroke: #000000; stroke-width: 0.5"/>
    <path d="M 282.075244 310.37353 
L 266.207508 312.780094 
L 282.702347 321.259625 
L 298.5902 313.980877 
z
" clip-path="url(#p5b9e60f6d0)" style="fill: #445acc; fill-opacity: 0.5; stroke: #000000; stroke-width: 0.5"/>
    <path d="M 249.911109 305.598303 
L 233.816026 304.365478 
L 250.115917 318.844603 
L 266.207508 312.780094 
z
" clip-path="url(#p5b9e60f6d0)" style="fill: #4e68d8; fill-opacity: 0.5; stroke: #000000; stroke-width: 0.5"/>
    <path d="M 217.712256 300.817922 
L 201.362891 295.934845 
L 217.507225 314.010599 
L 233.816026 304.365478 
z
" clip-path="url(#p5b9e60f6d0)" style="fill: #5d7ce6; fill-opacity: 0.5; stroke: #000000; stroke-width: 0.5"/>
    <path d="M 88.493381 152.275109 
L 71.620373 174.426002 
L 86.919907 180.836959 
L 104.376131 196.359613 
z
" clip-path="url(#p5b9e60f6d0)" style="fill: #d0473d; fill-opacity: 0.5; stroke: #000000; stroke-width: 0.5"/>
    <path d="M 185.439444 288.844363 
L 168.900931 294.729159 
L 184.829381 303.114744 
L 201.362891 295.934845 
z
" clip-path="url(#p5b9e60f6d0)" style="fill: #6f92f3; fill-opacity: 0.5; stroke: #000000; stroke-width: 0.5"/>
    <path d="M 153.112063 280.443602 
L 136.244376 276.604441 
L 152.026149 287.328833 
L 168.900931 294.729159 
z
" clip-path="url(#p5b9e60f6d0)" style="fill: #89acfd; fill-opacity: 0.5; stroke: #000000; stroke-width: 0.5"/>
    <path d="M 104.376131 196.359613 
L 86.919907 180.836959 
L 103.454063 258.405485 
L 120.12321 224.840445 
z
" clip-path="url(#p5b9e60f6d0)" style="fill: #f7b194; fill-opacity: 0.5; stroke: #000000; stroke-width: 0.5"/>
    <path d="M 363.294104 318.780754 
L 347.884109 321.259625 
L 365.023077 327.416576 
L 380.414944 324.879687 
z
" clip-path="url(#p5b9e60f6d0)" style="fill: #3d50c3; fill-opacity: 0.5; stroke: #000000; stroke-width: 0.5"/>
    <path d="M 298.5902 313.980877 
L 282.702347 321.259625 
L 299.401526 329.844202 
L 315.270986 323.673329 
z
" clip-path="url(#p5b9e60f6d0)" style="fill: #3f53c6; fill-opacity: 0.5; stroke: #000000; stroke-width: 0.5"/>
    <path d="M 330.937755 317.581273 
L 315.270986 323.673329 
L 332.234838 326.202263 
L 347.884109 321.259625 
z
" clip-path="url(#p5b9e60f6d0)" style="fill: #3f53c6; fill-opacity: 0.5; stroke: #000000; stroke-width: 0.5"/>
    <path d="M 120.12321 224.840445 
L 103.454063 258.405485 
L 119.058548 267.822626 
L 136.244376 276.604441 
z
" clip-path="url(#p5b9e60f6d0)" style="fill: #cad8ef; fill-opacity: 0.5; stroke: #000000; stroke-width: 0.5"/>
    <path d="M 266.207508 312.780094 
L 250.115917 318.844603 
L 266.640341 321.34167 
L 282.702347 321.259625 
z
" clip-path="url(#p5b9e60f6d0)" style="fill: #465ecf; fill-opacity: 0.5; stroke: #000000; stroke-width: 0.5"/>
    <path d="M 233.816026 304.365478 
L 217.507225 314.010599 
L 233.816026 322.557319 
L 250.115917 318.844603 
z
" clip-path="url(#p5b9e60f6d0)" style="fill: #4e68d8; fill-opacity: 0.5; stroke: #000000; stroke-width: 0.5"/>
    <path d="M 201.362891 295.934845 
L 184.829381 303.114744 
L 200.969126 315.258404 
L 217.507225 314.010599 
z
" clip-path="url(#p5b9e60f6d0)" style="fill: #5f7fe8; fill-opacity: 0.5; stroke: #000000; stroke-width: 0.5"/>
    <path d="M 168.900931 294.729159 
L 152.026149 287.328833 
L 168.040768 304.287405 
L 184.829381 303.114744 
z
" clip-path="url(#p5b9e60f6d0)" style="fill: #7699f6; fill-opacity: 0.5; stroke: #000000; stroke-width: 0.5"/>
    <path d="M 71.620373 174.426002 
L 53.36326 135.157371 
L 69.472423 182.385582 
L 86.919907 180.836959 
z
" clip-path="url(#p5b9e60f6d0)" style="fill: #b40426; fill-opacity: 0.5; stroke: #000000; stroke-width: 0.5"/>
    <path d="M 136.244376 276.604441 
L 119.058548 267.822626 
L 135.071512 296.958278 
L 152.026149 287.328833 
z
" clip-path="url(#p5b9e60f6d0)" style="fill: #9bbcff; fill-opacity: 0.5; stroke: #000000; stroke-width: 0.5"/>
    <path d="M 86.919907 180.836959 
L 69.472423 182.385582 
L 85.904997 245.775407 
L 103.454063 258.405485 
z
" clip-path="url(#p5b9e60f6d0)" style="fill: #f7ac8e; fill-opacity: 0.5; stroke: #000000; stroke-width: 0.5"/>
    <path d="M 315.270986 323.673329 
L 299.401526 329.844202 
L 316.331679 336.095431 
L 332.234838 326.202263 
z
" clip-path="url(#p5b9e60f6d0)" style="fill: #3c4ec2; fill-opacity: 0.5; stroke: #000000; stroke-width: 0.5"/>
    <path d="M 347.884109 321.259625 
L 332.234838 326.202263 
L 349.353915 334.874746 
L 365.023077 327.416576 
z
" clip-path="url(#p5b9e60f6d0)" style="fill: #3e51c5; fill-opacity: 0.5; stroke: #000000; stroke-width: 0.5"/>
    <path d="M 282.702347 321.259625 
L 266.640341 321.34167 
L 283.352816 331.210666 
L 299.401526 329.844202 
z
" clip-path="url(#p5b9e60f6d0)" style="fill: #4257c9; fill-opacity: 0.5; stroke: #000000; stroke-width: 0.5"/>
    <path d="M 103.454063 258.405485 
L 85.904997 245.775407 
L 101.682962 265.058085 
L 119.058548 267.822626 
z
" clip-path="url(#p5b9e60f6d0)" style="fill: #cdd9ec; fill-opacity: 0.5; stroke: #000000; stroke-width: 0.5"/>
    <path d="M 250.115917 318.844603 
L 233.816026 322.557319 
L 250.339719 325.097101 
L 266.640341 321.34167 
z
" clip-path="url(#p5b9e60f6d0)" style="fill: #4a63d3; fill-opacity: 0.5; stroke: #000000; stroke-width: 0.5"/>
    <path d="M 217.507225 314.010599 
L 200.969126 315.258404 
L 217.292332 325.097101 
L 233.816026 322.557319 
z
" clip-path="url(#p5b9e60f6d0)" style="fill: #4f69d9; fill-opacity: 0.5; stroke: #000000; stroke-width: 0.5"/>
    <path d="M 184.829381 303.114744 
L 168.040768 304.287405 
L 184.155568 309.162151 
L 200.969126 315.258404 
z
" clip-path="url(#p5b9e60f6d0)" style="fill: #688aef; fill-opacity: 0.5; stroke: #000000; stroke-width: 0.5"/>
    <path d="M 152.026149 287.328833 
L 135.071512 296.958278 
L 151.094488 314.071329 
L 168.040768 304.287405 
z
" clip-path="url(#p5b9e60f6d0)" style="fill: #7a9df8; fill-opacity: 0.5; stroke: #000000; stroke-width: 0.5"/>
    <path d="M 119.058548 267.822626 
L 101.682962 265.058085 
L 117.764572 295.633781 
L 135.071512 296.958278 
z
" clip-path="url(#p5b9e60f6d0)" style="fill: #a7c5fe; fill-opacity: 0.5; stroke: #000000; stroke-width: 0.5"/>
    <path d="M 332.234838 326.202263 
L 316.331679 336.095431 
L 333.497611 341.200792 
L 349.353915 334.874746 
z
" clip-path="url(#p5b9e60f6d0)" style="fill: #3b4cc0; fill-opacity: 0.5; stroke: #000000; stroke-width: 0.5"/>
    <path d="M 299.401526 329.844202 
L 283.352816 331.210666 
L 300.298178 337.515328 
L 316.331679 336.095431 
z
" clip-path="url(#p5b9e60f6d0)" style="fill: #3c4ec2; fill-opacity: 0.5; stroke: #000000; stroke-width: 0.5"/>
    <path d="M 266.640341 321.34167 
L 250.339719 325.097101 
L 267.061732 336.286155 
L 283.352816 331.210666 
z
" clip-path="url(#p5b9e60f6d0)" style="fill: #465ecf; fill-opacity: 0.5; stroke: #000000; stroke-width: 0.5"/>
    <path d="M 233.816026 322.557319 
L 217.292332 325.097101 
L 233.816026 327.672352 
L 250.339719 325.097101 
z
" clip-path="url(#p5b9e60f6d0)" style="fill: #4e68d8; fill-opacity: 0.5; stroke: #000000; stroke-width: 0.5"/>
    <path d="M 200.969126 315.258404 
L 184.155568 309.162151 
L 200.510017 320.275701 
L 217.292332 325.097101 
z
" clip-path="url(#p5b9e60f6d0)" style="fill: #5e7de7; fill-opacity: 0.5; stroke: #000000; stroke-width: 0.5"/>
    <path d="M 168.040768 304.287405 
L 151.094488 314.071329 
L 167.241164 325.208177 
L 184.155568 309.162151 
z
" clip-path="url(#p5b9e60f6d0)" style="fill: #688aef; fill-opacity: 0.5; stroke: #000000; stroke-width: 0.5"/>
    <path d="M 135.071512 296.958278 
L 117.764572 295.633781 
L 133.744408 306.682957 
L 151.094488 314.071329 
z
" clip-path="url(#p5b9e60f6d0)" style="fill: #7ea1fa; fill-opacity: 0.5; stroke: #000000; stroke-width: 0.5"/>
    <path d="M 316.331679 336.095431 
L 300.298178 337.515328 
L 317.467237 343.903218 
L 333.497611 341.200792 
z
" clip-path="url(#p5b9e60f6d0)" style="fill: #3b4cc0; fill-opacity: 0.5; stroke: #000000; stroke-width: 0.5"/>
    <path d="M 283.352816 331.210666 
L 267.061732 336.286155 
L 284.03491 338.955572 
L 300.298178 337.515328 
z
" clip-path="url(#p5b9e60f6d0)" style="fill: #4257c9; fill-opacity: 0.5; stroke: #000000; stroke-width: 0.5"/>
    <path d="M 250.339719 325.097101 
L 233.816026 327.672352 
L 250.548614 342.666827 
L 267.061732 336.286155 
z
" clip-path="url(#p5b9e60f6d0)" style="fill: #485fd1; fill-opacity: 0.5; stroke: #000000; stroke-width: 0.5"/>
    <path d="M 217.292332 325.097101 
L 200.510017 320.275701 
L 217.069351 335.241193 
L 233.816026 327.672352 
z
" clip-path="url(#p5b9e60f6d0)" style="fill: #5470de; fill-opacity: 0.5; stroke: #000000; stroke-width: 0.5"/>
    <path d="M 184.155568 309.162151 
L 167.241164 325.208177 
L 183.533671 327.803047 
L 200.510017 320.275701 
z
" clip-path="url(#p5b9e60f6d0)" style="fill: #6282ea; fill-opacity: 0.5; stroke: #000000; stroke-width: 0.5"/>
    <path d="M 151.094488 314.071329 
L 133.744408 306.682957 
L 149.953216 321.59501 
L 167.241164 325.208177 
z
" clip-path="url(#p5b9e60f6d0)" style="fill: #6b8df0; fill-opacity: 0.5; stroke: #000000; stroke-width: 0.5"/>
    <path d="M 267.061732 336.286155 
L 250.548614 342.666827 
L 267.484582 354.104972 
L 284.03491 338.955572 
z
" clip-path="url(#p5b9e60f6d0)" style="fill: #3e51c5; fill-opacity: 0.5; stroke: #000000; stroke-width: 0.5"/>
    <path d="M 300.298178 337.515328 
L 284.03491 338.955572 
L 301.19115 349.132301 
L 317.467237 343.903218 
z
" clip-path="url(#p5b9e60f6d0)" style="fill: #3f53c6; fill-opacity: 0.5; stroke: #000000; stroke-width: 0.5"/>
    <path d="M 233.816026 327.672352 
L 217.069351 335.241193 
L 233.816026 340.416605 
L 250.548614 342.666827 
z
" clip-path="url(#p5b9e60f6d0)" style="fill: #4b64d5; fill-opacity: 0.5; stroke: #000000; stroke-width: 0.5"/>
    <path d="M 200.510017 320.275701 
L 183.533671 327.803047 
L 200.090387 339.170098 
L 217.069351 335.241193 
z
" clip-path="url(#p5b9e60f6d0)" style="fill: #5875e1; fill-opacity: 0.5; stroke: #000000; stroke-width: 0.5"/>
    <path d="M 167.241164 325.208177 
L 149.953216 321.59501 
L 166.240632 322.933399 
L 183.533671 327.803047 
z
" clip-path="url(#p5b9e60f6d0)" style="fill: #6485ec; fill-opacity: 0.5; stroke: #000000; stroke-width: 0.5"/>
    <path d="M 284.03491 338.955572 
L 267.484582 354.104972 
L 284.707102 351.928901 
L 301.19115 349.132301 
z
" clip-path="url(#p5b9e60f6d0)" style="fill: #3d50c3; fill-opacity: 0.5; stroke: #000000; stroke-width: 0.5"/>
    <path d="M 250.548614 342.666827 
L 233.816026 340.416605 
L 250.784541 349.423534 
L 267.484582 354.104972 
z
" clip-path="url(#p5b9e60f6d0)" style="fill: #4055c8; fill-opacity: 0.5; stroke: #000000; stroke-width: 0.5"/>
    <path d="M 217.069351 335.241193 
L 200.090387 339.170098 
L 216.837855 344.408525 
L 233.816026 340.416605 
z
" clip-path="url(#p5b9e60f6d0)" style="fill: #4f69d9; fill-opacity: 0.5; stroke: #000000; stroke-width: 0.5"/>
    <path d="M 183.533671 327.803047 
L 166.240632 322.933399 
L 182.867018 341.89888 
L 200.090387 339.170098 
z
" clip-path="url(#p5b9e60f6d0)" style="fill: #5e7de7; fill-opacity: 0.5; stroke: #000000; stroke-width: 0.5"/>
    <path d="M 267.484582 354.104972 
L 250.784541 349.423534 
L 267.967116 359.806318 
L 284.707102 351.928901 
z
" clip-path="url(#p5b9e60f6d0)" style="fill: #3d50c3; fill-opacity: 0.5; stroke: #000000; stroke-width: 0.5"/>
    <path d="M 233.816026 340.416605 
L 216.837855 344.408525 
L 233.816026 347.825188 
L 250.784541 349.423534 
z
" clip-path="url(#p5b9e60f6d0)" style="fill: #4e68d8; fill-opacity: 0.5; stroke: #000000; stroke-width: 0.5"/>
    <path d="M 200.090387 339.170098 
L 182.867018 341.89888 
L 199.596395 342.138526 
L 216.837855 344.408525 
z
" clip-path="url(#p5b9e60f6d0)" style="fill: #5572df; fill-opacity: 0.5; stroke: #000000; stroke-width: 0.5"/>
    <path d="M 250.784541 349.423534 
L 233.816026 347.825188 
L 251.012339 363.986663 
L 267.967116 359.806318 
z
" clip-path="url(#p5b9e60f6d0)" style="fill: #455cce; fill-opacity: 0.5; stroke: #000000; stroke-width: 0.5"/>
    <path d="M 216.837855 344.408525 
L 199.596395 342.138526 
L 216.603593 355.738481 
L 233.816026 347.825188 
z
" clip-path="url(#p5b9e60f6d0)" style="fill: #5572df; fill-opacity: 0.5; stroke: #000000; stroke-width: 0.5"/>
    <path d="M 233.816026 347.825188 
L 216.603593 355.738481 
L 233.816026 369.502553 
L 251.012339 363.986663 
z
" clip-path="url(#p5b9e60f6d0)" style="fill: #485fd1; fill-opacity: 0.5; stroke: #000000; stroke-width: 0.5"/>
   </g>
   <g id="Path3DCollection_1">
    <defs>
     <path id="m960526cc81" d="M -5 5 
L 5 -5 
M -5 -5 
L 5 5 
" style="stroke: #ff0000"/>
    </defs>
    <g clip-path="url(#p5b9e60f6d0)">
     <use xlink:href="#m960526cc81" x="333.497611" y="341.200792" style="fill: #ff0000; stroke: #ff0000"/>
    </g>
   </g>
  </g>
 </g>
 <defs>
  <clipPath id="p5b9e60f6d0">
   <rect x="6.062512" y="-0" width="443.52" height="443.52"/>
  </clipPath>
 </defs>
</svg>
