<?xml version="1.0" encoding="utf-8" standalone="no"?>
<!DOCTYPE svg PUBLIC "-//W3C//DTD SVG 1.1//EN"
  "http://www.w3.org/Graphics/SVG/1.1/DTD/svg11.dtd">
<svg xmlns:xlink="http://www.w3.org/1999/xlink" width="449.622731pt" height="443.52pt" viewBox="0 0 449.622731 443.52" xmlns="http://www.w3.org/2000/svg" version="1.1">
 <metadata>
  <rdf:RDF xmlns:dc="http://purl.org/dc/elements/1.1/" xmlns:cc="http://creativecommons.org/ns#" xmlns:rdf="http://www.w3.org/1999/02/22-rdf-syntax-ns#">
   <cc:Work>
    <dc:type rdf:resource="http://purl.org/dc/dcmitype/StillImage"/>
    <dc:date>2025-04-17T13:06:39.441112</dc:date>
    <dc:format>image/svg+xml</dc:format>
    <dc:creator>
     <cc:Agent>
      <dc:title>Matplotlib v3.8.0, https://matplotlib.org/</dc:title>
     </cc:Agent>
    </dc:creator>
   </cc:Work>
  </rdf:RDF>
 </metadata>
 <defs>
  <style type="text/css">*{stroke-linejoin: round; stroke-linecap: butt}</style>
 </defs>
 <g id="figure_1">
  <g id="patch_1">
   <path d="M 0 443.52 
L 449.622731 443.52 
L 449.622731 0 
L 0 0 
z
" style="fill: #ffffff"/>
  </g>
  <g id="patch_2">
   <path d="M 6.102731 443.52 
L 449.622731 443.52 
L 449.622731 -0 
L 6.102731 -0 
z
" style="fill: #ffffff"/>
  </g>
  <g id="pane3d_1">
   <g id="patch_3">
    <path d="M 233.856244 262.567632 
L 433.363155 317.965802 
L 438.027422 111.177856 
L 233.856244 70.300703 
" style="fill: none; opacity: 0.5; stroke: #000000; stroke-linejoin: miter"/>
   </g>
  </g>
  <g id="pane3d_2">
   <g id="patch_4">
    <path d="M 233.856244 262.567632 
L 34.349333 317.965802 
L 29.685066 111.177856 
L 233.856244 70.300703 
" style="fill: none; opacity: 0.5; stroke: #000000; stroke-linejoin: miter"/>
   </g>
  </g>
  <g id="pane3d_3">
   <g id="patch_5">
    <path d="M 233.856244 262.567632 
L 34.349333 317.965802 
L 233.856244 383.048497 
L 433.363155 317.965802 
" style="fill: none; opacity: 0.5; stroke: #000000; stroke-linejoin: miter"/>
   </g>
  </g>
  <g id="axis3d_1">
   <g id="line2d_1">
    <path d="M 433.363155 317.965802 
L 233.856244 383.048497 
" style="fill: none; stroke: #000000; stroke-width: 0.8; stroke-linecap: square"/>
    <defs>
     <path id="m840f049172" d="M 0 2.5 
C 0.663008 2.5 1.29895 2.236584 1.767767 1.767767 
C 2.236584 1.29895 2.5 0.663008 2.5 0 
C 2.5 -0.663008 2.236584 -1.29895 1.767767 -1.767767 
C 1.29895 -2.236584 0.663008 -2.5 0 -2.5 
C -0.663008 -2.5 -1.29895 -2.236584 -1.767767 -1.767767 
C -2.236584 -1.29895 -2.5 -0.663008 -2.5 0 
C -2.5 0.663008 -2.236584 1.29895 -1.767767 1.767767 
C -1.29895 2.236584 -0.663008 2.5 0 2.5 
z
" style="stroke: #000000"/>
    </defs>
    <g>
     <use xlink:href="#m840f049172" x="433.363155" y="317.965802" style="stroke: #000000"/>
     <use xlink:href="#m840f049172" x="233.856244" y="383.048497" style="stroke: #000000"/>
    </g>
   </g>
   <g id="xtick_1">
    <g id="line2d_2">
     <path d="M 408.158844 325.136544 
L 413.342718 326.603631 
" style="fill: none; stroke: #000000; stroke-width: 0.8; stroke-linecap: square"/>
    </g>
    <g id="text_1">
     <text style="font: 10px 'DejaVu Serif', 'Bitstream Vera Serif', 'Computer Modern Roman', 'New Century Schoolbook', 'Century Schoolbook L', 'Utopia', 'ITC Bookman', 'Bookman', 'Nimbus Roman No9 L', 'Times New Roman', 'Times', 'Palatino', 'Charter', serif; text-anchor: middle" x="420.458892" y="346.457026" transform="rotate(-0 420.458892 346.457026)">1</text>
    </g>
   </g>
   <g id="xtick_2">
    <g id="line2d_3">
     <path d="M 388.007601 331.701057 
L 393.197161 333.193903 
" style="fill: none; stroke: #000000; stroke-width: 0.8; stroke-linecap: square"/>
    </g>
    <g id="text_2">
     <text style="font: 10px 'DejaVu Serif', 'Bitstream Vera Serif', 'Computer Modern Roman', 'New Century Schoolbook', 'Century Schoolbook L', 'Utopia', 'ITC Bookman', 'Bookman', 'Nimbus Roman No9 L', 'Times New Roman', 'Times', 'Palatino', 'Charter', serif; text-anchor: middle" x="400.343199" y="353.165327" transform="rotate(-0 400.343199 353.165327)">2</text>
    </g>
   </g>
   <g id="xtick_3">
    <g id="line2d_4">
     <path d="M 367.501325 338.381226 
L 372.695966 339.900515 
" style="fill: none; stroke: #000000; stroke-width: 0.8; stroke-linecap: square"/>
    </g>
    <g id="text_3">
     <text style="font: 10px 'DejaVu Serif', 'Bitstream Vera Serif', 'Computer Modern Roman', 'New Century Schoolbook', 'Century Schoolbook L', 'Utopia', 'ITC Bookman', 'Bookman', 'Nimbus Roman No9 L', 'Times New Roman', 'Times', 'Palatino', 'Charter', serif; text-anchor: middle" x="379.871818" y="359.992244" transform="rotate(-0 379.871818 359.992244)">3</text>
    </g>
   </g>
   <g id="xtick_4">
    <g id="line2d_5">
     <path d="M 346.63055 345.180134 
L 351.829632 346.726577 
" style="fill: none; stroke: #000000; stroke-width: 0.8; stroke-linecap: square"/>
    </g>
    <g id="text_4">
     <text style="font: 10px 'DejaVu Serif', 'Bitstream Vera Serif', 'Computer Modern Roman', 'New Century Schoolbook', 'Century Schoolbook L', 'Utopia', 'ITC Bookman', 'Bookman', 'Nimbus Roman No9 L', 'Times New Roman', 'Times', 'Palatino', 'Charter', serif; text-anchor: middle" x="359.035232" y="366.940952" transform="rotate(-0 359.035232 366.940952)">4</text>
    </g>
   </g>
   <g id="xtick_5">
    <g id="line2d_6">
     <path d="M 325.385471 352.100977 
L 330.588318 353.675306 
" style="fill: none; stroke: #000000; stroke-width: 0.8; stroke-linecap: square"/>
    </g>
    <g id="text_5">
     <text style="font: 10px 'DejaVu Serif', 'Bitstream Vera Serif', 'Computer Modern Roman', 'New Century Schoolbook', 'Century Schoolbook L', 'Utopia', 'ITC Bookman', 'Bookman', 'Nimbus Roman No9 L', 'Times New Roman', 'Times', 'Palatino', 'Charter', serif; text-anchor: middle" x="337.823578" y="374.01474" transform="rotate(-0 337.823578 374.01474)">5</text>
    </g>
   </g>
   <g id="xtick_6">
    <g id="line2d_7">
     <path d="M 303.755928 359.147064 
L 308.961823 360.750042 
" style="fill: none; stroke: #000000; stroke-width: 0.8; stroke-linecap: square"/>
    </g>
    <g id="text_6">
     <text style="font: 10px 'DejaVu Serif', 'Bitstream Vera Serif', 'Computer Modern Roman', 'New Century Schoolbook', 'Century Schoolbook L', 'Utopia', 'ITC Bookman', 'Bookman', 'Nimbus Roman No9 L', 'Times New Roman', 'Times', 'Palatino', 'Charter', serif; text-anchor: middle" x="316.226638" y="381.217016" transform="rotate(-0 316.226638 381.217016)">6</text>
    </g>
   </g>
   <g id="xtick_7">
    <g id="line2d_8">
     <path d="M 281.731388 366.321825 
L 286.939574 367.954241 
" style="fill: none; stroke: #000000; stroke-width: 0.8; stroke-linecap: square"/>
    </g>
    <g id="text_7">
     <text style="font: 10px 'DejaVu Serif', 'Bitstream Vera Serif', 'Computer Modern Roman', 'New Century Schoolbook', 'Century Schoolbook L', 'Utopia', 'ITC Bookman', 'Bookman', 'Nimbus Roman No9 L', 'Times New Roman', 'Times', 'Palatino', 'Charter', serif; text-anchor: middle" x="294.233818" y="388.551312" transform="rotate(-0 294.233818 388.551312)">7</text>
    </g>
   </g>
   <g id="xtick_8">
    <g id="line2d_9">
     <path d="M 259.300932 373.628819 
L 264.510607 375.29149 
" style="fill: none; stroke: #000000; stroke-width: 0.8; stroke-linecap: square"/>
    </g>
    <g id="text_8">
     <text style="font: 10px 'DejaVu Serif', 'Bitstream Vera Serif', 'Computer Modern Roman', 'New Century Schoolbook', 'Century Schoolbook L', 'Utopia', 'ITC Bookman', 'Bookman', 'Nimbus Roman No9 L', 'Times New Roman', 'Times', 'Palatino', 'Charter', serif; text-anchor: middle" x="271.834134" y="396.021291" transform="rotate(-0 271.834134 396.021291)">8</text>
    </g>
   </g>
   <g id="xtick_9">
    <g id="line2d_10">
     <path d="M 236.453234 381.071734 
L 241.663552 382.765511 
" style="fill: none; stroke: #000000; stroke-width: 0.8; stroke-linecap: square"/>
    </g>
    <g id="text_9">
     <text style="font: 10px 'DejaVu Serif', 'Bitstream Vera Serif', 'Computer Modern Roman', 'New Century Schoolbook', 'Century Schoolbook L', 'Utopia', 'ITC Bookman', 'Bookman', 'Nimbus Roman No9 L', 'Times New Roman', 'Times', 'Palatino', 'Charter', serif; text-anchor: middle" x="249.016188" y="403.630755" transform="rotate(-0 249.016188 403.630755)">9</text>
    </g>
   </g>
   <g id="text_10">
    <text style="font: 10px 'DejaVu Serif', 'Bitstream Vera Serif', 'Computer Modern Roman', 'New Century Schoolbook', 'Century Schoolbook L', 'Utopia', 'ITC Bookman', 'Bookman', 'Nimbus Roman No9 L', 'Times New Roman', 'Times', 'Palatino', 'Charter', serif; text-anchor: middle" x="361.963925" y="381.697026" transform="rotate(-18.067245 361.963925 381.697026)">Vertex multiplier</text>
   </g>
  </g>
  <g id="axis3d_2">
   <g id="line2d_11">
    <path d="M 34.349333 317.965802 
L 233.856244 383.048497 
" style="fill: none; stroke: #000000; stroke-width: 0.8; stroke-linecap: square"/>
    <g>
     <use xlink:href="#m840f049172" x="34.349333" y="317.965802" style="stroke: #000000"/>
     <use xlink:href="#m840f049172" x="233.856244" y="383.048497" style="stroke: #000000"/>
    </g>
   </g>
   <g id="xtick_10">
    <g id="line2d_12">
     <path d="M 59.553645 325.136544 
L 54.369771 326.603631 
" style="fill: none; stroke: #000000; stroke-width: 0.8; stroke-linecap: square"/>
    </g>
    <g id="text_11">
     <text style="font: 10px 'DejaVu Serif', 'Bitstream Vera Serif', 'Computer Modern Roman', 'New Century Schoolbook', 'Century Schoolbook L', 'Utopia', 'ITC Bookman', 'Bookman', 'Nimbus Roman No9 L', 'Times New Roman', 'Times', 'Palatino', 'Charter', serif; text-anchor: middle" x="47.253597" y="346.457026" transform="rotate(-0 47.253597 346.457026)">1</text>
    </g>
   </g>
   <g id="xtick_11">
    <g id="line2d_13">
     <path d="M 79.704888 331.701057 
L 74.515328 333.193903 
" style="fill: none; stroke: #000000; stroke-width: 0.8; stroke-linecap: square"/>
    </g>
    <g id="text_12">
     <text style="font: 10px 'DejaVu Serif', 'Bitstream Vera Serif', 'Computer Modern Roman', 'New Century Schoolbook', 'Century Schoolbook L', 'Utopia', 'ITC Bookman', 'Bookman', 'Nimbus Roman No9 L', 'Times New Roman', 'Times', 'Palatino', 'Charter', serif; text-anchor: middle" x="67.36929" y="353.165327" transform="rotate(-0 67.36929 353.165327)">2</text>
    </g>
   </g>
   <g id="xtick_12">
    <g id="line2d_14">
     <path d="M 100.211164 338.381226 
L 95.016523 339.900515 
" style="fill: none; stroke: #000000; stroke-width: 0.8; stroke-linecap: square"/>
    </g>
    <g id="text_13">
     <text style="font: 10px 'DejaVu Serif', 'Bitstream Vera Serif', 'Computer Modern Roman', 'New Century Schoolbook', 'Century Schoolbook L', 'Utopia', 'ITC Bookman', 'Bookman', 'Nimbus Roman No9 L', 'Times New Roman', 'Times', 'Palatino', 'Charter', serif; text-anchor: middle" x="87.84067" y="359.992244" transform="rotate(-0 87.84067 359.992244)">3</text>
    </g>
   </g>
   <g id="xtick_13">
    <g id="line2d_15">
     <path d="M 121.081938 345.180134 
L 115.882856 346.726577 
" style="fill: none; stroke: #000000; stroke-width: 0.8; stroke-linecap: square"/>
    </g>
    <g id="text_14">
     <text style="font: 10px 'DejaVu Serif', 'Bitstream Vera Serif', 'Computer Modern Roman', 'New Century Schoolbook', 'Century Schoolbook L', 'Utopia', 'ITC Bookman', 'Bookman', 'Nimbus Roman No9 L', 'Times New Roman', 'Times', 'Palatino', 'Charter', serif; text-anchor: middle" x="108.677257" y="366.940952" transform="rotate(-0 108.677257 366.940952)">4</text>
    </g>
   </g>
   <g id="xtick_14">
    <g id="line2d_16">
     <path d="M 142.327017 352.100977 
L 137.124171 353.675306 
" style="fill: none; stroke: #000000; stroke-width: 0.8; stroke-linecap: square"/>
    </g>
    <g id="text_15">
     <text style="font: 10px 'DejaVu Serif', 'Bitstream Vera Serif', 'Computer Modern Roman', 'New Century Schoolbook', 'Century Schoolbook L', 'Utopia', 'ITC Bookman', 'Bookman', 'Nimbus Roman No9 L', 'Times New Roman', 'Times', 'Palatino', 'Charter', serif; text-anchor: middle" x="129.888911" y="374.01474" transform="rotate(-0 129.888911 374.01474)">5</text>
    </g>
   </g>
   <g id="xtick_15">
    <g id="line2d_17">
     <path d="M 163.956561 359.147064 
L 158.750666 360.750042 
" style="fill: none; stroke: #000000; stroke-width: 0.8; stroke-linecap: square"/>
    </g>
    <g id="text_16">
     <text style="font: 10px 'DejaVu Serif', 'Bitstream Vera Serif', 'Computer Modern Roman', 'New Century Schoolbook', 'Century Schoolbook L', 'Utopia', 'ITC Bookman', 'Bookman', 'Nimbus Roman No9 L', 'Times New Roman', 'Times', 'Palatino', 'Charter', serif; text-anchor: middle" x="151.485851" y="381.217016" transform="rotate(-0 151.485851 381.217016)">6</text>
    </g>
   </g>
   <g id="xtick_16">
    <g id="line2d_18">
     <path d="M 185.981101 366.321825 
L 180.772915 367.954241 
" style="fill: none; stroke: #000000; stroke-width: 0.8; stroke-linecap: square"/>
    </g>
    <g id="text_17">
     <text style="font: 10px 'DejaVu Serif', 'Bitstream Vera Serif', 'Computer Modern Roman', 'New Century Schoolbook', 'Century Schoolbook L', 'Utopia', 'ITC Bookman', 'Bookman', 'Nimbus Roman No9 L', 'Times New Roman', 'Times', 'Palatino', 'Charter', serif; text-anchor: middle" x="173.47867" y="388.551312" transform="rotate(-0 173.47867 388.551312)">7</text>
    </g>
   </g>
   <g id="xtick_17">
    <g id="line2d_19">
     <path d="M 208.411557 373.628819 
L 203.201881 375.29149 
" style="fill: none; stroke: #000000; stroke-width: 0.8; stroke-linecap: square"/>
    </g>
    <g id="text_18">
     <text style="font: 10px 'DejaVu Serif', 'Bitstream Vera Serif', 'Computer Modern Roman', 'New Century Schoolbook', 'Century Schoolbook L', 'Utopia', 'ITC Bookman', 'Bookman', 'Nimbus Roman No9 L', 'Times New Roman', 'Times', 'Palatino', 'Charter', serif; text-anchor: middle" x="195.878355" y="396.021291" transform="rotate(-0 195.878355 396.021291)">8</text>
    </g>
   </g>
   <g id="xtick_18">
    <g id="line2d_20">
     <path d="M 231.259255 381.071734 
L 226.048937 382.765511 
" style="fill: none; stroke: #000000; stroke-width: 0.8; stroke-linecap: square"/>
    </g>
    <g id="text_19">
     <text style="font: 10px 'DejaVu Serif', 'Bitstream Vera Serif', 'Computer Modern Roman', 'New Century Schoolbook', 'Century Schoolbook L', 'Utopia', 'ITC Bookman', 'Bookman', 'Nimbus Roman No9 L', 'Times New Roman', 'Times', 'Palatino', 'Charter', serif; text-anchor: middle" x="218.696301" y="403.630755" transform="rotate(-0 218.696301 403.630755)">9</text>
    </g>
   </g>
   <g id="text_20">
    <text style="font: 10px 'DejaVu Serif', 'Bitstream Vera Serif', 'Computer Modern Roman', 'New Century Schoolbook', 'Century Schoolbook L', 'Utopia', 'ITC Bookman', 'Bookman', 'Nimbus Roman No9 L', 'Times New Roman', 'Times', 'Palatino', 'Charter', serif; text-anchor: middle" x="105.770613" y="381.629438" transform="rotate(-341.932755 105.770613 381.629438)">Edge multiplier</text>
   </g>
  </g>
  <g id="axis3d_3">
   <g id="line2d_21">
    <path d="M 34.349333 317.965802 
L 29.685066 111.177856 
" style="fill: none; stroke: #000000; stroke-width: 0.8; stroke-linecap: square"/>
    <g>
     <use xlink:href="#m840f049172" x="34.349333" y="317.965802" style="stroke: #000000"/>
     <use xlink:href="#m840f049172" x="29.685066" y="111.177856" style="stroke: #000000"/>
    </g>
   </g>
   <g id="xtick_19">
    <g id="line2d_22">
     <path d="M 35.982225 313.446556 
L 30.803299 314.876759 
" style="fill: none; stroke: #000000; stroke-width: 0.8; stroke-linecap: square"/>
    </g>
    <g id="text_21">
     <text style="font: 10px 'DejaVu Serif', 'Bitstream Vera Serif', 'Computer Modern Roman', 'New Century Schoolbook', 'Century Schoolbook L', 'Utopia', 'ITC Bookman', 'Bookman', 'Nimbus Roman No9 L', 'Times New Roman', 'Times', 'Palatino', 'Charter', serif; text-anchor: middle" x="14.384733" y="321.521114" transform="rotate(-0 14.384733 321.521114)">0</text>
    </g>
   </g>
   <g id="xtick_20">
    <g id="line2d_23">
     <path d="M 35.268383 281.521251 
L 30.069352 282.894704 
" style="fill: none; stroke: #000000; stroke-width: 0.8; stroke-linecap: square"/>
    </g>
    <g id="text_22">
     <text style="font: 10px 'DejaVu Serif', 'Bitstream Vera Serif', 'Computer Modern Roman', 'New Century Schoolbook', 'Century Schoolbook L', 'Utopia', 'ITC Bookman', 'Bookman', 'Nimbus Roman No9 L', 'Times New Roman', 'Times', 'Palatino', 'Charter', serif; text-anchor: middle" x="13.592465" y="289.576915" transform="rotate(-0 13.592465 289.576915)">20</text>
    </g>
   </g>
   <g id="xtick_21">
    <g id="line2d_24">
     <path d="M 34.549371 249.364768 
L 29.330081 250.680608 
" style="fill: none; stroke: #000000; stroke-width: 0.8; stroke-linecap: square"/>
    </g>
    <g id="text_23">
     <text style="font: 10px 'DejaVu Serif', 'Bitstream Vera Serif', 'Computer Modern Roman', 'New Century Schoolbook', 'Century Schoolbook L', 'Utopia', 'ITC Bookman', 'Bookman', 'Nimbus Roman No9 L', 'Times New Roman', 'Times', 'Palatino', 'Charter', serif; text-anchor: middle" x="12.794457" y="257.40125" transform="rotate(-0 12.794457 257.40125)">40</text>
    </g>
   </g>
   <g id="xtick_22">
    <g id="line2d_25">
     <path d="M 33.825135 216.974585 
L 28.585427 218.231937 
" style="fill: none; stroke: #000000; stroke-width: 0.8; stroke-linecap: square"/>
    </g>
    <g id="text_24">
     <text style="font: 10px 'DejaVu Serif', 'Bitstream Vera Serif', 'Computer Modern Roman', 'New Century Schoolbook', 'Century Schoolbook L', 'Utopia', 'ITC Bookman', 'Bookman', 'Nimbus Roman No9 L', 'Times New Roman', 'Times', 'Palatino', 'Charter', serif; text-anchor: middle" x="11.990645" y="224.991595" transform="rotate(-0 11.990645 224.991595)">60</text>
    </g>
   </g>
   <g id="xtick_23">
    <g id="line2d_26">
     <path d="M 33.095615 184.348147 
L 27.83533 185.54612 
" style="fill: none; stroke: #000000; stroke-width: 0.8; stroke-linecap: square"/>
    </g>
    <g id="text_25">
     <text style="font: 10px 'DejaVu Serif', 'Bitstream Vera Serif', 'Computer Modern Roman', 'New Century Schoolbook', 'Century Schoolbook L', 'Utopia', 'ITC Bookman', 'Bookman', 'Nimbus Roman No9 L', 'Times New Roman', 'Times', 'Palatino', 'Charter', serif; text-anchor: middle" x="11.180967" y="192.345387" transform="rotate(-0 11.180967 192.345387)">80</text>
    </g>
   </g>
   <g id="xtick_24">
    <g id="line2d_27">
     <path d="M 32.360755 151.482858 
L 27.079731 152.620546 
" style="fill: none; stroke: #000000; stroke-width: 0.8; stroke-linecap: square"/>
    </g>
    <g id="text_26">
     <text style="font: 10px 'DejaVu Serif', 'Bitstream Vera Serif', 'Computer Modern Roman', 'New Century Schoolbook', 'Century Schoolbook L', 'Utopia', 'ITC Bookman', 'Bookman', 'Nimbus Roman No9 L', 'Times New Roman', 'Times', 'Palatino', 'Charter', serif; text-anchor: middle" x="10.365357" y="159.460028" transform="rotate(-0 10.365357 159.460028)">100</text>
    </g>
   </g>
   <g id="xtick_25">
    <g id="line2d_28">
     <path d="M 31.620496 118.376086 
L 26.31857 119.45257 
" style="fill: none; stroke: #000000; stroke-width: 0.8; stroke-linecap: square"/>
    </g>
    <g id="text_27">
     <text style="font: 10px 'DejaVu Serif', 'Bitstream Vera Serif', 'Computer Modern Roman', 'New Century Schoolbook', 'Century Schoolbook L', 'Utopia', 'ITC Bookman', 'Bookman', 'Nimbus Roman No9 L', 'Times New Roman', 'Times', 'Palatino', 'Charter', serif; text-anchor: middle" x="9.54375" y="126.33288" transform="rotate(-0 9.54375 126.33288)">120</text>
    </g>
   </g>
   <g id="text_28">
    <text style="font: 10px 'DejaVu Serif', 'Bitstream Vera Serif', 'Computer Modern Roman', 'New Century Schoolbook', 'Century Schoolbook L', 'Utopia', 'ITC Bookman', 'Bookman', 'Nimbus Roman No9 L', 'Times New Roman', 'Times', 'Palatino', 'Charter', serif; text-anchor: middle" x="-14.396799" y="215.828711" transform="rotate(-271.292133 -14.396799 215.828711)">Broken constraints</text>
   </g>
  </g>
  <g id="axes_1">
   <g id="QuadContourSet3D_1">
    <path d="M 254.078992 132.626874 
L 254.078992 132.626874 
L 274.148227 244.739958 
L 294.621994 274.633568 
L 315.515717 283.4671 
L 336.812939 286.269193 
L 358.394164 295.343697 
L 380.3758 301.432235 
L 402.731347 307.62434 
L 425.539374 310.738602 
L 425.539374 310.738602 
L 425.539374 310.738602 
L 402.851885 301.303622 
L 380.427631 298.297465 
L 358.459705 290.676857 
L 336.795034 287.812939 
L 315.529802 281.935569 
L 294.621994 274.633568 
L 274.203157 232.581895 
L 254.09974 123.36164 
z
" clip-path="url(#p8188a49dcd)" style="fill: #4e68d8"/>
    <path d="M 254.072085 135.711066 
L 254.072085 135.711066 
L 274.203157 232.581895 
L 294.642795 271.590917 
L 315.515717 283.4671 
L 336.812939 286.269193 
L 358.43785 292.233016 
L 380.3758 301.432235 
L 402.761465 306.045006 
L 425.470427 313.922677 
L 425.470427 313.922677 
L 425.539374 310.738602 
L 402.731347 307.62434 
L 380.3758 301.432235 
L 358.394164 295.343697 
L 336.812939 286.269193 
L 315.515717 283.4671 
L 294.621994 274.633568 
L 274.148227 244.739958 
L 254.078992 132.626874 
z
" clip-path="url(#p8188a49dcd)" style="fill: #779af7"/>
    <path d="M 254.044505 148.026797 
L 254.044505 148.026797 
L 274.216912 229.537198 
L 294.68444 265.499361 
L 315.600297 274.269987 
L 336.777135 289.356149 
L 358.394164 295.343697 
L 380.3758 301.432235 
L 402.731347 307.62434 
L 425.470427 313.922677 
L 425.470427 313.922677 
L 425.470427 313.922677 
L 402.761465 306.045006 
L 380.3758 301.432235 
L 358.43785 292.233016 
L 336.812939 286.269193 
L 315.515717 283.4671 
L 294.642795 271.590917 
L 274.203157 232.581895 
L 254.072085 135.711066 
z
" clip-path="url(#p8188a49dcd)" style="fill: #a3c2fe"/>
    <path d="M 254.065183 138.793153 
L 254.065183 138.793153 
L 274.120819 250.806583 
L 294.642795 271.590917 
L 315.543891 280.403511 
L 336.777135 289.356149 
L 358.394164 295.343697 
L 380.3758 301.432235 
L 402.731347 307.62434 
L 425.470427 313.922677 
L 425.470427 313.922677 
L 425.470427 313.922677 
L 402.731347 307.62434 
L 380.3758 301.432235 
L 358.394164 295.343697 
L 336.777135 289.356149 
L 315.600297 274.269987 
L 294.68444 265.499361 
L 274.216912 229.537198 
L 254.044505 148.026797 
z
" clip-path="url(#p8188a49dcd)" style="fill: #ccd9ed"/>
    <path d="M 254.127472 110.978379 
L 254.127472 110.978379 
L 274.203157 232.581895 
L 294.705284 262.450452 
L 315.543891 280.403511 
L 336.777135 289.356149 
L 358.394164 295.343697 
L 380.3758 301.432235 
L 402.731347 307.62434 
L 425.470427 313.922677 
L 425.470427 313.922677 
L 425.470427 313.922677 
L 402.731347 307.62434 
L 380.3758 301.432235 
L 358.394164 295.343697 
L 336.777135 289.356149 
L 315.543891 280.403511 
L 294.642795 271.590917 
L 274.120819 250.806583 
L 254.065183 138.793153 
z
" clip-path="url(#p8188a49dcd)" style="fill: #ecd3c5"/>
    <path d="M 254.051393 144.951016 
L 254.051393 144.951016 
L 274.230677 226.490424 
L 294.705284 262.450452 
L 315.515717 283.4671 
L 336.777135 289.356149 
L 358.394164 295.343697 
L 380.3758 301.432235 
L 402.731347 307.62434 
L 425.470427 313.922677 
L 425.470427 313.922677 
L 425.470427 313.922677 
L 402.731347 307.62434 
L 380.3758 301.432235 
L 358.394164 295.343697 
L 336.777135 289.356149 
L 315.543891 280.403511 
L 294.705284 262.450452 
L 274.203157 232.581895 
L 254.127472 110.978379 
z
" clip-path="url(#p8188a49dcd)" style="fill: #f7b093"/>
    <path d="M 254.197133 79.871284 
L 254.197133 79.871284 
L 274.244452 223.441571 
L 294.726143 259.399453 
L 315.515717 283.4671 
L 336.777135 289.356149 
L 358.394164 295.343697 
L 380.3758 301.432235 
L 402.731347 307.62434 
L 425.470427 313.922677 
L 425.470427 313.922677 
L 425.470427 313.922677 
L 402.731347 307.62434 
L 380.3758 301.432235 
L 358.394164 295.343697 
L 336.777135 289.356149 
L 315.515717 283.4671 
L 294.705284 262.450452 
L 274.230677 226.490424 
L 254.051393 144.951016 
z
" clip-path="url(#p8188a49dcd)" style="fill: #eb7d62"/>
    <path d="M 254.162243 95.45151 
L 274.203157 232.581895 
L 294.809719 247.174511 
L 315.572084 277.337807 
L 336.777135 289.356149 
L 358.394164 295.343697 
L 380.3758 301.432235 
L 402.731347 307.62434 
L 425.470427 313.922677 
L 425.470427 313.922677 
L 402.731347 307.62434 
L 380.3758 301.432235 
L 358.394164 295.343697 
L 336.777135 289.356149 
L 315.515717 283.4671 
L 294.726143 259.399453 
L 274.244452 223.441571 
L 254.197133 79.871284 
z
" clip-path="url(#p8188a49dcd)" style="fill: #ca3b37"/>
   </g>
   <g id="QuadContourSet3D_2">
    <path d="M 193.078499 137.22093 
L 172.204407 145.023138 
L 151.083393 162.399872 
L 129.409826 157.82798 
L 107.050534 133.866749 
L 85.234442 174.287324 
L 61.225649 110.69585 
L 38.303101 132.014487 
L 41.341869 272.350196 
L 41.341869 272.350196 
L 64.011994 256.804677 
L 86.555353 254.176655 
L 108.747999 254.733899 
L 130.684201 267.702255 
L 151.80056 240.383619 
L 172.839937 237.983751 
L 193.564261 244.739958 
L 213.845436 227.267143 
L 213.845436 227.267143 
L 213.612748 123.36164 
z
" clip-path="url(#p8188a49dcd)" style="fill: #4e68d8"/>
    <path d="M 193.564261 244.739958 
L 172.839937 237.983751 
L 151.80056 240.383619 
L 130.684201 267.702255 
L 108.747999 254.733899 
L 86.555353 254.176655 
L 64.011994 256.804677 
L 41.341869 272.350196 
L 41.550356 281.978478 
L 41.550356 281.978478 
L 64.61901 288.635077 
L 87.077166 285.736176 
L 109.099585 279.768438 
L 130.863721 283.180088 
L 152.083959 271.200048 
L 173.069694 271.590917 
L 193.673672 268.957039 
L 213.926289 263.371673 
L 213.926289 263.371673 
L 213.845436 227.267143 
z
" clip-path="url(#p8188a49dcd)" style="fill: #779af7"/>
    <path d="M 193.673672 268.957039 
L 173.069694 271.590917 
L 152.083959 271.200048 
L 130.863721 283.180088 
L 109.099585 279.768438 
L 87.077166 285.736176 
L 64.61901 288.635077 
L 41.550356 281.978478 
L 42.104119 307.552234 
L 42.104119 307.552234 
L 64.981142 307.62434 
L 87.336689 301.432235 
L 109.274638 292.233016 
L 130.89955 286.269193 
L 152.112191 274.269987 
L 173.111282 277.674137 
L 193.687307 271.97493 
L 213.929643 264.869698 
L 213.929643 264.869698 
L 213.926289 263.371673 
z
" clip-path="url(#p8188a49dcd)" style="fill: #a3c2fe"/>
    <path d="M 193.687307 271.97493 
L 173.111282 277.674137 
L 152.112191 274.269987 
L 130.89955 286.269193 
L 109.274638 292.233016 
L 87.336689 301.432235 
L 64.981142 307.62434 
L 42.104119 307.552234 
L 42.242062 313.922677 
L 42.242062 313.922677 
L 64.981142 307.62434 
L 87.336689 301.432235 
L 109.318325 295.343697 
L 130.935354 289.356149 
L 152.196771 283.4671 
L 173.090495 274.633568 
L 193.673672 268.957039 
L 213.929643 264.869698 
L 213.929643 264.869698 
L 213.929643 264.869698 
z
" clip-path="url(#p8188a49dcd)" style="fill: #ccd9ed"/>
    <path d="M 193.673672 268.957039 
L 173.090495 274.633568 
L 152.196771 283.4671 
L 130.935354 289.356149 
L 109.318325 295.343697 
L 87.336689 301.432235 
L 64.981142 307.62434 
L 42.242062 313.922677 
L 42.242062 313.922677 
L 42.242062 313.922677 
L 64.981142 307.62434 
L 87.336689 301.432235 
L 109.318325 295.343697 
L 130.935354 289.356149 
L 152.196771 283.4671 
L 173.090495 274.633568 
L 193.687307 271.97493 
L 213.922933 261.873144 
L 213.922933 261.873144 
L 213.929643 264.869698 
z
" clip-path="url(#p8188a49dcd)" style="fill: #ecd3c5"/>
    <path d="M 193.687307 271.97493 
L 173.090495 274.633568 
L 152.196771 283.4671 
L 130.935354 289.356149 
L 109.318325 295.343697 
L 87.336689 301.432235 
L 64.981142 307.62434 
L 42.242062 313.922677 
L 42.242062 313.922677 
L 42.242062 313.922677 
L 64.981142 307.62434 
L 87.336689 301.432235 
L 109.318325 295.343697 
L 130.935354 289.356149 
L 152.196771 283.4671 
L 173.111282 277.674137 
L 193.687307 271.97493 
L 213.926289 263.371673 
L 213.926289 263.371673 
L 213.922933 261.873144 
z
" clip-path="url(#p8188a49dcd)" style="fill: #f7b093"/>
    <path d="M 193.687307 271.97493 
L 173.111282 277.674137 
L 152.196771 283.4671 
L 130.935354 289.356149 
L 109.318325 295.343697 
L 87.336689 301.432235 
L 64.981142 307.62434 
L 42.242062 313.922677 
L 42.242062 313.922677 
L 42.242062 313.922677 
L 64.981142 307.62434 
L 87.336689 301.432235 
L 109.318325 295.343697 
L 130.935354 289.356149 
L 152.196771 283.4671 
L 173.10089 276.154113 
L 193.687307 271.97493 
L 213.919576 260.37411 
L 213.919576 260.37411 
L 213.926289 263.371673 
z
" clip-path="url(#p8188a49dcd)" style="fill: #eb7d62"/>
    <path d="M 193.687307 271.97493 
L 173.10089 276.154113 
L 152.196771 283.4671 
L 130.935354 289.356149 
L 109.318325 295.343697 
L 87.336689 301.432235 
L 64.981142 307.62434 
L 42.242062 313.922677 
L 42.242062 313.922677 
L 64.981142 307.62434 
L 87.336689 301.432235 
L 109.318325 295.343697 
L 130.935354 289.356149 
L 152.196771 283.4671 
L 173.111282 277.674137 
L 193.673672 268.957039 
L 213.926289 263.371673 
L 213.919576 260.37411 
z
" clip-path="url(#p8188a49dcd)" style="fill: #ca3b37"/>
   </g>
   <g id="Poly3DCollection_1">
    <path d="M 233.856244 127.884257 
L 213.298495 141.891089 
L 233.856244 255.818487 
L 254.195014 237.983751 
z
" clip-path="url(#p8188a49dcd)" style="fill: #f18f71; fill-opacity: 0.5; stroke: #000000; stroke-width: 0.5"/>
    <path d="M 254.195014 237.983751 
L 233.856244 255.818487 
L 254.447583 286.269193 
L 274.700068 280.403511 
z
" clip-path="url(#p8188a49dcd)" style="fill: #6f92f3; fill-opacity: 0.5; stroke: #000000; stroke-width: 0.5"/>
    <path d="M 274.700068 280.403511 
L 254.447583 286.269193 
L 275.368884 295.343697 
L 295.619518 287.812939 
z
" clip-path="url(#p8188a49dcd)" style="fill: #3f53c6; fill-opacity: 0.5; stroke: #000000; stroke-width: 0.5"/>
    <path d="M 213.298495 141.891089 
L 192.411863 149.795795 
L 213.178586 249.057485 
L 233.856244 255.818487 
z
" clip-path="url(#p8188a49dcd)" style="fill: #f49a7b; fill-opacity: 0.5; stroke: #000000; stroke-width: 0.5"/>
    <path d="M 233.856244 255.818487 
L 213.178586 249.057485 
L 233.856244 289.120152 
L 254.447583 286.269193 
z
" clip-path="url(#p8188a49dcd)" style="fill: #7093f3; fill-opacity: 0.5; stroke: #000000; stroke-width: 0.5"/>
    <path d="M 295.619518 287.812939 
L 275.368884 295.343697 
L 296.672553 298.297465 
L 316.896084 293.788629 
z
" clip-path="url(#p8188a49dcd)" style="fill: #3e51c5; fill-opacity: 0.5; stroke: #000000; stroke-width: 0.5"/>
    <path d="M 254.447583 286.269193 
L 233.856244 289.120152 
L 254.787609 301.432235 
L 275.368884 295.343697 
z
" clip-path="url(#p8188a49dcd)" style="fill: #4055c8; fill-opacity: 0.5; stroke: #000000; stroke-width: 0.5"/>
    <path d="M 192.411863 149.795795 
L 171.254672 167.35202 
L 192.1388 251.594657 
L 213.178586 249.057485 
z
" clip-path="url(#p8188a49dcd)" style="fill: #f49a7b; fill-opacity: 0.5; stroke: #000000; stroke-width: 0.5"/>
    <path d="M 213.178586 249.057485 
L 192.1388 251.594657 
L 212.89523 288.879834 
L 233.856244 289.120152 
z
" clip-path="url(#p8188a49dcd)" style="fill: #84a7fc; fill-opacity: 0.5; stroke: #000000; stroke-width: 0.5"/>
    <path d="M 275.368884 295.343697 
L 254.787609 301.432235 
L 276.090082 304.465108 
L 296.672553 298.297465 
z
" clip-path="url(#p8188a49dcd)" style="fill: #3e51c5; fill-opacity: 0.5; stroke: #000000; stroke-width: 0.5"/>
    <path d="M 316.896084 293.788629 
L 296.672553 298.297465 
L 318.293796 307.62434 
L 338.568613 296.729248 
z
" clip-path="url(#p8188a49dcd)" style="fill: #4055c8; fill-opacity: 0.5; stroke: #000000; stroke-width: 0.5"/>
    <path d="M 171.254672 167.35202 
L 149.589891 162.788642 
L 170.906325 279.442172 
L 192.1388 251.594657 
z
" clip-path="url(#p8188a49dcd)" style="fill: #f7ad90; fill-opacity: 0.5; stroke: #000000; stroke-width: 0.5"/>
    <path d="M 233.856244 289.120152 
L 212.89523 288.879834 
L 233.856244 298.139877 
L 254.787609 301.432235 
z
" clip-path="url(#p8188a49dcd)" style="fill: #4c66d6; fill-opacity: 0.5; stroke: #000000; stroke-width: 0.5"/>
    <path d="M 192.1388 251.594657 
L 170.906325 279.442172 
L 191.607334 301.303622 
L 212.89523 288.879834 
z
" clip-path="url(#p8188a49dcd)" style="fill: #7699f6; fill-opacity: 0.5; stroke: #000000; stroke-width: 0.5"/>
    <path d="M 338.568613 296.729248 
L 318.293796 307.62434 
L 340.308568 313.922677 
L 360.557757 304.465108 
z
" clip-path="url(#p8188a49dcd)" style="fill: #3f53c6; fill-opacity: 0.5; stroke: #000000; stroke-width: 0.5"/>
    <path d="M 296.672553 298.297465 
L 276.090082 304.465108 
L 297.750621 310.738602 
L 318.293796 307.62434 
z
" clip-path="url(#p8188a49dcd)" style="fill: #4055c8; fill-opacity: 0.5; stroke: #000000; stroke-width: 0.5"/>
    <path d="M 254.787609 301.432235 
L 233.856244 298.139877 
L 255.146709 313.922677 
L 276.090082 304.465108 
z
" clip-path="url(#p8188a49dcd)" style="fill: #4358cb; fill-opacity: 0.5; stroke: #000000; stroke-width: 0.5"/>
    <path d="M 212.89523 288.879834 
L 191.607334 301.303622 
L 212.558119 310.738602 
L 233.856244 298.139877 
z
" clip-path="url(#p8188a49dcd)" style="fill: #4f69d9; fill-opacity: 0.5; stroke: #000000; stroke-width: 0.5"/>
    <path d="M 149.589891 162.788642 
L 127.277288 138.680308 
L 149.0254 266.377747 
L 170.906325 279.442172 
z
" clip-path="url(#p8188a49dcd)" style="fill: #f18f71; fill-opacity: 0.5; stroke: #000000; stroke-width: 0.5"/>
    <path d="M 170.906325 279.442172 
L 149.0254 266.377747 
L 169.869774 297.979354 
L 191.607334 301.303622 
z
" clip-path="url(#p8188a49dcd)" style="fill: #7699f6; fill-opacity: 0.5; stroke: #000000; stroke-width: 0.5"/>
    <path d="M 318.293796 307.62434 
L 297.750621 310.738602 
L 319.754945 320.330003 
L 340.308568 313.922677 
z
" clip-path="url(#p8188a49dcd)" style="fill: #3c4ec2; fill-opacity: 0.5; stroke: #000000; stroke-width: 0.5"/>
    <path d="M 276.090082 304.465108 
L 255.146709 313.922677 
L 276.805595 320.330003 
L 297.750621 310.738602 
z
" clip-path="url(#p8188a49dcd)" style="fill: #3e51c5; fill-opacity: 0.5; stroke: #000000; stroke-width: 0.5"/>
    <path d="M 360.557757 304.465108 
L 340.308568 313.922677 
L 362.704295 320.330003 
L 382.996786 307.552234 
z
" clip-path="url(#p8188a49dcd)" style="fill: #4055c8; fill-opacity: 0.5; stroke: #000000; stroke-width: 0.5"/>
    <path d="M 233.856244 298.139877 
L 212.558119 310.738602 
L 233.856244 320.330003 
L 255.146709 313.922677 
z
" clip-path="url(#p8188a49dcd)" style="fill: #4358cb; fill-opacity: 0.5; stroke: #000000; stroke-width: 0.5"/>
    <path d="M 191.607334 301.303622 
L 169.869774 297.979354 
L 190.891306 317.120694 
L 212.558119 310.738602 
z
" clip-path="url(#p8188a49dcd)" style="fill: #4c66d6; fill-opacity: 0.5; stroke: #000000; stroke-width: 0.5"/>
    <path d="M 127.277288 138.680308 
L 105.366986 179.472013 
L 126.826457 265.919735 
L 149.0254 266.377747 
z
" clip-path="url(#p8188a49dcd)" style="fill: #eb7d62; fill-opacity: 0.5; stroke: #000000; stroke-width: 0.5"/>
    <path d="M 149.0254 266.377747 
L 126.826457 265.919735 
L 147.801439 304.260128 
L 169.869774 297.979354 
z
" clip-path="url(#p8188a49dcd)" style="fill: #90b2fe; fill-opacity: 0.5; stroke: #000000; stroke-width: 0.5"/>
    <path d="M 255.146709 313.922677 
L 233.856244 320.330003 
L 255.518345 326.849173 
L 276.805595 320.330003 
z
" clip-path="url(#p8188a49dcd)" style="fill: #3b4cc0; fill-opacity: 0.5; stroke: #000000; stroke-width: 0.5"/>
    <path d="M 340.308568 313.922677 
L 319.754945 320.330003 
L 342.186572 325.231998 
L 362.704295 320.330003 
z
" clip-path="url(#p8188a49dcd)" style="fill: #3b4cc0; fill-opacity: 0.5; stroke: #000000; stroke-width: 0.5"/>
    <path d="M 297.750621 310.738602 
L 276.805595 320.330003 
L 298.842547 326.849173 
L 319.754945 320.330003 
z
" clip-path="url(#p8188a49dcd)" style="fill: #3c4ec2; fill-opacity: 0.5; stroke: #000000; stroke-width: 0.5"/>
    <path d="M 212.558119 310.738602 
L 190.891306 317.120694 
L 212.194143 326.849173 
L 233.856244 320.330003 
z
" clip-path="url(#p8188a49dcd)" style="fill: #3e51c5; fill-opacity: 0.5; stroke: #000000; stroke-width: 0.5"/>
    <path d="M 382.996786 307.552234 
L 362.704295 320.330003 
L 385.546465 323.61423 
L 405.715996 317.120694 
z
" clip-path="url(#p8188a49dcd)" style="fill: #4358cb; fill-opacity: 0.5; stroke: #000000; stroke-width: 0.5"/>
    <path d="M 169.869774 297.979354 
L 147.801439 304.260128 
L 168.869942 326.849173 
L 190.891306 317.120694 
z
" clip-path="url(#p8188a49dcd)" style="fill: #516ddb; fill-opacity: 0.5; stroke: #000000; stroke-width: 0.5"/>
    <path d="M 105.366986 179.472013 
L 81.47968 115.408326 
L 104.255884 268.699982 
L 126.826457 265.919735 
z
" clip-path="url(#p8188a49dcd)" style="fill: #d55042; fill-opacity: 0.5; stroke: #000000; stroke-width: 0.5"/>
    <path d="M 126.826457 265.919735 
L 104.255884 268.699982 
L 125.307387 307.403921 
L 147.801439 304.260128 
z
" clip-path="url(#p8188a49dcd)" style="fill: #9abbff; fill-opacity: 0.5; stroke: #000000; stroke-width: 0.5"/>
    <path d="M 233.856244 320.330003 
L 212.194143 326.849173 
L 233.856244 333.48314 
L 255.518345 326.849173 
z
" clip-path="url(#p8188a49dcd)" style="fill: #3b4cc0; fill-opacity: 0.5; stroke: #000000; stroke-width: 0.5"/>
    <path d="M 276.805595 320.330003 
L 255.518345 326.849173 
L 277.561899 333.48314 
L 298.842547 326.849173 
z
" clip-path="url(#p8188a49dcd)" style="fill: #3b4cc0; fill-opacity: 0.5; stroke: #000000; stroke-width: 0.5"/>
    <path d="M 319.754945 320.330003 
L 298.842547 326.849173 
L 321.267553 333.48314 
L 342.186572 325.231998 
z
" clip-path="url(#p8188a49dcd)" style="fill: #3b4cc0; fill-opacity: 0.5; stroke: #000000; stroke-width: 0.5"/>
    <path d="M 190.891306 317.120694 
L 168.869942 326.849173 
L 190.15059 333.48314 
L 212.194143 326.849173 
z
" clip-path="url(#p8188a49dcd)" style="fill: #3c4ec2; fill-opacity: 0.5; stroke: #000000; stroke-width: 0.5"/>
    <path d="M 362.704295 320.330003 
L 342.186572 325.231998 
L 364.973208 333.48314 
L 385.546465 323.61423 
z
" clip-path="url(#p8188a49dcd)" style="fill: #3d50c3; fill-opacity: 0.5; stroke: #000000; stroke-width: 0.5"/>
    <path d="M 147.801439 304.260128 
L 125.307387 307.403921 
L 146.444936 333.48314 
L 168.869942 326.849173 
z
" clip-path="url(#p8188a49dcd)" style="fill: #516ddb; fill-opacity: 0.5; stroke: #000000; stroke-width: 0.5"/>
    <path d="M 104.255884 268.699982 
L 81.496672 284.609347 
L 102.253415 300.764529 
L 125.307387 307.403921 
z
" clip-path="url(#p8188a49dcd)" style="fill: #a1c0ff; fill-opacity: 0.5; stroke: #000000; stroke-width: 0.5"/>
    <path d="M 81.47968 115.408326 
L 58.496061 136.948135 
L 81.496672 284.609347 
L 104.255884 268.699982 
z
" clip-path="url(#p8188a49dcd)" style="fill: #b40426; fill-opacity: 0.5; stroke: #000000; stroke-width: 0.5"/>
    <path d="M 168.869942 326.849173 
L 146.444936 333.48314 
L 167.715419 340.234964 
L 190.15059 333.48314 
z
" clip-path="url(#p8188a49dcd)" style="fill: #3b4cc0; fill-opacity: 0.5; stroke: #000000; stroke-width: 0.5"/>
    <path d="M 212.194143 326.849173 
L 190.15059 333.48314 
L 211.809303 340.234964 
L 233.856244 333.48314 
z
" clip-path="url(#p8188a49dcd)" style="fill: #3b4cc0; fill-opacity: 0.5; stroke: #000000; stroke-width: 0.5"/>
    <path d="M 255.518345 326.849173 
L 233.856244 333.48314 
L 255.903186 340.234964 
L 277.561899 333.48314 
z
" clip-path="url(#p8188a49dcd)" style="fill: #3b4cc0; fill-opacity: 0.5; stroke: #000000; stroke-width: 0.5"/>
    <path d="M 298.842547 326.849173 
L 277.561899 333.48314 
L 299.99707 340.234964 
L 321.267553 333.48314 
z
" clip-path="url(#p8188a49dcd)" style="fill: #3b4cc0; fill-opacity: 0.5; stroke: #000000; stroke-width: 0.5"/>
    <path d="M 342.186572 325.231998 
L 321.267553 333.48314 
L 344.090954 340.234964 
L 364.973208 333.48314 
z
" clip-path="url(#p8188a49dcd)" style="fill: #3b4cc0; fill-opacity: 0.5; stroke: #000000; stroke-width: 0.5"/>
    <path d="M 125.307387 307.403921 
L 102.253415 300.764529 
L 123.539356 333.657619 
L 146.444936 333.48314 
z
" clip-path="url(#p8188a49dcd)" style="fill: #6180e9; fill-opacity: 0.5; stroke: #000000; stroke-width: 0.5"/>
    <path d="M 190.15059 333.48314 
L 167.715419 340.234964 
L 189.367172 347.107813 
L 211.809303 340.234964 
z
" clip-path="url(#p8188a49dcd)" style="fill: #3b4cc0; fill-opacity: 0.5; stroke: #000000; stroke-width: 0.5"/>
    <path d="M 233.856244 333.48314 
L 211.809303 340.234964 
L 233.856244 347.107813 
L 255.903186 340.234964 
z
" clip-path="url(#p8188a49dcd)" style="fill: #3b4cc0; fill-opacity: 0.5; stroke: #000000; stroke-width: 0.5"/>
    <path d="M 277.561899 333.48314 
L 255.903186 340.234964 
L 278.345316 347.107813 
L 299.99707 340.234964 
z
" clip-path="url(#p8188a49dcd)" style="fill: #3b4cc0; fill-opacity: 0.5; stroke: #000000; stroke-width: 0.5"/>
    <path d="M 321.267553 333.48314 
L 299.99707 340.234964 
L 322.834388 347.107813 
L 344.090954 340.234964 
z
" clip-path="url(#p8188a49dcd)" style="fill: #3b4cc0; fill-opacity: 0.5; stroke: #000000; stroke-width: 0.5"/>
    <path d="M 146.444936 333.48314 
L 123.539356 333.657619 
L 144.878101 347.107813 
L 167.715419 340.234964 
z
" clip-path="url(#p8188a49dcd)" style="fill: #3e51c5; fill-opacity: 0.5; stroke: #000000; stroke-width: 0.5"/>
    <path d="M 167.715419 340.234964 
L 144.878101 347.107813 
L 166.519133 354.104972 
L 189.367172 347.107813 
z
" clip-path="url(#p8188a49dcd)" style="fill: #3b4cc0; fill-opacity: 0.5; stroke: #000000; stroke-width: 0.5"/>
    <path d="M 211.809303 340.234964 
L 189.367172 347.107813 
L 211.41054 354.104972 
L 233.856244 347.107813 
z
" clip-path="url(#p8188a49dcd)" style="fill: #3b4cc0; fill-opacity: 0.5; stroke: #000000; stroke-width: 0.5"/>
    <path d="M 255.903186 340.234964 
L 233.856244 347.107813 
L 256.301948 354.104972 
L 278.345316 347.107813 
z
" clip-path="url(#p8188a49dcd)" style="fill: #3b4cc0; fill-opacity: 0.5; stroke: #000000; stroke-width: 0.5"/>
    <path d="M 299.99707 340.234964 
L 278.345316 347.107813 
L 301.193356 354.104972 
L 322.834388 347.107813 
z
" clip-path="url(#p8188a49dcd)" style="fill: #3b4cc0; fill-opacity: 0.5; stroke: #000000; stroke-width: 0.5"/>
    <path d="M 189.367172 347.107813 
L 166.519133 354.104972 
L 188.555157 361.229842 
L 211.41054 354.104972 
z
" clip-path="url(#p8188a49dcd)" style="fill: #3b4cc0; fill-opacity: 0.5; stroke: #000000; stroke-width: 0.5"/>
    <path d="M 233.856244 347.107813 
L 211.41054 354.104972 
L 233.856244 361.229842 
L 256.301948 354.104972 
z
" clip-path="url(#p8188a49dcd)" style="fill: #3b4cc0; fill-opacity: 0.5; stroke: #000000; stroke-width: 0.5"/>
    <path d="M 278.345316 347.107813 
L 256.301948 354.104972 
L 279.157332 361.229842 
L 301.193356 354.104972 
z
" clip-path="url(#p8188a49dcd)" style="fill: #3b4cc0; fill-opacity: 0.5; stroke: #000000; stroke-width: 0.5"/>
    <path d="M 211.41054 354.104972 
L 188.555157 361.229842 
L 210.997088 368.485953 
L 233.856244 361.229842 
z
" clip-path="url(#p8188a49dcd)" style="fill: #3b4cc0; fill-opacity: 0.5; stroke: #000000; stroke-width: 0.5"/>
    <path d="M 256.301948 354.104972 
L 233.856244 361.229842 
L 256.715401 368.485953 
L 279.157332 361.229842 
z
" clip-path="url(#p8188a49dcd)" style="fill: #3b4cc0; fill-opacity: 0.5; stroke: #000000; stroke-width: 0.5"/>
    <path d="M 233.856244 361.229842 
L 210.997088 368.485953 
L 233.856244 375.876966 
L 256.715401 368.485953 
z
" clip-path="url(#p8188a49dcd)" style="fill: #3b4cc0; fill-opacity: 0.5; stroke: #000000; stroke-width: 0.5"/>
   </g>
   <g id="Path3DCollection_1">
    <defs>
     <path id="m849389729b" d="M -5 5 
L 5 -5 
M -5 -5 
L 5 5 
" style="stroke: #ff0000"/>
    </defs>
    <g clip-path="url(#p8188a49dcd)">
     <use xlink:href="#m849389729b" x="233.856244" y="333.48314" style="fill: #ff0000; stroke: #ff0000"/>
    </g>
   </g>
  </g>
 </g>
 <defs>
  <clipPath id="p8188a49dcd">
   <rect x="6.102731" y="-0" width="443.52" height="443.52"/>
  </clipPath>
 </defs>
</svg>
