<?xml version="1.0" encoding="utf-8" standalone="no"?>
<!DOCTYPE svg PUBLIC "-//W3C//DTD SVG 1.1//EN"
  "http://www.w3.org/Graphics/SVG/1.1/DTD/svg11.dtd">
<svg xmlns:xlink="http://www.w3.org/1999/xlink" width="448.931511pt" height="443.52pt" viewBox="0 0 448.931511 443.52" xmlns="http://www.w3.org/2000/svg" version="1.1">
 <metadata>
  <rdf:RDF xmlns:dc="http://purl.org/dc/elements/1.1/" xmlns:cc="http://creativecommons.org/ns#" xmlns:rdf="http://www.w3.org/1999/02/22-rdf-syntax-ns#">
   <cc:Work>
    <dc:type rdf:resource="http://purl.org/dc/dcmitype/StillImage"/>
    <dc:date>2025-04-12T22:43:35.984342</dc:date>
    <dc:format>image/svg+xml</dc:format>
    <dc:creator>
     <cc:Agent>
      <dc:title>Matplotlib v3.8.0, https://matplotlib.org/</dc:title>
     </cc:Agent>
    </dc:creator>
   </cc:Work>
  </rdf:RDF>
 </metadata>
 <defs>
  <style type="text/css">*{stroke-linejoin: round; stroke-linecap: butt}</style>
 </defs>
 <g id="figure_1">
  <g id="patch_1">
   <path d="M 0 443.52 
L 448.931511 443.52 
L 448.931511 0 
L 0 0 
z
" style="fill: #ffffff"/>
  </g>
  <g id="patch_2">
   <path d="M 5.411511 443.52 
L 448.931511 443.52 
L 448.931511 -0 
L 5.411511 -0 
z
" style="fill: #ffffff"/>
  </g>
  <g id="pane3d_1">
   <g id="patch_3">
    <path d="M 249.264046 262.76281 
L 433.314957 323.218981 
L 438.028048 115.061449 
L 249.611917 70.444471 
" style="fill: none; opacity: 0.5; stroke: #000000; stroke-linejoin: miter"/>
   </g>
  </g>
  <g id="pane3d_2">
   <g id="patch_4">
    <path d="M 249.264046 262.76281 
L 35.799993 312.785717 
L 31.218647 107.349553 
L 249.611917 70.444471 
" style="fill: none; opacity: 0.5; stroke: #000000; stroke-linejoin: miter"/>
   </g>
  </g>
  <g id="pane3d_3">
   <g id="patch_5">
    <path d="M 249.264046 262.76281 
L 35.799993 312.785717 
L 214.263267 382.77928 
L 433.314957 323.218981 
" style="fill: none; opacity: 0.5; stroke: #000000; stroke-linejoin: miter"/>
   </g>
  </g>
  <g id="axis3d_1">
   <g id="line2d_1">
    <path d="M 433.314957 323.218981 
L 214.263267 382.77928 
" style="fill: none; stroke: #000000; stroke-width: 0.8; stroke-linecap: square"/>
    <defs>
     <path id="mc4579f910d" d="M 0 1 
C 0.265203 1 0.51958 0.894634 0.707107 0.707107 
C 0.894634 0.51958 1 0.265203 1 0 
C 1 -0.265203 0.894634 -0.51958 0.707107 -0.707107 
C 0.51958 -0.894634 0.265203 -1 0 -1 
C -0.265203 -1 -0.51958 -0.894634 -0.707107 -0.707107 
C -0.894634 -0.51958 -1 -0.265203 -1 0 
C -1 0.265203 -0.894634 0.51958 -0.707107 0.707107 
C -0.51958 0.894634 -0.265203 1 0 1 
z
" style="stroke: #000000"/>
    </defs>
    <g>
     <use xlink:href="#mc4579f910d" x="433.314957" y="323.218981" style="stroke: #000000"/>
     <use xlink:href="#mc4579f910d" x="214.263267" y="382.77928" style="stroke: #000000"/>
    </g>
   </g>
   <g id="xtick_1">
    <g id="line2d_2">
     <path d="M 427.650412 323.796912 
L 432.456905 325.380873 
" style="fill: none; stroke: #000000; stroke-width: 0.8; stroke-linecap: square"/>
    </g>
    <g id="text_1">
     <text style="font: 12px 'DejaVu Serif', 'Bitstream Vera Serif', 'Computer Modern Roman', 'New Century Schoolbook', 'Century Schoolbook L', 'Utopia', 'ITC Bookman', 'Bookman', 'Nimbus Roman No9 L', 'Times New Roman', 'Times', 'Palatino', 'Charter', serif; text-anchor: middle" x="439.020086" y="346.9071" transform="rotate(-0 439.020086 346.9071)">1</text>
    </g>
   </g>
   <g id="xtick_2">
    <g id="line2d_3">
     <path d="M 403.011948 330.487547 
L 407.808915 332.099909 
" style="fill: none; stroke: #000000; stroke-width: 0.8; stroke-linecap: square"/>
    </g>
    <g id="text_2">
     <text style="font: 12px 'DejaVu Serif', 'Bitstream Vera Serif', 'Computer Modern Roman', 'New Century Schoolbook', 'Century Schoolbook L', 'Utopia', 'ITC Bookman', 'Bookman', 'Nimbus Roman No9 L', 'Times New Roman', 'Times', 'Palatino', 'Charter', serif; text-anchor: middle" x="414.385437" y="353.749584" transform="rotate(-0 414.385437 353.749584)">2</text>
    </g>
   </g>
   <g id="xtick_3">
    <g id="line2d_4">
     <path d="M 377.930182 337.298562 
L 382.716499 338.940096 
" style="fill: none; stroke: #000000; stroke-width: 0.8; stroke-linecap: square"/>
    </g>
    <g id="text_3">
     <text style="font: 12px 'DejaVu Serif', 'Bitstream Vera Serif', 'Computer Modern Roman', 'New Century Schoolbook', 'Century Schoolbook L', 'Utopia', 'ITC Bookman', 'Bookman', 'Nimbus Roman No9 L', 'Times New Roman', 'Times', 'Palatino', 'Charter', serif; text-anchor: middle" x="389.305777" y="360.715674" transform="rotate(-0 389.305777 360.715674)">3</text>
    </g>
   </g>
   <g id="xtick_4">
    <g id="line2d_5">
     <path d="M 352.393041 344.233235 
L 357.167527 345.904741 
" style="fill: none; stroke: #000000; stroke-width: 0.8; stroke-linecap: square"/>
    </g>
    <g id="text_4">
     <text style="font: 12px 'DejaVu Serif', 'Bitstream Vera Serif', 'Computer Modern Roman', 'New Century Schoolbook', 'Century Schoolbook L', 'Utopia', 'ITC Bookman', 'Bookman', 'Nimbus Roman No9 L', 'Times New Roman', 'Times', 'Palatino', 'Charter', serif; text-anchor: middle" x="363.768937" y="367.80875" transform="rotate(-0 363.768937 367.80875)">4</text>
    </g>
   </g>
   <g id="xtick_5">
    <g id="line2d_6">
     <path d="M 326.38801 351.294965 
L 331.149424 352.99727 
" style="fill: none; stroke: #000000; stroke-width: 0.8; stroke-linecap: square"/>
    </g>
    <g id="text_5">
     <text style="font: 12px 'DejaVu Serif', 'Bitstream Vera Serif', 'Computer Modern Roman', 'New Century Schoolbook', 'Century Schoolbook L', 'Utopia', 'ITC Bookman', 'Bookman', 'Nimbus Roman No9 L', 'Times New Roman', 'Times', 'Palatino', 'Charter', serif; text-anchor: middle" x="337.7623" y="375.032316" transform="rotate(-0 337.7623 375.032316)">5</text>
    </g>
   </g>
   <g id="xtick_6">
    <g id="line2d_7">
     <path d="M 299.902112 358.487275 
L 304.649149 360.221239 
" style="fill: none; stroke: #000000; stroke-width: 0.8; stroke-linecap: square"/>
    </g>
    <g id="text_6">
     <text style="font: 12px 'DejaVu Serif', 'Bitstream Vera Serif', 'Computer Modern Roman', 'New Century Schoolbook', 'Century Schoolbook L', 'Utopia', 'ITC Bookman', 'Bookman', 'Nimbus Roman No9 L', 'Times New Roman', 'Times', 'Palatino', 'Charter', serif; text-anchor: middle" x="311.272783" y="382.390006" transform="rotate(-0 311.272783 382.390006)">6</text>
    </g>
   </g>
   <g id="xtick_7">
    <g id="line2d_8">
     <path d="M 272.921883 365.813823 
L 277.653173 367.580336 
" style="fill: none; stroke: #000000; stroke-width: 0.8; stroke-linecap: square"/>
    </g>
    <g id="text_7">
     <text style="font: 12px 'DejaVu Serif', 'Bitstream Vera Serif', 'Computer Modern Roman', 'New Century Schoolbook', 'Century Schoolbook L', 'Utopia', 'ITC Bookman', 'Bookman', 'Nimbus Roman No9 L', 'Times New Roman', 'Times', 'Palatino', 'Charter', serif; text-anchor: middle" x="284.286811" y="389.885591" transform="rotate(-0 284.286811 389.885591)">7</text>
    </g>
   </g>
   <g id="xtick_8">
    <g id="line2d_9">
     <path d="M 245.433354 373.2784 
L 250.147456 375.078388 
" style="fill: none; stroke: #000000; stroke-width: 0.8; stroke-linecap: square"/>
    </g>
    <g id="text_8">
     <text style="font: 12px 'DejaVu Serif', 'Bitstream Vera Serif', 'Computer Modern Roman', 'New Century Schoolbook', 'Century Schoolbook L', 'Utopia', 'ITC Bookman', 'Bookman', 'Nimbus Roman No9 L', 'Times New Roman', 'Times', 'Palatino', 'Charter', serif; text-anchor: middle" x="256.790295" y="397.522984" transform="rotate(-0 256.790295 397.522984)">8</text>
    </g>
   </g>
   <g id="xtick_9">
    <g id="line2d_10">
     <path d="M 217.422025 380.884945 
L 222.117423 382.719369 
" style="fill: none; stroke: #000000; stroke-width: 0.8; stroke-linecap: square"/>
    </g>
    <g id="text_9">
     <text style="font: 12px 'DejaVu Serif', 'Bitstream Vera Serif', 'Computer Modern Roman', 'New Century Schoolbook', 'Century Schoolbook L', 'Utopia', 'ITC Bookman', 'Bookman', 'Nimbus Roman No9 L', 'Times New Roman', 'Times', 'Palatino', 'Charter', serif; text-anchor: middle" x="228.768608" y="405.306247" transform="rotate(-0 228.768608 405.306247)">9</text>
    </g>
   </g>
   <g id="text_10">
    <text style="font: 12px 'DejaVu Serif', 'Bitstream Vera Serif', 'Computer Modern Roman', 'New Century Schoolbook', 'Century Schoolbook L', 'Utopia', 'ITC Bookman', 'Bookman', 'Nimbus Roman No9 L', 'Times New Roman', 'Times', 'Palatino', 'Charter', serif; text-anchor: middle" x="350.207211" y="385.726771" transform="rotate(-15.211027 350.207211 385.726771)">Vertex multiplier</text>
   </g>
  </g>
  <g id="axis3d_2">
   <g id="line2d_11">
    <path d="M 35.799993 312.785717 
L 214.263267 382.77928 
" style="fill: none; stroke: #000000; stroke-width: 0.8; stroke-linecap: square"/>
    <g>
     <use xlink:href="#mc4579f910d" x="35.799993" y="312.785717" style="stroke: #000000"/>
     <use xlink:href="#mc4579f910d" x="214.263267" y="382.77928" style="stroke: #000000"/>
    </g>
   </g>
   <g id="xtick_10">
    <g id="line2d_12">
     <path d="M 40.898087 313.636288 
L 35.396178 314.929171 
" style="fill: none; stroke: #000000; stroke-width: 0.8; stroke-linecap: square"/>
    </g>
    <g id="text_11">
     <text style="font: 12px 'DejaVu Serif', 'Bitstream Vera Serif', 'Computer Modern Roman', 'New Century Schoolbook', 'Century Schoolbook L', 'Utopia', 'ITC Bookman', 'Bookman', 'Nimbus Roman No9 L', 'Times New Roman', 'Times', 'Palatino', 'Charter', serif; text-anchor: middle" x="27.851904" y="335.907996" transform="rotate(-0 27.851904 335.907996)">1</text>
    </g>
   </g>
   <g id="xtick_11">
    <g id="line2d_13">
     <path d="M 60.743382 321.407581 
L 55.218637 322.727777 
" style="fill: none; stroke: #000000; stroke-width: 0.8; stroke-linecap: square"/>
    </g>
    <g id="text_12">
     <text style="font: 12px 'DejaVu Serif', 'Bitstream Vera Serif', 'Computer Modern Roman', 'New Century Schoolbook', 'Century Schoolbook L', 'Utopia', 'ITC Bookman', 'Bookman', 'Nimbus Roman No9 L', 'Times New Roman', 'Times', 'Palatino', 'Charter', serif; text-anchor: middle" x="47.621509" y="343.841967" transform="rotate(-0 47.621509 343.841967)">2</text>
    </g>
   </g>
   <g id="xtick_12">
    <g id="line2d_14">
     <path d="M 81.009777 329.343774 
L 75.46246 330.692157 
" style="fill: none; stroke: #000000; stroke-width: 0.8; stroke-linecap: square"/>
    </g>
    <g id="text_13">
     <text style="font: 12px 'DejaVu Serif', 'Bitstream Vera Serif', 'Computer Modern Roman', 'New Century Schoolbook', 'Century Schoolbook L', 'Utopia', 'ITC Bookman', 'Bookman', 'Nimbus Roman No9 L', 'Times New Roman', 'Times', 'Palatino', 'Charter', serif; text-anchor: middle" x="67.811925" y="351.944818" transform="rotate(-0 67.811925 351.944818)">3</text>
    </g>
   </g>
   <g id="xtick_13">
    <g id="line2d_15">
     <path d="M 101.710817 337.450172 
L 96.141228 338.827654 
" style="fill: none; stroke: #000000; stroke-width: 0.8; stroke-linecap: square"/>
    </g>
    <g id="text_14">
     <text style="font: 12px 'DejaVu Serif', 'Bitstream Vera Serif', 'Computer Modern Roman', 'New Century Schoolbook', 'Century Schoolbook L', 'Utopia', 'ITC Bookman', 'Bookman', 'Nimbus Roman No9 L', 'Times New Roman', 'Times', 'Palatino', 'Charter', serif; text-anchor: middle" x="88.436733" y="360.222001" transform="rotate(-0 88.436733 360.222001)">4</text>
    </g>
   </g>
   <g id="xtick_14">
    <g id="line2d_16">
     <path d="M 122.860637 345.732309 
L 117.26911 347.139843 
" style="fill: none; stroke: #000000; stroke-width: 0.8; stroke-linecap: square"/>
    </g>
    <g id="text_15">
     <text style="font: 12px 'DejaVu Serif', 'Bitstream Vera Serif', 'Computer Modern Roman', 'New Century Schoolbook', 'Century Schoolbook L', 'Utopia', 'ITC Bookman', 'Bookman', 'Nimbus Roman No9 L', 'Times New Roman', 'Times', 'Palatino', 'Charter', serif; text-anchor: middle" x="109.510103" y="368.679201" transform="rotate(-0 109.510103 368.679201)">5</text>
    </g>
   </g>
   <g id="xtick_15">
    <g id="line2d_17">
     <path d="M 144.473991 354.195962 
L 138.860898 355.634543 
" style="fill: none; stroke: #000000; stroke-width: 0.8; stroke-linecap: square"/>
    </g>
    <g id="text_16">
     <text style="font: 12px 'DejaVu Serif', 'Bitstream Vera Serif', 'Computer Modern Roman', 'New Century Schoolbook', 'Century Schoolbook L', 'Utopia', 'ITC Bookman', 'Bookman', 'Nimbus Roman No9 L', 'Times New Roman', 'Times', 'Palatino', 'Charter', serif; text-anchor: middle" x="131.046831" y="377.322356" transform="rotate(-0 131.046831 377.322356)">6</text>
    </g>
   </g>
   <g id="xtick_16">
    <g id="line2d_18">
     <path d="M 166.566286 362.847166 
L 160.93204 364.317831 
" style="fill: none; stroke: #000000; stroke-width: 0.8; stroke-linecap: square"/>
    </g>
    <g id="text_17">
     <text style="font: 12px 'DejaVu Serif', 'Bitstream Vera Serif', 'Computer Modern Roman', 'New Century Schoolbook', 'Century Schoolbook L', 'Utopia', 'ITC Bookman', 'Bookman', 'Nimbus Roman No9 L', 'Times New Roman', 'Times', 'Palatino', 'Charter', serif; text-anchor: middle" x="153.062367" y="386.157668" transform="rotate(-0 153.062367 386.157668)">7</text>
    </g>
   </g>
   <g id="xtick_17">
    <g id="line2d_19">
     <path d="M 189.15362 371.692224 
L 183.498679 373.19606 
" style="fill: none; stroke: #000000; stroke-width: 0.8; stroke-linecap: square"/>
    </g>
    <g id="text_18">
     <text style="font: 12px 'DejaVu Serif', 'Bitstream Vera Serif', 'Computer Modern Roman', 'New Century Schoolbook', 'Century Schoolbook L', 'Utopia', 'ITC Bookman', 'Bookman', 'Nimbus Roman No9 L', 'Times New Roman', 'Times', 'Palatino', 'Charter', serif; text-anchor: middle" x="175.57286" y="395.191616" transform="rotate(-0 175.57286 395.191616)">8</text>
    </g>
   </g>
   <g id="xtick_18">
    <g id="line2d_20">
     <path d="M 212.25282 380.737726 
L 206.57769 382.275867 
" style="fill: none; stroke: #000000; stroke-width: 0.8; stroke-linecap: square"/>
    </g>
    <g id="text_19">
     <text style="font: 12px 'DejaVu Serif', 'Bitstream Vera Serif', 'Computer Modern Roman', 'New Century Schoolbook', 'Century Schoolbook L', 'Utopia', 'ITC Bookman', 'Bookman', 'Nimbus Roman No9 L', 'Times New Roman', 'Times', 'Palatino', 'Charter', serif; text-anchor: middle" x="198.59519" y="404.430976" transform="rotate(-0 198.59519 404.430976)">9</text>
    </g>
   </g>
   <g id="text_20">
    <text style="font: 12px 'DejaVu Serif', 'Bitstream Vera Serif', 'Computer Modern Roman', 'New Century Schoolbook', 'Century Schoolbook L', 'Utopia', 'ITC Bookman', 'Bookman', 'Nimbus Roman No9 L', 'Times New Roman', 'Times', 'Palatino', 'Charter', serif; text-anchor: middle" x="94.768682" y="378.336942" transform="rotate(-338.584814 94.768682 378.336942)">Edge multiplier</text>
   </g>
  </g>
  <g id="axis3d_3">
   <g id="line2d_21">
    <path d="M 35.799993 312.785717 
L 31.218647 107.349553 
" style="fill: none; stroke: #000000; stroke-width: 0.8; stroke-linecap: square"/>
    <g>
     <use xlink:href="#mc4579f910d" x="35.799993" y="312.785717" style="stroke: #000000"/>
     <use xlink:href="#mc4579f910d" x="31.218647" y="107.349553" style="stroke: #000000"/>
    </g>
   </g>
   <g id="xtick_19">
    <g id="line2d_22">
     <path d="M 37.541852 308.341546 
L 32.041119 309.623541 
" style="fill: none; stroke: #000000; stroke-width: 0.8; stroke-linecap: square"/>
    </g>
    <g id="text_21">
     <text style="font: 12px 'DejaVu Serif', 'Bitstream Vera Serif', 'Computer Modern Roman', 'New Century Schoolbook', 'Century Schoolbook L', 'Utopia', 'ITC Bookman', 'Bookman', 'Nimbus Roman No9 L', 'Times New Roman', 'Times', 'Palatino', 'Charter', serif; text-anchor: middle" x="16.200778" y="317.377233" transform="rotate(-0 16.200778 317.377233)">0</text>
    </g>
   </g>
   <g id="xtick_20">
    <g id="line2d_23">
     <path d="M 36.841015 276.618964 
L 31.319314 277.850027 
" style="fill: none; stroke: #000000; stroke-width: 0.8; stroke-linecap: square"/>
    </g>
    <g id="text_22">
     <text style="font: 12px 'DejaVu Serif', 'Bitstream Vera Serif', 'Computer Modern Roman', 'New Century Schoolbook', 'Century Schoolbook L', 'Utopia', 'ITC Bookman', 'Bookman', 'Nimbus Roman No9 L', 'Times New Roman', 'Times', 'Palatino', 'Charter', serif; text-anchor: middle" x="15.423572" y="285.657927" transform="rotate(-0 15.423572 285.657927)">20</text>
    </g>
   </g>
   <g id="xtick_21">
    <g id="line2d_24">
     <path d="M 36.135139 244.668268 
L 30.59231 245.847631 
" style="fill: none; stroke: #000000; stroke-width: 0.8; stroke-linecap: square"/>
    </g>
    <g id="text_23">
     <text style="font: 12px 'DejaVu Serif', 'Bitstream Vera Serif', 'Computer Modern Roman', 'New Century Schoolbook', 'Century Schoolbook L', 'Utopia', 'ITC Bookman', 'Bookman', 'Nimbus Roman No9 L', 'Times New Roman', 'Times', 'Palatino', 'Charter', serif; text-anchor: middle" x="14.640779" y="253.710555" transform="rotate(-0 14.640779 253.710555)">40</text>
    </g>
   </g>
   <g id="xtick_22">
    <g id="line2d_25">
     <path d="M 35.424168 212.486987 
L 29.86005 213.613871 
" style="fill: none; stroke: #000000; stroke-width: 0.8; stroke-linecap: square"/>
    </g>
    <g id="text_24">
     <text style="font: 12px 'DejaVu Serif', 'Bitstream Vera Serif', 'Computer Modern Roman', 'New Century Schoolbook', 'Century Schoolbook L', 'Utopia', 'ITC Bookman', 'Bookman', 'Nimbus Roman No9 L', 'Times New Roman', 'Times', 'Palatino', 'Charter', serif; text-anchor: middle" x="13.852337" y="221.532649" transform="rotate(-0 13.852337 221.532649)">60</text>
    </g>
   </g>
   <g id="xtick_23">
    <g id="line2d_26">
     <path d="M 34.708048 180.072616 
L 29.122476 181.146227 
" style="fill: none; stroke: #000000; stroke-width: 0.8; stroke-linecap: square"/>
    </g>
    <g id="text_25">
     <text style="font: 12px 'DejaVu Serif', 'Bitstream Vera Serif', 'Computer Modern Roman', 'New Century Schoolbook', 'Century Schoolbook L', 'Utopia', 'ITC Bookman', 'Bookman', 'Nimbus Roman No9 L', 'Times New Roman', 'Times', 'Palatino', 'Charter', serif; text-anchor: middle" x="13.058184" y="189.121705" transform="rotate(-0 13.058184 189.121705)">80</text>
    </g>
   </g>
   <g id="xtick_24">
    <g id="line2d_27">
     <path d="M 33.986723 147.422614 
L 28.379532 148.442146 
" style="fill: none; stroke: #000000; stroke-width: 0.8; stroke-linecap: square"/>
    </g>
    <g id="text_26">
     <text style="font: 12px 'DejaVu Serif', 'Bitstream Vera Serif', 'Computer Modern Roman', 'New Century Schoolbook', 'Century Schoolbook L', 'Utopia', 'ITC Bookman', 'Bookman', 'Nimbus Roman No9 L', 'Times New Roman', 'Times', 'Palatino', 'Charter', serif; text-anchor: middle" x="12.25826" y="156.475181" transform="rotate(-0 12.25826 156.475181)">100</text>
    </g>
   </g>
   <g id="xtick_25">
    <g id="line2d_28">
     <path d="M 33.260134 114.534403 
L 27.631157 115.499035 
" style="fill: none; stroke: #000000; stroke-width: 0.8; stroke-linecap: square"/>
    </g>
    <g id="text_27">
     <text style="font: 12px 'DejaVu Serif', 'Bitstream Vera Serif', 'Computer Modern Roman', 'New Century Schoolbook', 'Century Schoolbook L', 'Utopia', 'ITC Bookman', 'Bookman', 'Nimbus Roman No9 L', 'Times New Roman', 'Times', 'Palatino', 'Charter', serif; text-anchor: middle" x="11.4525" y="123.5905" transform="rotate(-0 11.4525 123.5905)">120</text>
    </g>
   </g>
   <g id="text_28">
    <text style="font: 12px 'DejaVu Serif', 'Bitstream Vera Serif', 'Computer Modern Roman', 'New Century Schoolbook', 'Century Schoolbook L', 'Utopia', 'ITC Bookman', 'Bookman', 'Nimbus Roman No9 L', 'Times New Roman', 'Times', 'Palatino', 'Charter', serif; text-anchor: middle" x="-12.615345" y="210.349886" transform="rotate(-271.277517 -12.615345 210.349886)">Broken constraints</text>
   </g>
  </g>
  <g id="axes_1">
   <g id="Poly3DCollection_1">
    <path d="M 248.919957 119.063393 
L 224.376844 132.886342 
L 245.043518 246.245633 
L 269.399884 228.60375 
z
" clip-path="url(#p457c550af9)" style="fill: #0c3048"/>
    <path d="M 269.399884 228.60375 
L 245.043518 246.245633 
L 265.927831 277.474727 
L 290.236084 271.623652 
z
" clip-path="url(#p457c550af9)" style="fill: #0b293e"/>
    <path d="M 224.376844 132.886342 
L 199.449 140.699637 
L 220.310654 239.612609 
L 245.043518 246.245633 
z
" clip-path="url(#p457c550af9)" style="fill: #0d314a"/>
    <path d="M 290.236084 271.623652 
L 265.927831 277.474727 
L 287.247689 287.657347 
L 311.625258 280.136391 
z
" clip-path="url(#p457c550af9)" style="fill: #0f3b59"/>
    <path d="M 245.043518 246.245633 
L 220.310654 239.612609 
L 241.211529 280.346931 
L 265.927831 277.474727 
z
" clip-path="url(#p457c550af9)" style="fill: #103d5d"/>
    <path d="M 199.449 140.699637 
L 174.177574 158.023922 
L 195.128997 242.158084 
L 220.310654 239.612609 
z
" clip-path="url(#p457c550af9)" style="fill: #0c2e45"/>
    <path d="M 265.927831 277.474727 
L 241.211529 280.346931 
L 262.467792 293.752634 
L 287.247689 287.657347 
z
" clip-path="url(#p457c550af9)" style="fill: #124467"/>
    <path d="M 220.310654 239.612609 
L 195.128997 242.158084 
L 216.050368 280.163909 
L 241.211529 280.346931 
z
" clip-path="url(#p457c550af9)" style="fill: #0e3550"/>
    <path d="M 311.625258 280.136391 
L 287.247689 287.657347 
L 309.039972 291.824277 
L 333.456496 287.27599 
z
" clip-path="url(#p457c550af9)" style="fill: #195e8f"/>
    <path d="M 174.177574 158.023922 
L 148.338494 153.555024 
L 169.677118 269.691855 
L 195.128997 242.158084 
z
" clip-path="url(#p457c550af9)" style="fill: #0e344f"/>
    <path d="M 195.128997 242.158084 
L 169.677118 269.691855 
L 190.480629 292.505103 
L 216.050368 280.163909 
z
" clip-path="url(#p457c550af9)" style="fill: #0a273c"/>
    <path d="M 241.211529 280.346931 
L 216.050368 280.163909 
L 237.265675 290.559453 
L 262.467792 293.752634 
z
" clip-path="url(#p457c550af9)" style="fill: #185c8c"/>
    <path d="M 287.247689 287.657347 
L 262.467792 293.752634 
L 284.184567 298.020304 
L 309.039972 291.824277 
z
" clip-path="url(#p457c550af9)" style="fill: #1c6ca4"/>
    <path d="M 333.456496 287.27599 
L 309.039972 291.824277 
L 331.227071 302.35908 
L 355.776361 291.44647 
z
" clip-path="url(#p457c550af9)" style="fill: #13486c"/>
    <path d="M 148.338494 153.555024 
L 121.762309 129.827886 
L 143.503897 256.837462 
L 169.677118 269.691855 
z
" clip-path="url(#p457c550af9)" style="fill: #0f3956"/>
    <path d="M 169.677118 269.691855 
L 143.503897 256.837462 
L 164.381776 289.275075 
L 190.480629 292.505103 
z
" clip-path="url(#p457c550af9)" style="fill: #13486e"/>
    <path d="M 216.050368 280.163909 
L 190.480629 292.505103 
L 211.609532 303.106866 
L 237.265675 290.559453 
z
" clip-path="url(#p457c550af9)" style="fill: #0b2c43"/>
    <path d="M 262.467792 293.752634 
L 237.265675 290.559453 
L 258.887538 307.482806 
L 284.184567 298.020304 
z
" clip-path="url(#p457c550af9)" style="fill: #154f77"/>
    <path d="M 309.039972 291.824277 
L 284.184567 298.020304 
L 306.341919 305.545467 
L 331.227071 302.35908 
z
" clip-path="url(#p457c550af9)" style="fill: #185b8a"/>
    <path d="M 355.776361 291.44647 
L 331.227071 302.35908 
L 353.902734 309.939258 
L 378.495264 300.424971 
z
" clip-path="url(#p457c550af9)" style="fill: #0e3754"/>
    <path d="M 121.762309 129.827886 
L 95.536906 170.052244 
L 116.928542 256.429558 
L 143.503897 256.837462 
z
" clip-path="url(#p457c550af9)" style="fill: #0b293e"/>
    <path d="M 190.480629 292.505103 
L 164.381776 289.275075 
L 185.506793 309.499895 
L 211.609532 303.106866 
z
" clip-path="url(#p457c550af9)" style="fill: #13496f"/>
    <path d="M 143.503897 256.837462 
L 116.928542 256.429558 
L 137.871724 295.545401 
L 164.381776 289.275075 
z
" clip-path="url(#p457c550af9)" style="fill: #0f3855"/>
    <path d="M 237.265675 290.559453 
L 211.609532 303.106866 
L 233.165025 313.922677 
L 258.887538 307.482806 
z
" clip-path="url(#p457c550af9)" style="fill: #0b2c43"/>
    <path d="M 284.184567 298.020304 
L 258.887538 307.482806 
L 280.966693 315.170477 
L 306.341919 305.545467 
z
" clip-path="url(#p457c550af9)" style="fill: #0f3b59"/>
    <path d="M 331.227071 302.35908 
L 306.341919 305.545467 
L 328.929723 316.42249 
L 353.902734 309.939258 
z
" clip-path="url(#p457c550af9)" style="fill: #15527c"/>
    <path d="M 378.495264 300.424971 
L 353.902734 309.939258 
L 377.054935 317.678736 
L 401.770029 304.82491 
z
" clip-path="url(#p457c550af9)" style="fill: #0f3b59"/>
    <path d="M 95.536906 170.052244 
L 67.159075 106.951887 
L 89.899735 259.219933 
L 116.928542 256.429558 
z
" clip-path="url(#p457c550af9)" style="fill: #114061"/>
    <path d="M 164.381776 289.275075 
L 137.871724 295.545401 
L 158.969532 319.210835 
L 185.506793 309.499895 
z
" clip-path="url(#p457c550af9)" style="fill: #0d334d"/>
    <path d="M 211.609532 303.106866 
L 185.506793 309.499895 
L 206.987217 320.476535 
L 233.165025 313.922677 
z
" clip-path="url(#p457c550af9)" style="fill: #0f3b59"/>
    <path d="M 116.928542 256.429558 
L 89.899735 259.219933 
L 110.848862 298.714994 
L 137.871724 295.545401 
z
" clip-path="url(#p457c550af9)" style="fill: #0e3550"/>
    <path d="M 258.887538 307.482806 
L 233.165025 313.922677 
L 255.168154 321.746539 
L 280.966693 315.170477 
z
" clip-path="url(#p457c550af9)" style="fill: #185b8a"/>
    <path d="M 306.341919 305.545467 
L 280.966693 315.170477 
L 303.513178 323.020867 
L 328.929723 316.42249 
z
" clip-path="url(#p457c550af9)" style="fill: #0f3b59"/>
    <path d="M 353.902734 309.939258 
L 328.929723 316.42249 
L 352.044809 322.687376 
L 377.054935 317.678736 
z
" clip-path="url(#p457c550af9)" style="fill: #1c6ba2"/>
    <path d="M 401.770029 304.82491 
L 377.054935 317.678736 
L 400.760084 322.352623 
L 425.412769 315.735401 
z
" clip-path="url(#p457c550af9)" style="fill: #124467"/>
    <path d="M 67.159075 106.951887 
L 39.684638 128.204566 
L 62.62017 274.976625 
L 89.899735 259.219933 
z
" clip-path="url(#p457c550af9)" style="fill: #0c2f47"/>
    <path d="M 137.871724 295.545401 
L 110.848862 298.714994 
L 131.941754 325.85905 
L 158.969532 319.210835 
z
" clip-path="url(#p457c550af9)" style="fill: #0f3854"/>
    <path d="M 185.506793 309.499895 
L 158.969532 319.210835 
L 180.341918 327.147435 
L 206.987217 320.476535 
z
" clip-path="url(#p457c550af9)" style="fill: #0f3b59"/>
    <path d="M 89.899735 259.219933 
L 62.62017 274.976625 
L 83.159448 292.208683 
L 110.848862 298.714994 
z
" clip-path="url(#p457c550af9)" style="fill: #0a283c"/>
    <path d="M 233.165025 313.922677 
L 206.987217 320.476535 
L 228.908107 328.440239 
L 255.168154 321.746539 
z
" clip-path="url(#p457c550af9)" style="fill: #185b8a"/>
    <path d="M 280.966693 315.170477 
L 255.168154 321.746539 
L 277.641178 329.737486 
L 303.513178 323.020867 
z
" clip-path="url(#p457c550af9)" style="fill: #185b8a"/>
    <path d="M 328.929723 316.42249 
L 303.513178 323.020867 
L 326.541991 331.039197 
L 352.044809 322.687376 
z
" clip-path="url(#p457c550af9)" style="fill: #185b8a"/>
    <path d="M 377.054935 317.678736 
L 352.044809 322.687376 
L 375.611414 332.345397 
L 400.760084 322.352623 
z
" clip-path="url(#p457c550af9)" style="fill: #165581"/>
    <path d="M 110.848862 298.714994 
L 83.159448 292.208683 
L 104.332776 326.109196 
L 131.941754 325.85905 
z
" clip-path="url(#p457c550af9)" style="fill: #114263"/>
    <path d="M 158.969532 319.210835 
L 131.941754 325.85905 
L 153.216493 333.938538 
L 180.341918 327.147435 
z
" clip-path="url(#p457c550af9)" style="fill: #185b8a"/>
    <path d="M 206.987217 320.476535 
L 180.341918 327.147435 
L 202.174057 335.254763 
L 228.908107 328.440239 
z
" clip-path="url(#p457c550af9)" style="fill: #185b8a"/>
    <path d="M 255.168154 321.746539 
L 228.908107 328.440239 
L 251.301369 336.575551 
L 277.641178 329.737486 
z
" clip-path="url(#p457c550af9)" style="fill: #185b8a"/>
    <path d="M 303.513178 323.020867 
L 277.641178 329.737486 
L 300.599311 337.900927 
L 326.541991 331.039197 
z
" clip-path="url(#p457c550af9)" style="fill: #185b8a"/>
    <path d="M 352.044809 322.687376 
L 326.541991 331.039197 
L 350.068775 339.230915 
L 375.611414 332.345397 
z
" clip-path="url(#p457c550af9)" style="fill: #124466"/>
    <path d="M 131.941754 325.85905 
L 104.332776 326.109196 
L 125.597846 340.853124 
L 153.216493 333.938538 
z
" clip-path="url(#p457c550af9)" style="fill: #155079"/>
    <path d="M 180.341918 327.147435 
L 153.216493 333.938538 
L 174.953053 342.193412 
L 202.174057 335.254763 
z
" clip-path="url(#p457c550af9)" style="fill: #185b8a"/>
    <path d="M 228.908107 328.440239 
L 202.174057 335.254763 
L 224.480947 343.538389 
L 251.301369 336.575551 
z
" clip-path="url(#p457c550af9)" style="fill: #185b8a"/>
    <path d="M 277.641178 329.737486 
L 251.301369 336.575551 
L 274.182435 344.88808 
L 300.599311 337.900927 
z
" clip-path="url(#p457c550af9)" style="fill: #185b8a"/>
    <path d="M 326.541991 331.039197 
L 300.599311 337.900927 
L 324.058433 346.24251 
L 350.068775 339.230915 
z
" clip-path="url(#p457c550af9)" style="fill: #185b8a"/>
    <path d="M 153.216493 333.938538 
L 125.597846 340.853124 
L 147.231667 349.259608 
L 174.953053 342.193412 
z
" clip-path="url(#p457c550af9)" style="fill: #185b8a"/>
    <path d="M 202.174057 335.254763 
L 174.953053 342.193412 
L 197.166637 350.629444 
L 224.480947 343.538389 
z
" clip-path="url(#p457c550af9)" style="fill: #185b8a"/>
    <path d="M 251.301369 336.575551 
L 224.480947 343.538389 
L 247.278242 352.004126 
L 274.182435 344.88808 
z
" clip-path="url(#p457c550af9)" style="fill: #185b8a"/>
    <path d="M 300.599311 337.900927 
L 274.182435 344.88808 
L 297.567423 353.383679 
L 324.058433 346.24251 
z
" clip-path="url(#p457c550af9)" style="fill: #185b8a"/>
    <path d="M 174.953053 342.193412 
L 147.231667 349.259608 
L 169.34467 357.852292 
L 197.166637 350.629444 
z
" clip-path="url(#p457c550af9)" style="fill: #185b8a"/>
    <path d="M 224.480947 343.538389 
L 197.166637 350.629444 
L 219.873122 359.252665 
L 247.278242 352.004126 
z
" clip-path="url(#p457c550af9)" style="fill: #185b8a"/>
    <path d="M 274.182435 344.88808 
L 247.278242 352.004126 
L 270.582296 360.658047 
L 297.567423 353.383679 
z
" clip-path="url(#p457c550af9)" style="fill: #185b8a"/>
    <path d="M 197.166637 350.629444 
L 169.34467 357.852292 
L 191.952953 366.637433 
L 219.873122 359.252665 
z
" clip-path="url(#p457c550af9)" style="fill: #185b8a"/>
    <path d="M 247.278242 352.004126 
L 219.873122 359.252665 
L 243.089098 368.069375 
L 270.582296 360.658047 
z
" clip-path="url(#p457c550af9)" style="fill: #185b8a"/>
    <path d="M 219.873122 359.252665 
L 191.952953 366.637433 
L 215.073345 375.621569 
L 243.089098 368.069375 
z
" clip-path="url(#p457c550af9)" style="fill: #185b8a"/>
   </g>
   <g id="Poly3DCollection_2">
    <path d="M 248.919957 119.063393 
L 224.376844 132.886342 
L 245.043518 246.245633 
L 269.399884 228.60375 
z
" clip-path="url(#p457c550af9)" style="fill: #6ccd5a"/>
    <path d="M 269.399884 228.60375 
L 245.043518 246.245633 
L 265.927831 277.474727 
L 290.236084 271.623652 
z
" clip-path="url(#p457c550af9)" style="fill: #443983"/>
    <path d="M 224.376844 132.886342 
L 199.449 140.699637 
L 220.310654 239.612609 
L 245.043518 246.245633 
z
" clip-path="url(#p457c550af9)" style="fill: #5cc863"/>
    <path d="M 290.236084 271.623652 
L 265.927831 277.474727 
L 287.247689 287.657347 
L 311.625258 280.136391 
z
" clip-path="url(#p457c550af9)" style="fill: #46075a"/>
    <path d="M 245.043518 246.245633 
L 220.310654 239.612609 
L 241.211529 280.346931 
L 265.927831 277.474727 
z
" clip-path="url(#p457c550af9)" style="fill: #443a83"/>
    <path d="M 199.449 140.699637 
L 174.177574 158.023922 
L 195.128997 242.158084 
L 220.310654 239.612609 
z
" clip-path="url(#p457c550af9)" style="fill: #5cc863"/>
    <path d="M 265.927831 277.474727 
L 241.211529 280.346931 
L 262.467792 293.752634 
L 287.247689 287.657347 
z
" clip-path="url(#p457c550af9)" style="fill: #46085c"/>
    <path d="M 220.310654 239.612609 
L 195.128997 242.158084 
L 216.050368 280.163909 
L 241.211529 280.346931 
z
" clip-path="url(#p457c550af9)" style="fill: #3e4a89"/>
    <path d="M 311.625258 280.136391 
L 287.247689 287.657347 
L 309.039972 291.824277 
L 333.456496 287.27599 
z
" clip-path="url(#p457c550af9)" style="fill: #450559"/>
    <path d="M 174.177574 158.023922 
L 148.338494 153.555024 
L 169.677118 269.691855 
L 195.128997 242.158084 
z
" clip-path="url(#p457c550af9)" style="fill: #42be71"/>
    <path d="M 195.128997 242.158084 
L 169.677118 269.691855 
L 190.480629 292.505103 
L 216.050368 280.163909 
z
" clip-path="url(#p457c550af9)" style="fill: #423f85"/>
    <path d="M 241.211529 280.346931 
L 216.050368 280.163909 
L 237.265675 290.559453 
L 262.467792 293.752634 
z
" clip-path="url(#p457c550af9)" style="fill: #481769"/>
    <path d="M 287.247689 287.657347 
L 262.467792 293.752634 
L 284.184567 298.020304 
L 309.039972 291.824277 
z
" clip-path="url(#p457c550af9)" style="fill: #450559"/>
    <path d="M 333.456496 287.27599 
L 309.039972 291.824277 
L 331.227071 302.35908 
L 355.776361 291.44647 
z
" clip-path="url(#p457c550af9)" style="fill: #46085c"/>
    <path d="M 148.338494 153.555024 
L 121.762309 129.827886 
L 143.503897 256.837462 
L 169.677118 269.691855 
z
" clip-path="url(#p457c550af9)" style="fill: #6ccd5a"/>
    <path d="M 169.677118 269.691855 
L 143.503897 256.837462 
L 164.381776 289.275075 
L 190.480629 292.505103 
z
" clip-path="url(#p457c550af9)" style="fill: #423f85"/>
    <path d="M 216.050368 280.163909 
L 190.480629 292.505103 
L 211.609532 303.106866 
L 237.265675 290.559453 
z
" clip-path="url(#p457c550af9)" style="fill: #481a6c"/>
    <path d="M 262.467792 293.752634 
L 237.265675 290.559453 
L 258.887538 307.482806 
L 284.184567 298.020304 
z
" clip-path="url(#p457c550af9)" style="fill: #460b5e"/>
    <path d="M 309.039972 291.824277 
L 284.184567 298.020304 
L 306.341919 305.545467 
L 331.227071 302.35908 
z
" clip-path="url(#p457c550af9)" style="fill: #46085c"/>
    <path d="M 355.776361 291.44647 
L 331.227071 302.35908 
L 353.902734 309.939258 
L 378.495264 300.424971 
z
" clip-path="url(#p457c550af9)" style="fill: #46075a"/>
    <path d="M 121.762309 129.827886 
L 95.536906 170.052244 
L 116.928542 256.429558 
L 143.503897 256.837462 
z
" clip-path="url(#p457c550af9)" style="fill: #84d44b"/>
    <path d="M 190.480629 292.505103 
L 164.381776 289.275075 
L 185.506793 309.499895 
L 211.609532 303.106866 
z
" clip-path="url(#p457c550af9)" style="fill: #481769"/>
    <path d="M 143.503897 256.837462 
L 116.928542 256.429558 
L 137.871724 295.545401 
L 164.381776 289.275075 
z
" clip-path="url(#p457c550af9)" style="fill: #3a548c"/>
    <path d="M 237.265675 290.559453 
L 211.609532 303.106866 
L 233.165025 313.922677 
L 258.887538 307.482806 
z
" clip-path="url(#p457c550af9)" style="fill: #460b5e"/>
    <path d="M 284.184567 298.020304 
L 258.887538 307.482806 
L 280.966693 315.170477 
L 306.341919 305.545467 
z
" clip-path="url(#p457c550af9)" style="fill: #450559"/>
    <path d="M 331.227071 302.35908 
L 306.341919 305.545467 
L 328.929723 316.42249 
L 353.902734 309.939258 
z
" clip-path="url(#p457c550af9)" style="fill: #440256"/>
    <path d="M 378.495264 300.424971 
L 353.902734 309.939258 
L 377.054935 317.678736 
L 401.770029 304.82491 
z
" clip-path="url(#p457c550af9)" style="fill: #46085c"/>
    <path d="M 95.536906 170.052244 
L 67.159075 106.951887 
L 89.899735 259.219933 
L 116.928542 256.429558 
z
" clip-path="url(#p457c550af9)" style="fill: #c0df25"/>
    <path d="M 164.381776 289.275075 
L 137.871724 295.545401 
L 158.969532 319.210835 
L 185.506793 309.499895 
z
" clip-path="url(#p457c550af9)" style="fill: #481c6e"/>
    <path d="M 211.609532 303.106866 
L 185.506793 309.499895 
L 206.987217 320.476535 
L 233.165025 313.922677 
z
" clip-path="url(#p457c550af9)" style="fill: #450559"/>
    <path d="M 116.928542 256.429558 
L 89.899735 259.219933 
L 110.848862 298.714994 
L 137.871724 295.545401 
z
" clip-path="url(#p457c550af9)" style="fill: #365c8d"/>
    <path d="M 258.887538 307.482806 
L 233.165025 313.922677 
L 255.168154 321.746539 
L 280.966693 315.170477 
z
" clip-path="url(#p457c550af9)" style="fill: #440154"/>
    <path d="M 306.341919 305.545467 
L 280.966693 315.170477 
L 303.513178 323.020867 
L 328.929723 316.42249 
z
" clip-path="url(#p457c550af9)" style="fill: #440256"/>
    <path d="M 353.902734 309.939258 
L 328.929723 316.42249 
L 352.044809 322.687376 
L 377.054935 317.678736 
z
" clip-path="url(#p457c550af9)" style="fill: #440154"/>
    <path d="M 401.770029 304.82491 
L 377.054935 317.678736 
L 400.760084 322.352623 
L 425.412769 315.735401 
z
" clip-path="url(#p457c550af9)" style="fill: #460b5e"/>
    <path d="M 67.159075 106.951887 
L 39.684638 128.204566 
L 62.62017 274.976625 
L 89.899735 259.219933 
z
" clip-path="url(#p457c550af9)" style="fill: #fde725"/>
    <path d="M 137.871724 295.545401 
L 110.848862 298.714994 
L 131.941754 325.85905 
L 158.969532 319.210835 
z
" clip-path="url(#p457c550af9)" style="fill: #481c6e"/>
    <path d="M 185.506793 309.499895 
L 158.969532 319.210835 
L 180.341918 327.147435 
L 206.987217 320.476535 
z
" clip-path="url(#p457c550af9)" style="fill: #440256"/>
    <path d="M 89.899735 259.219933 
L 62.62017 274.976625 
L 83.159448 292.208683 
L 110.848862 298.714994 
z
" clip-path="url(#p457c550af9)" style="fill: #34618d"/>
    <path d="M 233.165025 313.922677 
L 206.987217 320.476535 
L 228.908107 328.440239 
L 255.168154 321.746539 
z
" clip-path="url(#p457c550af9)" style="fill: #440154"/>
    <path d="M 280.966693 315.170477 
L 255.168154 321.746539 
L 277.641178 329.737486 
L 303.513178 323.020867 
z
" clip-path="url(#p457c550af9)" style="fill: #440154"/>
    <path d="M 328.929723 316.42249 
L 303.513178 323.020867 
L 326.541991 331.039197 
L 352.044809 322.687376 
z
" clip-path="url(#p457c550af9)" style="fill: #440154"/>
    <path d="M 377.054935 317.678736 
L 352.044809 322.687376 
L 375.611414 332.345397 
L 400.760084 322.352623 
z
" clip-path="url(#p457c550af9)" style="fill: #450457"/>
    <path d="M 110.848862 298.714994 
L 83.159448 292.208683 
L 104.332776 326.109196 
L 131.941754 325.85905 
z
" clip-path="url(#p457c550af9)" style="fill: #472c7a"/>
    <path d="M 158.969532 319.210835 
L 131.941754 325.85905 
L 153.216493 333.938538 
L 180.341918 327.147435 
z
" clip-path="url(#p457c550af9)" style="fill: #440154"/>
    <path d="M 206.987217 320.476535 
L 180.341918 327.147435 
L 202.174057 335.254763 
L 228.908107 328.440239 
z
" clip-path="url(#p457c550af9)" style="fill: #440154"/>
    <path d="M 255.168154 321.746539 
L 228.908107 328.440239 
L 251.301369 336.575551 
L 277.641178 329.737486 
z
" clip-path="url(#p457c550af9)" style="fill: #440154"/>
    <path d="M 303.513178 323.020867 
L 277.641178 329.737486 
L 300.599311 337.900927 
L 326.541991 331.039197 
z
" clip-path="url(#p457c550af9)" style="fill: #440154"/>
    <path d="M 352.044809 322.687376 
L 326.541991 331.039197 
L 350.068775 339.230915 
L 375.611414 332.345397 
z
" clip-path="url(#p457c550af9)" style="fill: #440154"/>
    <path d="M 131.941754 325.85905 
L 104.332776 326.109196 
L 125.597846 340.853124 
L 153.216493 333.938538 
z
" clip-path="url(#p457c550af9)" style="fill: #450559"/>
    <path d="M 180.341918 327.147435 
L 153.216493 333.938538 
L 174.953053 342.193412 
L 202.174057 335.254763 
z
" clip-path="url(#p457c550af9)" style="fill: #440154"/>
    <path d="M 228.908107 328.440239 
L 202.174057 335.254763 
L 224.480947 343.538389 
L 251.301369 336.575551 
z
" clip-path="url(#p457c550af9)" style="fill: #440154"/>
    <path d="M 277.641178 329.737486 
L 251.301369 336.575551 
L 274.182435 344.88808 
L 300.599311 337.900927 
z
" clip-path="url(#p457c550af9)" style="fill: #440154"/>
    <path d="M 326.541991 331.039197 
L 300.599311 337.900927 
L 324.058433 346.24251 
L 350.068775 339.230915 
z
" clip-path="url(#p457c550af9)" style="fill: #440154"/>
    <path d="M 153.216493 333.938538 
L 125.597846 340.853124 
L 147.231667 349.259608 
L 174.953053 342.193412 
z
" clip-path="url(#p457c550af9)" style="fill: #440154"/>
    <path d="M 202.174057 335.254763 
L 174.953053 342.193412 
L 197.166637 350.629444 
L 224.480947 343.538389 
z
" clip-path="url(#p457c550af9)" style="fill: #440154"/>
    <path d="M 251.301369 336.575551 
L 224.480947 343.538389 
L 247.278242 352.004126 
L 274.182435 344.88808 
z
" clip-path="url(#p457c550af9)" style="fill: #440154"/>
    <path d="M 300.599311 337.900927 
L 274.182435 344.88808 
L 297.567423 353.383679 
L 324.058433 346.24251 
z
" clip-path="url(#p457c550af9)" style="fill: #440154"/>
    <path d="M 174.953053 342.193412 
L 147.231667 349.259608 
L 169.34467 357.852292 
L 197.166637 350.629444 
z
" clip-path="url(#p457c550af9)" style="fill: #440154"/>
    <path d="M 224.480947 343.538389 
L 197.166637 350.629444 
L 219.873122 359.252665 
L 247.278242 352.004126 
z
" clip-path="url(#p457c550af9)" style="fill: #440154"/>
    <path d="M 274.182435 344.88808 
L 247.278242 352.004126 
L 270.582296 360.658047 
L 297.567423 353.383679 
z
" clip-path="url(#p457c550af9)" style="fill: #440154"/>
    <path d="M 197.166637 350.629444 
L 169.34467 357.852292 
L 191.952953 366.637433 
L 219.873122 359.252665 
z
" clip-path="url(#p457c550af9)" style="fill: #440154"/>
    <path d="M 247.278242 352.004126 
L 219.873122 359.252665 
L 243.089098 368.069375 
L 270.582296 360.658047 
z
" clip-path="url(#p457c550af9)" style="fill: #440154"/>
    <path d="M 219.873122 359.252665 
L 191.952953 366.637433 
L 215.073345 375.621569 
L 243.089098 368.069375 
z
" clip-path="url(#p457c550af9)" style="fill: #440154"/>
   </g>
  </g>
 </g>
 <defs>
  <clipPath id="p457c550af9">
   <rect x="5.411511" y="-0" width="443.52" height="443.52"/>
  </clipPath>
 </defs>
</svg>
