<svg xmlns="http://www.w3.org/2000/svg" viewBox="0 0 1920 1080"><defs><style>.cls-1,.cls-11,.cls-9{fill:none;}.cls-1,.cls-9{stroke:#000;}.cls-1,.cls-10,.cls-11,.cls-9{stroke-miterlimit:10;}.cls-1{stroke-width:4px;}.cls-2{font-size:93.05px;}.cls-12,.cls-13,.cls-14,.cls-2{font-family:Raleway-Regular, Raleway;}.cls-3{letter-spacing:0em;}.cls-4{letter-spacing:-0.01em;}.cls-5{letter-spacing:0em;}.cls-6{letter-spacing:-0.01em;}.cls-7{letter-spacing:-0.03em;}.cls-8{letter-spacing:-0.03em;}.cls-9{stroke-width:5px;}.cls-10,.cls-13{fill:#326a8c;}.cls-10{stroke:#326a8c;}.cls-10,.cls-11{stroke-width:6px;}.cls-11{stroke:#f205cb;}.cls-12,.cls-13,.cls-14{font-size:36px;}.cls-12{fill:#f205cb;}</style></defs><g id="axes"><line class="cls-1" x1="100.5" y1="-0.5" x2="100" y2="979.5"/><line class="cls-1" x1="1919.5" y1="979.5" x2="100" y2="979.5"/></g><g id="axes_labels" data-name="axes labels"><text class="cls-2" transform="translate(99.91 1058.66)">Co<tspan class="cls-3" x="119.2" y="0">n</tspan><tspan x="172.99" y="0">figu</tspan><tspan class="cls-4" x="332.66" y="0">r</tspan><tspan class="cls-5" x="364.68" y="0">a</tspan><tspan x="415.02" y="0">tion</tspan></text><text class="cls-2" transform="translate(72.18 979.1) rotate(-90)"><tspan class="cls-6">E</tspan><tspan x="56.11" y="0">ne</tspan><tspan class="cls-7" x="164.98" y="0">r</tspan><tspan x="195.23" y="0">g</tspan><tspan class="cls-8" x="252.73" y="0">y</tspan></text></g><g id="landscape"><path class="cls-9" d="M100.5,351.5s85.51,355,155,365c42.07,6,107-712,213-82,6.22,37,105.64,404.36,151,324,35-62,155.91-467.6,161-489,82-345,91.56,475.09,304,467,224.36-8.54,282.3-840.24,351-881,59-35,177.29,802.41,298,874C1888.7,1021.55,1920,375,1920,375"/></g><g id="Layer_4" data-name="Layer 4"><line class="cls-10" x1="100" y1="918.5" x2="1920" y2="918.5"/><path class="cls-11" d="M100.5,303.21S186,658.39,255.5,668.38c42.07,6,107-712.34,213-82,6.22,37,105.64,404.55,151,324.15,35-62,155.91-467.81,161-489.23,82-345.16,91.56,475.32,304,467.22,224.36-8.54,282.3-840.64,351-881.41,59-35,177.29,802.78,298,874.41C1888.7,973.57,1920,326.72,1920,326.72"/></g><g id="Layer_6" data-name="Layer 6"><text class="cls-12" transform="matrix(0.26, 0.96, -0.96, 0.26, 113.44, 315.41)">S</text><text class="cls-12" transform="matrix(0.27, 0.96, -0.96, 0.27, 119.23, 336.44)">i</text><text class="cls-12" transform="translate(121.29 343.98) rotate(73.9)">m</text><text class="cls-12" transform="matrix(0.29, 0.96, -0.96, 0.29, 130.48, 375.69)">u</text><text class="cls-12" transform="translate(136.64 396.11) rotate(72.87)">l</text><text class="cls-12" transform="matrix(0.3, 0.95, -0.95, 0.3, 139.49, 405.44)">a</text><text class="cls-12" transform="translate(145.35 423.96) rotate(72.02)">t</text><text class="cls-12" transform="translate(148.9 434.95) rotate(71.5)">e</text><text class="cls-12" transform="translate(155.57 454.93) rotate(70.73)">d</text><text class="cls-12" transform="matrix(0.34, 0.94, -0.94, 0.34, 162.97, 475.99)"> </text><text class="cls-12" transform="translate(165.64 483.51) rotate(69.36)">A</text><text class="cls-12" transform="matrix(0.37, 0.93, -0.93, 0.37, 174.18, 506.17)">n</text><text class="cls-12" transform="matrix(0.4, 0.92, -0.92, 0.4, 181.94, 525.51)">n</text><text class="cls-12" transform="translate(190.24 544.83) rotate(64.79)">e</text><text class="cls-12" transform="matrix(0.47, 0.88, -0.88, 0.47, 199.55, 564.6)">a</text><text class="cls-12" transform="translate(209.15 582.55) rotate(59.54)">l</text><text class="cls-12" transform="translate(214.42 591.48) rotate(57.4)">i</text><text class="cls-12" transform="translate(219.18 599.46) rotate(52.26)">n</text><text class="cls-12" transform="translate(236.34 621.57) rotate(29.24)">g</text><text class="cls-13" transform="translate(157.9 904.5)">Q<tspan x="26.96" y="0">u</tspan><tspan x="48.34" y="0">a</tspan><tspan x="67.96" y="0">n</tspan><tspan x="88.77" y="0">t</tspan><tspan x="100.84" y="0">u</tspan><tspan x="122.22" y="0">m</tspan><tspan x="155.29" y="0"> </tspan><tspan x="163.39" y="0">A</tspan><tspan x="187.73" y="0">n</tspan><tspan x="208.71" y="0">n</tspan><tspan x="229.68" y="0">e</tspan><tspan x="250.84" y="0">a</tspan><tspan x="270.46" y="0">l</tspan><tspan x="280.24" y="0">i</tspan><tspan x="288.09" y="0">n</tspan><tspan x="309.08" y="0">g</tspan></text><text class="cls-14" transform="translate(717.25 801.17) rotate(-71.81)">E</text><text class="cls-14" transform="translate(724.02 780.55) rotate(-72)">n</text><text class="cls-14" transform="translate(730.49 760.62) rotate(-72.16)">e</text><text class="cls-14" transform="translate(736.96 740.5) rotate(-72.28)">r</text><text class="cls-14" transform="translate(740.53 729.38) rotate(-72.38)">g</text><text class="cls-14" transform="translate(747.26 708.16) rotate(-72.51)">y</text><text class="cls-14" transform="translate(752.83 690.49) rotate(-72.58)"> </text><text class="cls-14" transform="matrix(0.3, -0.95, 0.95, 0.3, 755.57, 681.75)">L</text><text class="cls-14" transform="translate(761.82 661.72) rotate(-72.76)">a</text><text class="cls-14" transform="matrix(0.29, -0.96, 0.96, 0.29, 767.64, 642.98)">n</text><text class="cls-14" transform="translate(773.82 622.94) rotate(-72.96)">d</text><text class="cls-14" transform="translate(780.37 601.54) rotate(-73.06)">s</text><text class="cls-14" transform="matrix(0.29, -0.96, 0.96, 0.29, 785.49, 584.76)">c</text><text class="cls-14" transform="matrix(0.29, -0.96, 0.96, 0.29, 791.21, 565.87)">a</text><text class="cls-14" transform="matrix(0.29, -0.96, 0.96, 0.29, 796.86, 547.1)">p</text><text class="cls-14" transform="translate(803.22 525.82) rotate(-73.52)">e</text></g></svg>