<?xml version="1.0" encoding="UTF-8" standalone="no"?>
<svg
   viewBox="0 0 1918.9686 1078.8799"
   version="1.1"
   id="svg61"
   sodipodi:docname="qa-analogy.svg"
   inkscape:version="1.4 (86a8ad7, 2024-10-11)"
   width="1918.9686"
   height="1078.8799"
   inkscape:export-filename="..\..\Downloads\qa-analogy.pdf"
   inkscape:export-xdpi="96"
   inkscape:export-ydpi="96"
   xmlns:inkscape="http://www.inkscape.org/namespaces/inkscape"
   xmlns:sodipodi="http://sodipodi.sourceforge.net/DTD/sodipodi-0.dtd"
   xmlns="http://www.w3.org/2000/svg"
   xmlns:svg="http://www.w3.org/2000/svg">
  <sodipodi:namedview
     id="namedview61"
     pagecolor="#ffffff"
     bordercolor="#000000"
     borderopacity="0.25"
     inkscape:showpageshadow="2"
     inkscape:pageopacity="0.0"
     inkscape:pagecheckerboard="0"
     inkscape:deskcolor="#d1d1d1"
     inkscape:zoom="0.7712963"
     inkscape:cx="523.14526"
     inkscape:cy="540"
     inkscape:window-width="1920"
     inkscape:window-height="1051"
     inkscape:window-x="-9"
     inkscape:window-y="-9"
     inkscape:window-maximized="1"
     inkscape:current-layer="svg61" />
  <defs
     id="defs1">
    <style
       id="style1">.cls-1,.cls-11,.cls-9{fill:none;}.cls-1,.cls-9{stroke:#000;}.cls-1,.cls-10,.cls-11,.cls-9{stroke-miterlimit:10;}.cls-1{stroke-width:4px;}.cls-2{font-size:93.05px;}.cls-12,.cls-13,.cls-14,.cls-2{font-family:Raleway-Regular, Raleway;}.cls-3{letter-spacing:0em;}.cls-4{letter-spacing:-0.01em;}.cls-5{letter-spacing:0em;}.cls-6{letter-spacing:-0.01em;}.cls-7{letter-spacing:-0.03em;}.cls-8{letter-spacing:-0.03em;}.cls-9{stroke-width:5px;}.cls-10,.cls-13{fill:#326a8c;}.cls-10{stroke:#326a8c;}.cls-10,.cls-11{stroke-width:6px;}.cls-11{stroke:#f205cb;}.cls-12,.cls-13,.cls-14{font-size:36px;}.cls-12{fill:#f205cb;}</style>
  </defs>
  <g
     id="axes"
     transform="translate(-4.0279226,0.50102041)">
    <line
       class="cls-1"
       x1="100.5"
       y1="-0.5"
       x2="100"
       y2="979.5"
       id="line1"
       style="stroke:#ffffff" />
    <line
       class="cls-1"
       x1="1919.5"
       y1="979.5"
       x2="100"
       y2="979.5"
       id="line2"
       style="fill:none;stroke:#ffffff" />
  </g>
  <g
     id="axes_labels"
     data-name="axes labels"
     transform="translate(-4.0279226,0.50102041)">
    <text
       class="cls-2"
       transform="translate(99.91,1058.66)"
       id="text6"
       style="fill:#ffffff;stroke:#ffffff">Co<tspan
   class="cls-3"
   x="119.2"
   y="0"
   id="tspan2"
   style="fill:#ffffff;stroke:#ffffff">n</tspan><tspan
   x="172.99001"
   y="0"
   id="tspan3"
   style="fill:#ffffff;stroke:#ffffff">figu</tspan><tspan
   class="cls-4"
   x="332.66"
   y="0"
   id="tspan4"
   style="fill:#ffffff;stroke:#ffffff">r</tspan><tspan
   class="cls-5"
   x="364.67999"
   y="0"
   id="tspan5"
   style="fill:#ffffff;stroke:#ffffff">a</tspan><tspan
   x="415.01999"
   y="0"
   id="tspan6"
   style="fill:#ffffff;stroke:#ffffff">tion</tspan></text>
    <text
       class="cls-2"
       transform="rotate(-90,525.64,453.46)"
       id="text11"
       style="fill:#ffffff;stroke:#ffffff"><tspan
         class="cls-6"
         id="tspan7"
         style="fill:#ffffff;stroke:#ffffff">E</tspan><tspan
         x="56.110001"
         y="0"
         id="tspan8"
         style="fill:#ffffff;stroke:#ffffff">ne</tspan><tspan
         class="cls-7"
         x="164.98"
         y="0"
         id="tspan9"
         style="fill:#ffffff;stroke:#ffffff">r</tspan><tspan
         x="195.23"
         y="0"
         id="tspan10"
         style="fill:#ffffff;stroke:#ffffff">g</tspan><tspan
         class="cls-8"
         x="252.73"
         y="0"
         id="tspan11"
         style="fill:#ffffff;stroke:#ffffff">y</tspan></text>
  </g>
  <g
     id="landscape"
     transform="translate(-4.0279226,0.50102041)">
    <path
       class="cls-9"
       d="m 100.5,351.5 c 0,0 85.51,355 155,365 42.07,6 107,-712 213,-82 6.22,37 105.64,404.36 151,324 35,-62 155.91,-467.6 161,-489 82,-345 91.56,475.09 304,467 224.36,-8.54 282.3,-840.24 351,-881 59,-35 177.29,802.41 298,874 C 1888.7,1021.55 1920,375 1920,375"
       id="path11"
       style="stroke:#ffffff" />
  </g>
  <g
     id="Layer_4"
     data-name="Layer 4"
     transform="translate(-4.0279226,0.50102041)">
    <line
       class="cls-10"
       x1="100"
       y1="918.5"
       x2="1920"
       y2="918.5"
       id="line11"
       style="fill:none;stroke:#ff6600" />
    <path
       class="cls-11"
       d="m 100.5,303.21 c 0,0 85.5,355.18 155,365.17 42.07,6 107,-712.34 213,-82 6.22,37 105.64,404.55 151,324.15 35,-62 155.91,-467.81 161,-489.23 82,-345.16 91.56,475.32 304,467.22 224.36,-8.54 282.3,-840.64 351,-881.41 59,-35 177.29,802.78 298,874.41 155.2,92.05 186.5,-554.8 186.5,-554.8"
       id="path12" />
  </g>
  <g
     id="Layer_6"
     data-name="Layer 6"
     transform="translate(-4.0279226,0.50102041)">
    <text
       class="cls-12"
       transform="matrix(0.26,0.96,-0.96,0.26,113.44,315.41)"
       id="text12">S</text>
    <text
       class="cls-12"
       transform="matrix(0.27,0.96,-0.96,0.27,119.23,336.44)"
       id="text13">i</text>
    <text
       class="cls-12"
       transform="rotate(73.9,-168.00832,252.61492)"
       id="text14">m</text>
    <text
       class="cls-12"
       transform="matrix(0.29,0.96,-0.96,0.29,130.48,375.69)"
       id="text15">u</text>
    <text
       class="cls-12"
       transform="rotate(72.87,-199.97199,290.60358)"
       id="text16">l</text>
    <text
       class="cls-12"
       transform="matrix(0.3,0.95,-0.95,0.3,139.49,405.44)"
       id="text17">a</text>
    <text
       class="cls-12"
       transform="rotate(72.02,-218.98338,311.97185)"
       id="text18">t</text>
    <text
       class="cls-12"
       transform="rotate(71.5,-227.64183,320.89257)"
       id="text19">e</text>
    <text
       class="cls-12"
       transform="rotate(70.73,-242.70378,337.06085)"
       id="text20">d</text>
    <text
       class="cls-12"
       transform="matrix(0.34,0.94,-0.94,0.34,162.97,475.99)"
       id="text21" />
    <text
       class="cls-12"
       transform="rotate(69.36,-266.57909,361.45152)"
       id="text22">A</text>
    <text
       class="cls-12"
       transform="matrix(0.37,0.93,-0.93,0.37,174.18,506.17)"
       id="text23">n</text>
    <text
       class="cls-12"
       transform="matrix(0.4,0.92,-0.92,0.4,181.94,525.51)"
       id="text24">n</text>
    <text
       class="cls-12"
       transform="rotate(64.79,-334.22016,422.32905)"
       id="text25">e</text>
    <text
       class="cls-12"
       transform="matrix(0.47,0.88,-0.88,0.47,199.55,564.6)"
       id="text26">a</text>
    <text
       class="cls-12"
       transform="rotate(59.54,-404.63788,474.09514)"
       id="text27">l</text>
    <text
       class="cls-12"
       transform="rotate(57.4,-432.97016,491.56307)"
       id="text28">i</text>
    <text
       class="cls-12"
       transform="rotate(52.26,-501.42506,523.13487)"
       id="text29">n</text>
    <text
       class="cls-12"
       transform="rotate(29.24,-1073.2469,763.79829)"
       id="text30">g</text>
    <text
       class="cls-13"
       transform="translate(157.9,904.5)"
       id="text45"
       style="fill:#ff6600">Q<tspan
   x="26.959999"
   y="0"
   id="tspan30"
   style="fill:#ff6600">u</tspan><tspan
   x="48.34"
   y="0"
   id="tspan31"
   style="fill:#ff6600">a</tspan><tspan
   x="67.959999"
   y="0"
   id="tspan32"
   style="fill:#ff6600">n</tspan><tspan
   x="88.769997"
   y="0"
   id="tspan33"
   style="fill:#ff6600">t</tspan><tspan
   x="100.84"
   y="0"
   id="tspan34"
   style="fill:#ff6600">u</tspan><tspan
   x="122.22"
   y="0"
   id="tspan35"
   style="fill:#ff6600">m</tspan><tspan
   x="155.28999"
   y="0"
   id="tspan36"
   style="fill:#ff6600" /><tspan
   x="163.39"
   y="0"
   id="tspan37"
   style="fill:#ff6600">A</tspan><tspan
   x="187.73"
   y="0"
   id="tspan38"
   style="fill:#ff6600">n</tspan><tspan
   x="208.71001"
   y="0"
   id="tspan39"
   style="fill:#ff6600">n</tspan><tspan
   x="229.67999"
   y="0"
   id="tspan40"
   style="fill:#ff6600">e</tspan><tspan
   x="250.84"
   y="0"
   id="tspan41"
   style="fill:#ff6600">a</tspan><tspan
   x="270.45999"
   y="0"
   id="tspan42"
   style="fill:#ff6600">l</tspan><tspan
   x="280.23999"
   y="0"
   id="tspan43"
   style="fill:#ff6600">i</tspan><tspan
   x="288.09"
   y="0"
   id="tspan44"
   style="fill:#ff6600">n</tspan><tspan
   x="309.07999"
   y="0"
   id="tspan45"
   style="fill:#ff6600">g</tspan></text>
    <text
       class="cls-14"
       transform="rotate(-71.81,911.90982,-94.744997)"
       id="text46"
       style="fill:#ffffff">E</text>
    <text
       class="cls-14"
       transform="rotate(-72,899.17745,-107.98902)"
       id="text47"
       style="fill:#ffffff">n</text>
    <text
       class="cls-14"
       transform="rotate(-72.16,887.16278,-120.93335)"
       id="text48"
       style="fill:#ffffff">e</text>
    <text
       class="cls-14"
       transform="rotate(-72.28,875.47561,-134.32189)"
       id="text49"
       style="fill:#ffffff">r</text>
    <text
       class="cls-14"
       transform="rotate(-72.38,868.73322,-141.39828)"
       id="text50"
       style="fill:#ffffff">g</text>
    <text
       class="cls-14"
       transform="rotate(-72.51,856.44583,-155.39378)"
       id="text51"
       style="fill:#ffffff">y</text>
    <text
       class="cls-14"
       transform="rotate(-72.58,846.58108,-167.36942)"
       id="text52"
       style="fill:#ffffff" />
    <text
       class="cls-14"
       transform="matrix(0.3,-0.95,0.95,0.3,755.57,681.75)"
       id="text53"
       style="fill:#ffffff">L</text>
    <text
       class="cls-14"
       transform="rotate(-72.76,830.00571,-186.17151)"
       id="text54"
       style="fill:#ffffff">a</text>
    <text
       class="cls-14"
       transform="matrix(0.29,-0.96,0.96,0.29,767.64,642.98)"
       id="text55"
       style="fill:#ffffff">n</text>
    <text
       class="cls-14"
       transform="rotate(-72.96,808.14498,-211.79075)"
       id="text56"
       style="fill:#ffffff">d</text>
    <text
       class="cls-14"
       transform="rotate(-73.06,796.20754,-225.95775)"
       id="text57"
       style="fill:#ffffff">s</text>
    <text
       class="cls-14"
       transform="matrix(0.29,-0.96,0.96,0.29,785.49,584.76)"
       id="text58"
       style="fill:#ffffff">c</text>
    <text
       class="cls-14"
       transform="matrix(0.29,-0.96,0.96,0.29,791.21,565.87)"
       id="text59"
       style="fill:#ffffff">a</text>
    <text
       class="cls-14"
       transform="matrix(0.29,-0.96,0.96,0.29,796.86,547.1)"
       id="text60"
       style="fill:#ffffff">p</text>
    <text
       class="cls-14"
       transform="rotate(-73.52,753.56104,-274.71526)"
       id="text61"
       style="fill:#ffffff">e</text>
  </g>
</svg>
