<?xml version="1.0" encoding="UTF-8" standalone="no"?>
<!DOCTYPE svg PUBLIC "-//W3C//DTD SVG 1.1//EN" "http://www.w3.org/Graphics/SVG/1.1/DTD/svg11.dtd">
<svg width="100%" height="100%" viewBox="0 0 506 59" version="1.1" xmlns="http://www.w3.org/2000/svg" xmlns:xlink="http://www.w3.org/1999/xlink" xml:space="preserve" xmlns:serif="http://www.serif.com/" style="fill-rule:evenodd;clip-rule:evenodd;stroke-linejoin:bevel;">
    <g transform="matrix(0.2,0,0,0.2,0,6.26641e-06)">
        <path d="M0,0L2527.99,0L2527.99,290.674L0,290.674L0,0" style="fill:white;"/>
    </g>
    <g transform="matrix(0.2,0,0,0.2,0,6.26641e-06)">
        <path d="M50,100.087L2477.99,100.087" style="fill:none;fill-rule:nonzero;stroke:black;stroke-width:2.73px;"/>
    </g>
    <g transform="matrix(0.2,0,0,0.2,0,6.26641e-06)">
        <path d="M50,124.89L2477.99,124.89" style="fill:none;fill-rule:nonzero;stroke:black;stroke-width:2.73px;"/>
    </g>
    <g transform="matrix(0.2,0,0,0.2,0,6.26641e-06)">
        <path d="M50,149.693L2477.99,149.693" style="fill:none;fill-rule:nonzero;stroke:black;stroke-width:2.73px;"/>
    </g>
    <g transform="matrix(0.2,0,0,0.2,0,6.26641e-06)">
        <path d="M50,174.496L2477.99,174.496" style="fill:none;fill-rule:nonzero;stroke:black;stroke-width:2.73px;"/>
    </g>
    <g transform="matrix(0.2,0,0,0.2,0,6.26641e-06)">
        <path d="M50,199.299L2477.99,199.299" style="fill:none;fill-rule:nonzero;stroke:black;stroke-width:2.73px;"/>
    </g>
    <g transform="matrix(0.2,0,0,0.2,0,6.26641e-06)">
        <path d="M2452.94,98.723L2452.94,200.664" style="fill:none;fill-rule:nonzero;stroke:black;stroke-width:4.46px;"/>
    </g>
    <g transform="matrix(0.2,0,0,0.2,0,6.26641e-06)">
        <path d="M2471.17,98.723L2471.17,200.664" style="fill:none;fill-rule:nonzero;stroke:black;stroke-width:13.64px;"/>
    </g>
    <g transform="matrix(0.2,0,0,0.2,0,6.26641e-06)">
        <path d="M1511.57,98.723L1511.57,200.664" style="fill:none;fill-rule:nonzero;stroke:black;stroke-width:4.46px;"/>
    </g>
    <g transform="matrix(0.2,0,0,0.2,0,6.26641e-06)">
        <path d="M1186.05,75.284L1234.65,75.284" style="fill:none;fill-rule:nonzero;stroke:rgb(238,102,119);stroke-width:3.97px;"/>
    </g>
    <g transform="matrix(0.2,0,0,0.2,0,6.26641e-06)">
        <path d="M1028.51,75.284L1077.11,75.284" style="fill:none;fill-rule:nonzero;stroke:rgb(238,102,119);stroke-width:3.97px;"/>
    </g>
    <g transform="matrix(0.2,0,0,0.2,0,6.26641e-06)">
        <path d="M1343.6,75.284L1392.2,75.284" style="fill:none;fill-rule:nonzero;stroke:rgb(238,102,119);stroke-width:3.97px;"/>
    </g>
    <g transform="matrix(0.2,0,0,0.2,0,6.26641e-06)">
        <path d="M1037.93,79.451L1037.93,149.741" style="fill:none;fill-rule:nonzero;stroke:rgb(238,102,119);stroke-width:2.48px;"/>
    </g>
    <g transform="matrix(0.2,0,0,0.2,0,6.26641e-06)">
        <path d="M1195.48,67.049L1195.48,143.54" style="fill:none;fill-rule:nonzero;stroke:rgb(238,102,119);stroke-width:2.48px;"/>
    </g>
    <g transform="matrix(0.2,0,0,0.2,0,6.26641e-06)">
        <path d="M1353.03,79.451L1353.03,149.645" style="fill:none;fill-rule:nonzero;stroke:rgb(238,102,119);stroke-width:2.48px;"/>
    </g>
    <g transform="matrix(0.2,0,0,0.2,0,6.26641e-06)">
        <path d="M1575.79,170.528L1575.79,87.685" style="fill:none;fill-rule:nonzero;stroke:rgb(102,204,238);stroke-width:2.48px;"/>
    </g>
    <g transform="matrix(0.2,0,0,0.2,0,6.26641e-06)">
        <path d="M1812.11,170.528L1812.11,100.135" style="fill:none;fill-rule:nonzero;stroke:rgb(102,204,238);stroke-width:2.48px;"/>
    </g>
    <g transform="matrix(0.2,0,0,0.2,0,6.26641e-06)">
        <path d="M407.74,129.057L407.74,211.602" style="fill:none;fill-rule:nonzero;stroke:rgb(238,102,119);stroke-width:2.48px;"/>
    </g>
    <g transform="matrix(0.2,0,0,0.2,0,6.26641e-06)">
        <path d="M1969.66,207.733L1969.66,106.24" style="fill:none;fill-rule:nonzero;stroke:rgb(102,204,238);stroke-width:2.48px;"/>
    </g>
    <g transform="matrix(0.2,0,0,0.2,0,6.26641e-06)">
        <path d="M565.288,129.057L565.288,199.299" style="fill:none;fill-rule:nonzero;stroke:rgb(238,102,119);stroke-width:2.48px;"/>
    </g>
    <g transform="matrix(0.2,0,0,0.2,0,6.26641e-06)">
        <path d="M2127.21,170.528L2127.21,87.685" style="fill:none;fill-rule:nonzero;stroke:rgb(102,204,238);stroke-width:2.48px;"/>
    </g>
    <g transform="matrix(0.2,0,0,0.2,0,6.26641e-06)">
        <path d="M722.836,129.057L722.836,199.299" style="fill:none;fill-rule:nonzero;stroke:rgb(238,102,119);stroke-width:2.48px;"/>
    </g>
    <g transform="matrix(0.2,0,0,0.2,0,6.26641e-06)">
        <path d="M880.384,91.852L880.384,155.846" style="fill:none;fill-rule:nonzero;stroke:rgb(238,102,119);stroke-width:2.48px;"/>
    </g>
    <g transform="matrix(0.198425,0,0,0.198425,81.3001,42.3403)">
        <path d="M0,-0.094C0,0.594 0.594,1.203 1.297,1.203C1.797,1.203 2.406,0.797 2.5,0.406C2.5,0.297 3.406,-3.203 3.5,-3.5C3.594,-3.906 4.5,-7.703 8.094,-13.594C12,-20.094 18,-24.797 23,-31.797C27.906,-38.797 30.906,-45.406 30.906,-54.203C30.906,-63.297 28.797,-70.906 23.5,-80.609C23.203,-81.313 22.594,-81.703 22,-81.703C21.797,-81.703 21.594,-81.703 21.5,-81.609C21,-81.406 20.797,-81 20.797,-80.406C20.797,-80.109 20.906,-79.609 21.094,-79.203C25.094,-69.906 26.703,-64.609 26.703,-57.406C26.703,-49.109 23.797,-44.797 22,-41.703C15.5,-30.609 5,-25.203 0.797,-23.797C0.094,-23.5 0,-23 0,-22.703L0,-0.094" style="fill:rgb(238,102,119);fill-rule:nonzero;"/>
    </g>
    <g transform="matrix(0.198425,0,0,0.198425,81.3001,24.978)">
        <path d="M0,4.203C0,8.5 3.094,13.297 11.203,13.297C21.594,13.297 32.5,4.797 32.5,-4C32.5,-9.906 27.5,-13.203 21.297,-13.203C11.594,-13.203 0,-5 0,4.203" style="fill:rgb(238,102,119);fill-rule:nonzero;"/>
    </g>
    <g transform="matrix(0.198425,0,0,0.198425,112.81,24.978)">
        <path d="M0,4.203C0,8.5 3.094,13.297 11.203,13.297C21.594,13.297 32.5,4.797 32.5,-4C32.5,-9.906 27.5,-13.203 21.297,-13.203C11.594,-13.203 0,-5 0,4.203" style="fill:rgb(238,102,119);fill-rule:nonzero;"/>
    </g>
    <g transform="matrix(0.198425,0,0,0.198425,270.358,15.0568)">
        <path d="M0,4.203C0,8.5 3.094,13.297 11.203,13.297C21.594,13.297 32.5,4.797 32.5,-4C32.5,-9.906 27.5,-13.203 21.297,-13.203C11.594,-13.203 0,-5 0,4.203" style="fill:rgb(238,102,119);fill-rule:nonzero;"/>
    </g>
    <g transform="matrix(0.198425,0,0,0.198425,144.319,24.978)">
        <path d="M0,4.203C0,8.5 3.094,13.297 11.203,13.297C21.594,13.297 32.5,4.797 32.5,-4C32.5,-9.906 27.5,-13.203 21.297,-13.203C11.594,-13.203 0,-5 0,4.203" style="fill:rgb(238,102,119);fill-rule:nonzero;"/>
    </g>
    <g transform="matrix(0.198425,0,0,0.198425,238.848,12.5764)">
        <path d="M0,4.203C0,8.5 3.094,13.297 11.203,13.297C21.594,13.297 32.5,4.797 32.5,-4C32.5,-9.906 27.5,-13.203 21.297,-13.203C11.594,-13.203 0,-5 0,4.203" style="fill:rgb(238,102,119);fill-rule:nonzero;"/>
    </g>
    <g transform="matrix(0.198425,0,0,0.198425,308.96,34.8993)">
        <path d="M0,4.203C0,8.5 3.094,13.297 11.203,13.297C21.594,13.297 32.5,4.797 32.5,-4C32.5,-9.906 27.5,-13.203 21.297,-13.203C11.594,-13.203 0,-5 0,4.203" style="fill:rgb(102,204,238);fill-rule:nonzero;"/>
    </g>
    <g transform="matrix(0.198425,0,0,0.198425,356.227,34.8993)">
        <path d="M0,4.203C0,8.5 3.094,13.297 11.203,13.297C21.594,13.297 32.5,4.797 32.5,-4C32.5,-9.906 27.5,-13.203 21.297,-13.203C11.594,-13.203 0,-5 0,4.203" style="fill:rgb(102,204,238);fill-rule:nonzero;"/>
    </g>
    <g transform="matrix(0.198425,0,0,0.198425,387.735,42.3403)">
        <path d="M0,4.203C0,8.5 3.094,13.297 11.203,13.297C21.594,13.297 32.5,4.797 32.5,-4C32.5,-9.906 27.5,-13.203 21.297,-13.203C11.594,-13.203 0,-5 0,4.203" style="fill:rgb(102,204,238);fill-rule:nonzero;"/>
    </g>
    <g transform="matrix(0.198425,0,0,0.198425,175.829,17.5371)">
        <path d="M0,4.203C0,8.5 3.094,13.297 11.203,13.297C21.594,13.297 32.5,4.797 32.5,-4C32.5,-9.906 27.5,-13.203 21.297,-13.203C11.594,-13.203 0,-5 0,4.203" style="fill:rgb(238,102,119);fill-rule:nonzero;"/>
    </g>
    <g transform="matrix(0.198425,0,0,0.198425,419.245,34.8993)">
        <path d="M21.297,-13.203C11.594,-13.203 0,-5.094 0,4.203C0,8.5 3.094,13.297 11.203,13.297C21.594,13.297 32.5,4.797 32.5,-4C32.5,-9.906 27.5,-13.203 21.297,-13.203M18.594,4.406C18.297,4.594 11,8.594 7.5,8.594C4.203,8.594 3.5,5.906 3.5,5C3.5,0.797 13.5,-4.094 13.906,-4.297C14.297,-4.5 21.406,-8.5 25,-8.5C27.406,-8.5 29,-7.094 29,-4.906C29,-0.594 18.906,4.203 18.594,4.406" style="fill:rgb(102,204,238);fill-rule:nonzero;"/>
    </g>
    <g transform="matrix(0.198425,0,0,0.198425,207.338,15.0568)">
        <path d="M0,4.203C0,8.5 3.094,13.297 11.203,13.297C21.594,13.297 32.5,4.797 32.5,-4C32.5,-9.906 27.5,-13.203 21.297,-13.203C11.594,-13.203 0,-5 0,4.203" style="fill:rgb(238,102,119);fill-rule:nonzero;"/>
    </g>
    <g transform="matrix(0.198425,0,0,0.198425,13.7205,34.8993)">
        <path d="M56.203,2.094C56.203,9.203 53.297,16.5 46.203,19.406C44.109,7.406 41.406,-8.5 40.703,-12.906C49.703,-12.906 56.203,-6.797 56.203,2.094M42,20.594C40,21 38.109,21.203 36.203,21.203C21.906,21.203 9.703,11.203 9.703,-3.906C9.703,-16.094 18.297,-27 27.109,-34.609C28.797,-36.109 30.406,-37.5 31.906,-39C32.797,-33.609 33.5,-28.906 34.203,-24.797C25.094,-22.094 18.906,-12.5 18.906,-3.094C18.906,3.906 24.406,13.5 32.406,13.5C33.203,13.5 34.109,13.094 34.109,12.203C34.109,11.297 33.109,10.797 31.906,10C28,7.594 25.797,5 25.797,0.094C25.797,-6 30.297,-10.906 36.203,-12.297L42,20.594M33.203,-82.203C34.109,-86.203 38.703,-96.703 43.906,-96.703C45.406,-96.703 47.797,-91.813 47.797,-84.906C47.797,-74.5 40.109,-66.703 33.203,-59.906C32.609,-63.906 32.109,-67.797 32.109,-72C32.109,-75.703 32.406,-79.109 33.203,-82.203M12.203,51.297C12.203,57.906 17.297,66.609 30.797,66.609C35.5,66.609 39.609,65.406 43.203,63.203C48.609,59.406 50,52.797 50,46.5C50,42.609 49.406,38.109 48.406,32.406C48.109,30.406 47.5,27.406 46.906,23.5C56.703,20.297 64,10.094 64,-0.203C64,-15.297 53.297,-25.5 38.703,-25.5C37.703,-31.5 36.703,-37.406 35.797,-43C46.406,-54.109 53.703,-66.609 53.703,-82.5C53.703,-91.609 50.906,-99 49.297,-102.609C46.906,-107.703 44,-111.203 42.203,-111.203C41.5,-111.203 38.406,-110 35.109,-106.109C28.703,-98.5 26.906,-85.703 26.906,-77.313C26.906,-71.906 27.406,-67 29.109,-55.797C29,-55.703 23.797,-50.406 21.703,-48.703C12.594,-40.203 0,-28.109 0,-8.094C0,10.594 16.297,25.297 34.906,25.297C37.797,25.297 40.5,25 42.797,24.594C44.703,34.203 45.797,41.203 45.797,46.5C45.797,56.906 40.5,62.406 30.406,62.406C28,62.406 25.906,61.906 25.703,61.906C25.609,61.797 25.406,61.703 25.406,61.609C25.406,61.406 25.609,61.297 25.906,61.203C30.609,60.5 35.297,56.5 35.297,50.109C35.297,44.703 31.203,39 23.703,39C16.703,39 12.203,44.703 12.203,51.297" style="fill-rule:nonzero;"/>
    </g>
    <g transform="matrix(0.198425,0,0,0.198425,31.1012,24.978)">
        <path d="M20.797,12.703L20.797,20.094L12.5,20.094C11.797,20.094 11.094,20.703 11.094,21.5L11.094,23.406C11.094,24.203 11.797,24.797 12.5,24.797L42.797,24.797C43.609,24.797 44.203,24.203 44.203,23.406L44.203,21.5C44.203,20.703 43.609,20.094 42.797,20.094L33.797,20.094L33.797,12.703L42.797,12.703C43.609,12.703 44.203,12 44.203,11.203L44.203,9.297C44.203,8.594 43.609,7.906 42.797,7.906L33.797,7.906L33.797,-8C33.797,-8.594 33.5,-9.094 33.109,-9.297L31.906,-9.906C31.703,-10 31.609,-10 31.406,-10L31.203,-10C30.906,-10 30.5,-9.906 30.297,-9.703L21.203,-1.406C20.906,-1.094 20.797,-0.703 20.797,-0.297L20.797,7.906L9.203,7.906C9.203,7.906 20.406,-4.094 32.203,-19.906C32.609,-20.406 32.703,-20.906 32.703,-21.297C32.703,-21.797 32.5,-22.203 32.406,-22.297L30.203,-24.5C29.906,-24.703 29.609,-24.906 29.203,-24.906L14.297,-24.906C13.594,-24.906 13.094,-24.297 13,-23.703C13,-23.703 12.5,-16.297 9.906,-8.203C7.297,-0.094 4.297,4.906 1.703,8.594C1.703,8.594 1.406,9.094 1.406,9.703C1.406,9.906 1.406,10.094 1.5,10.297C1.797,11 2.5,12.094 2.5,12.094C2.5,12.094 2.703,12.703 3.594,12.703L20.797,12.703" style="fill-rule:nonzero;"/>
    </g>
    <g transform="matrix(0.198425,0,0,0.198425,31.1012,34.8993)">
        <path d="M20.797,12.703L20.797,20.094L12.5,20.094C11.797,20.094 11.094,20.703 11.094,21.5L11.094,23.406C11.094,24.203 11.797,24.797 12.5,24.797L42.797,24.797C43.609,24.797 44.203,24.203 44.203,23.406L44.203,21.5C44.203,20.703 43.609,20.094 42.797,20.094L33.797,20.094L33.797,12.703L42.797,12.703C43.609,12.703 44.203,12 44.203,11.203L44.203,9.297C44.203,8.594 43.609,7.906 42.797,7.906L33.797,7.906L33.797,-8C33.797,-8.594 33.5,-9.094 33.109,-9.297L31.906,-9.906C31.703,-10 31.609,-10 31.406,-10L31.203,-10C30.906,-10 30.5,-9.906 30.297,-9.703L21.203,-1.406C20.906,-1.094 20.797,-0.703 20.797,-0.297L20.797,7.906L9.203,7.906C9.203,7.906 20.406,-4.094 32.203,-19.906C32.609,-20.406 32.703,-20.906 32.703,-21.297C32.703,-21.797 32.5,-22.203 32.406,-22.297L30.203,-24.5C29.906,-24.703 29.609,-24.906 29.203,-24.906L14.297,-24.906C13.594,-24.906 13.094,-24.297 13,-23.703C13,-23.703 12.5,-16.297 9.906,-8.203C7.297,-0.094 4.297,4.906 1.703,8.594C1.703,8.594 1.406,9.094 1.406,9.703C1.406,9.906 1.406,10.094 1.5,10.297C1.797,11 2.5,12.094 2.5,12.094C2.5,12.094 2.703,12.703 3.594,12.703L20.797,12.703" style="fill-rule:nonzero;"/>
    </g>
    <g transform="matrix(0.198425,0,0,0.198425,49.7905,29.9387)">
        <path d="M26.703,-20.297C26.609,-20.297 26.406,-20.406 26.297,-20.406C25.703,-20.406 25.203,-20.094 25,-19.594C24.594,-19 21.5,-13.094 17,-9.797C15.703,-8.797 14.094,-8.094 12.5,-7.797C13.594,-9.094 14.297,-10.703 14.297,-12.594C14.297,-16.5 11.094,-19.703 7.203,-19.703C3.203,-19.703 0,-16.5 0,-12.594C0,-9.5 1.906,-7 4.5,-5.906C6,-5.203 8,-4.703 10,-4.703C12.906,-4.703 16,-5.594 18.703,-7.594C19.906,-8.5 21.094,-9.703 22.203,-10.906L10.797,24.703L13.5,25.5L27.5,-18.594C27.609,-18.703 27.609,-18.906 27.609,-19.094C27.609,-19.594 27.297,-20 26.703,-20.297" style="fill-rule:nonzero;"/>
    </g>
    <g transform="matrix(0.2,0,0,0.2,0,6.26641e-06)">
        <path d="M564.048,193.099L724.076,193.099L724.076,205.5L564.048,205.5L564.048,193.099" style="fill:rgb(238,102,119);"/>
    </g>
    <g transform="matrix(0.2,0,0,0.2,0,6.26641e-06)">
        <path d="M1194.24,137.287L1354.27,143.488L1354.27,155.899L1194.24,149.698L1194.24,137.287" style="fill:rgb(238,102,119);"/>
    </g>
    <g transform="matrix(0.2,0,0,0.2,0,6.26641e-06)">
        <path d="M1810.87,93.881L1970.9,100.082L1970.9,112.493L1810.87,106.292L1810.87,93.881" style="fill:rgb(102,204,238);"/>
    </g>
    <g transform="matrix(0.2,0,0,0.2,0,6.26641e-06)">
        <path d="M879.144,149.689L1039.17,143.488L1039.17,155.899L879.144,162.099L879.144,149.689" style="fill:rgb(238,102,119);"/>
    </g>
    <g transform="matrix(1.17949,0,0,0.954698,-90.9841,1.08106)">
        <rect x="115.499" y="4.946" width="212.161" height="50.562" style="fill:none;stroke:rgb(238,102,119);stroke-width:1.92px;stroke-linecap:round;stroke-linejoin:miter;stroke-miterlimit:1.5;"/>
    </g>
    <g transform="matrix(0.844588,0,0,0.954698,207.51,1.08106)">
        <rect x="115.499" y="4.946" width="212.161" height="50.562" style="fill:none;stroke:rgb(102,204,238);stroke-width:1.92px;stroke-linecap:round;stroke-linejoin:miter;stroke-miterlimit:1.5;"/>
    </g>
</svg>
