<?xml version="1.0" encoding="utf-8" standalone="no"?>
<!DOCTYPE svg PUBLIC "-//W3C//DTD SVG 1.1//EN"
  "http://www.w3.org/Graphics/SVG/1.1/DTD/svg11.dtd">
<svg xmlns:xlink="http://www.w3.org/1999/xlink" width="410.4pt" height="194.4pt" viewBox="0 0 410.4 194.4" xmlns="http://www.w3.org/2000/svg" version="1.1">
 <metadata>
  <rdf:RDF xmlns:dc="http://purl.org/dc/elements/1.1/" xmlns:cc="http://creativecommons.org/ns#" xmlns:rdf="http://www.w3.org/1999/02/22-rdf-syntax-ns#">
   <cc:Work>
    <dc:type rdf:resource="http://purl.org/dc/dcmitype/StillImage"/>
    <dc:date>2025-04-19T19:14:17.758535</dc:date>
    <dc:format>image/svg+xml</dc:format>
    <dc:creator>
     <cc:Agent>
      <dc:title>Matplotlib v3.8.0, https://matplotlib.org/</dc:title>
     </cc:Agent>
    </dc:creator>
   </cc:Work>
  </rdf:RDF>
 </metadata>
 <defs>
  <style type="text/css">*{stroke-linejoin: round; stroke-linecap: butt}</style>
 </defs>
 <g id="figure_1">
  <g id="patch_1">
   <path d="M 0 194.4 
L 410.4 194.4 
L 410.4 0 
L 0 0 
z
" style="fill: #ffffff"/>
  </g>
  <g id="axes_1">
   <g id="LineCollection_1">
    <path d="M 35.613223 16.869421 
L 35.613223 177.530579 
" clip-path="url(#pb50251bc26)" style="fill: none; stroke: #000000"/>
    <path d="M 35.613223 16.869421 
L 205.2 97.2 
" clip-path="url(#pb50251bc26)" style="fill: none; stroke: #000000"/>
    <path d="M 35.613223 177.530579 
L 205.2 97.2 
" clip-path="url(#pb50251bc26)" style="fill: none; stroke: #000000"/>
    <path d="M 205.2 97.2 
L 374.786777 177.530579 
" clip-path="url(#pb50251bc26)" style="fill: none; stroke: #000000"/>
    <path d="M 205.2 97.2 
L 374.786777 16.869421 
" clip-path="url(#pb50251bc26)" style="fill: none; stroke: #000000"/>
    <path d="M 374.786777 16.869421 
L 374.786777 177.530579 
" clip-path="url(#pb50251bc26)" style="fill: none; stroke: #000000"/>
   </g>
   <g id="PathCollection_1">
    <defs>
     <path id="C0_0_b646ae7f27" d="M 0 12.247449 
C 3.248061 12.247449 6.363528 10.95698 8.660254 8.660254 
C 10.95698 6.363528 12.247449 3.248061 12.247449 -0 
C 12.247449 -3.248061 10.95698 -6.363528 8.660254 -8.660254 
C 6.363528 -10.95698 3.248061 -12.247449 0 -12.247449 
C -3.248061 -12.247449 -6.363528 -10.95698 -8.660254 -8.660254 
C -10.95698 -6.363528 -12.247449 -3.248061 -12.247449 0 
C -12.247449 3.248061 -10.95698 6.363528 -8.660254 8.660254 
C -6.363528 10.95698 -3.248061 12.247449 0 12.247449 
z
"/>
    </defs>
    <g clip-path="url(#pb50251bc26)">
     <use xlink:href="#C0_0_b646ae7f27" x="35.613223" y="16.869421" style="fill: #1f78b4; stroke: #000000; stroke-width: 7"/>
    </g>
    <g clip-path="url(#pb50251bc26)">
     <use xlink:href="#C0_0_b646ae7f27" x="35.613223" y="177.530579" style="fill: #1f78b4"/>
    </g>
    <g clip-path="url(#pb50251bc26)">
     <use xlink:href="#C0_0_b646ae7f27" x="205.2" y="97.2" style="fill: #1f78b4"/>
    </g>
    <g clip-path="url(#pb50251bc26)">
     <use xlink:href="#C0_0_b646ae7f27" x="374.786777" y="16.869421" style="fill: #1f78b4"/>
    </g>
    <g clip-path="url(#pb50251bc26)">
     <use xlink:href="#C0_0_b646ae7f27" x="374.786777" y="177.530579" style="fill: #1f78b4; stroke: #000000; stroke-width: 7"/>
    </g>
   </g>
   <g id="PathCollection_2">
    <defs>
     <path id="C1_0_81ce8e9e95" d="M 0 12.247449 
C 3.248061 12.247449 6.363528 10.95698 8.660254 8.660254 
C 10.95698 6.363528 12.247449 3.248061 12.247449 -0 
C 12.247449 -3.248061 10.95698 -6.363528 8.660254 -8.660254 
C 6.363528 -10.95698 3.248061 -12.247449 0 -12.247449 
C -3.248061 -12.247449 -6.363528 -10.95698 -8.660254 -8.660254 
C -10.95698 -6.363528 -12.247449 -3.248061 -12.247449 0 
C -12.247449 3.248061 -10.95698 6.363528 -8.660254 8.660254 
C -6.363528 10.95698 -3.248061 12.247449 0 12.247449 
z
"/>
    </defs>
    <g clip-path="url(#pb50251bc26)">
     <use xlink:href="#C1_0_81ce8e9e95" x="35.613223" y="16.869421" style="fill: #ee6677; stroke: #ee6677"/>
    </g>
    <g clip-path="url(#pb50251bc26)">
     <use xlink:href="#C1_0_81ce8e9e95" x="35.613223" y="177.530579" style="fill: #ccbb44; stroke: #ccbb44"/>
    </g>
    <g clip-path="url(#pb50251bc26)">
     <use xlink:href="#C1_0_81ce8e9e95" x="205.2" y="97.2" style="fill: #aa3377; stroke: #aa3377"/>
    </g>
    <g clip-path="url(#pb50251bc26)">
     <use xlink:href="#C1_0_81ce8e9e95" x="374.786777" y="16.869421" style="fill: #228833; stroke: #228833"/>
    </g>
    <g clip-path="url(#pb50251bc26)">
     <use xlink:href="#C1_0_81ce8e9e95" x="374.786777" y="177.530579" style="fill: #66ccee; stroke: #66ccee"/>
    </g>
   </g>
   <g id="text_1">
    <g clip-path="url(#pb50251bc26)">
     <text style="fill: #ffffff; font: 10px 'DejaVu Sans', 'Bitstream Vera Sans', 'Computer Modern Sans Serif', 'Lucida Grande', 'Verdana', 'Geneva', 'Lucid', 'Arial', 'Helvetica', 'Avant Garde', sans-serif; text-anchor: middle" x="35.613223" y="19.628796" transform="rotate(-0 35.613223 19.628796)">F1</text>
    </g>
   </g>
   <g id="text_2">
    <g clip-path="url(#pb50251bc26)">
     <text style="fill: #ffffff; font: 10px 'DejaVu Sans', 'Bitstream Vera Sans', 'Computer Modern Sans Serif', 'Lucida Grande', 'Verdana', 'Geneva', 'Lucid', 'Arial', 'Helvetica', 'Avant Garde', sans-serif; text-anchor: middle" x="35.613223" y="180.289954" transform="rotate(-0 35.613223 180.289954)">V1</text>
    </g>
   </g>
   <g id="text_3">
    <g clip-path="url(#pb50251bc26)">
     <text style="fill: #ffffff; font: 10px 'DejaVu Sans', 'Bitstream Vera Sans', 'Computer Modern Sans Serif', 'Lucida Grande', 'Verdana', 'Geneva', 'Lucid', 'Arial', 'Helvetica', 'Avant Garde', sans-serif; text-anchor: middle" x="205.2" y="99.959375" transform="rotate(-0 205.2 99.959375)">B1</text>
    </g>
   </g>
   <g id="text_4">
    <g clip-path="url(#pb50251bc26)">
     <text style="fill: #ffffff; font: 10px 'DejaVu Sans', 'Bitstream Vera Sans', 'Computer Modern Sans Serif', 'Lucida Grande', 'Verdana', 'Geneva', 'Lucid', 'Arial', 'Helvetica', 'Avant Garde', sans-serif; text-anchor: middle" x="374.786777" y="19.628796" transform="rotate(-0 374.786777 19.628796)">F2</text>
    </g>
   </g>
   <g id="text_5">
    <g clip-path="url(#pb50251bc26)">
     <text style="fill: #ffffff; font: 10px 'DejaVu Sans', 'Bitstream Vera Sans', 'Computer Modern Sans Serif', 'Lucida Grande', 'Verdana', 'Geneva', 'Lucid', 'Arial', 'Helvetica', 'Avant Garde', sans-serif; text-anchor: middle" x="374.786777" y="180.289954" transform="rotate(-0 374.786777 180.289954)">V2</text>
    </g>
   </g>
  </g>
 </g>
 <defs>
  <clipPath id="pb50251bc26">
   <rect x="0" y="-0" width="410.4" height="194.4"/>
  </clipPath>
 </defs>
</svg>
