<?xml version="1.0" encoding="UTF-8" standalone="no"?>
<!DOCTYPE svg PUBLIC "-//W3C//DTD SVG 1.1//EN" "http://www.w3.org/Graphics/SVG/1.1/DTD/svg11.dtd">
<svg width="100%" height="100%" viewBox="0 0 531 197" version="1.1" xmlns="http://www.w3.org/2000/svg" xmlns:xlink="http://www.w3.org/1999/xlink" xml:space="preserve" xmlns:serif="http://www.serif.com/" style="fill-rule:evenodd;clip-rule:evenodd;stroke-linejoin:bevel;">
    <g transform="matrix(0.2,0,0,0.2,0.000834515,0)">
        <path d="M0,0L2652,0L2652,983.864L0,983.864L0,0" style="fill:white;"/>
    </g>
    <g transform="matrix(0.2,0,0,0.2,0.000834515,0)">
        <path d="M263.803,100.087L2602,100.087" style="fill:none;fill-rule:nonzero;stroke:black;stroke-width:2.73px;"/>
    </g>
    <g transform="matrix(0.2,0,0,0.2,0.000834515,0)">
        <path d="M263.803,124.89L2602,124.89" style="fill:none;fill-rule:nonzero;stroke:black;stroke-width:2.73px;"/>
    </g>
    <g transform="matrix(0.2,0,0,0.2,0.000834515,0)">
        <path d="M263.803,149.693L2602,149.693" style="fill:none;fill-rule:nonzero;stroke:black;stroke-width:2.73px;"/>
    </g>
    <g transform="matrix(0.2,0,0,0.2,0.000834515,0)">
        <path d="M263.803,174.496L2602,174.496" style="fill:none;fill-rule:nonzero;stroke:black;stroke-width:2.73px;"/>
    </g>
    <g transform="matrix(0.2,0,0,0.2,0.000834515,0)">
        <path d="M263.803,199.299L2602,199.299" style="fill:none;fill-rule:nonzero;stroke:black;stroke-width:2.73px;"/>
    </g>
    <g transform="matrix(0.2,0,0,0.2,0.000834515,0)">
        <path d="M263.803,437.596L2602,437.596" style="fill:none;fill-rule:nonzero;stroke:black;stroke-width:2.73px;"/>
    </g>
    <g transform="matrix(0.2,0,0,0.2,0.000834515,0)">
        <path d="M263.803,462.399L2602,462.399" style="fill:none;fill-rule:nonzero;stroke:black;stroke-width:2.73px;"/>
    </g>
    <g transform="matrix(0.2,0,0,0.2,0.000834515,0)">
        <path d="M263.803,487.202L2602,487.202" style="fill:none;fill-rule:nonzero;stroke:black;stroke-width:2.73px;"/>
    </g>
    <g transform="matrix(0.2,0,0,0.2,0.000834515,0)">
        <path d="M263.803,512.005L2602,512.005" style="fill:none;fill-rule:nonzero;stroke:black;stroke-width:2.73px;"/>
    </g>
    <g transform="matrix(0.2,0,0,0.2,0.000834515,0)">
        <path d="M263.803,536.808L2602,536.808" style="fill:none;fill-rule:nonzero;stroke:black;stroke-width:2.73px;"/>
    </g>
    <g transform="matrix(0.2,0,0,0.2,0.000834515,0)">
        <path d="M263.803,775.105L2602,775.105" style="fill:none;fill-rule:nonzero;stroke:black;stroke-width:2.73px;"/>
    </g>
    <g transform="matrix(0.2,0,0,0.2,0.000834515,0)">
        <path d="M263.803,799.908L2602,799.908" style="fill:none;fill-rule:nonzero;stroke:black;stroke-width:2.73px;"/>
    </g>
    <g transform="matrix(0.2,0,0,0.2,0.000834515,0)">
        <path d="M263.803,824.711L2602,824.711" style="fill:none;fill-rule:nonzero;stroke:black;stroke-width:2.73px;"/>
    </g>
    <g transform="matrix(0.2,0,0,0.2,0.000834515,0)">
        <path d="M263.803,849.514L2602,849.514" style="fill:none;fill-rule:nonzero;stroke:black;stroke-width:2.73px;"/>
    </g>
    <g transform="matrix(0.2,0,0,0.2,0.000834515,0)">
        <path d="M263.803,874.317L2602,874.317" style="fill:none;fill-rule:nonzero;stroke:black;stroke-width:2.73px;"/>
    </g>
    <g transform="matrix(0.2,0,0,0.2,0.000834515,0)">
        <path d="M147.203,131.584L117.453,131.584L117.453,133.943L118.344,133.943C121.203,133.99 122.156,134.146 122.547,134.646C122.844,135.084 122.844,135.193 122.844,137.74L122.844,161.537C122.844,164.099 122.844,164.193 122.547,164.646C122.156,165.146 121.203,165.349 118.344,165.349L117.453,165.349L117.453,167.693L134.594,167.693L134.594,165.349L132.953,165.349C130.094,165.349 129.156,165.146 128.75,164.646C128.453,164.193 128.453,164.037 128.453,161.537L128.453,150.193L129.453,150.193C134.594,149.99 136.453,151.849 136.656,157.396L139,157.396L139,140.99L136.656,140.99C136.344,145.896 134.406,147.787 129.656,147.849L128.453,147.849L128.453,136.443C128.406,134.334 128.906,133.99 131.594,133.943L133.906,133.943C142.109,133.896 144.156,135.74 145.703,144.349L147.906,144.349L147.203,131.584M159.203,130.834L149.953,131.396L149.953,133.537L152.406,133.537C154.25,133.584 154.5,133.896 154.5,136.037L154.5,163.896C154.453,164.646 154.406,164.943 154.203,165.193C153.844,165.646 152.906,165.849 150.75,165.896L150.406,165.896L150.406,167.693L163.344,167.693L163.344,165.896L163,165.896C159.656,165.787 159.203,165.537 159.203,163.74L159.203,130.834M185.594,168.037L194.703,167.693L194.703,165.537L193.453,165.537C190.547,165.443 190.297,165.146 190.297,161.896L190.297,144.396L180.906,144.943L180.906,147.099L183.453,147.099C185.344,147.146 185.594,147.443 185.594,149.599L185.594,155.74C185.594,160.099 184.547,165.396 179.047,165.396C177.5,165.396 176.203,164.849 175.547,163.849C174.906,162.896 174.797,162.396 174.797,159.646L174.797,144.396L166.047,144.943L166.047,147.099L167.953,147.099C169.844,147.146 170.094,147.443 170.094,149.599L170.094,160.396C170.094,162.943 170.297,164.099 171.047,165.24C172.406,167.287 174.797,168.443 177.797,168.443C181.094,168.443 183.406,167.099 185.594,163.896L185.594,168.037M205.703,144.396L205.703,134.49L203.656,134.49C203.156,140.99 200.953,144.287 196.906,144.599L196.906,146.537L201,146.537L201,159.287C201,162.787 201.094,164.037 201.594,165.193C202.406,167.287 204.406,168.443 207.297,168.443C211.797,168.443 214.703,165.037 214.703,159.74C214.703,159.443 214.703,159.099 214.656,158.599L212.547,158.599C212.406,163.099 211.094,165.396 208.656,165.396C207.5,165.396 206.5,164.787 206.156,163.943C205.844,163.24 205.703,161.99 205.703,160.193L205.703,146.537L213.047,146.537L213.047,144.396L205.703,144.396M238.25,156.443C238.297,148.943 234.047,143.646 227.953,143.646C221.547,143.646 216.75,149.193 216.75,156.693C216.75,163.74 221.297,168.443 228.047,168.443C232.844,168.443 236.203,166.099 238.25,161.349L236.5,160.396C234.453,164.24 232.344,165.74 229,165.74C226.453,165.74 224.594,164.693 223.297,162.443C222.406,160.943 222,159.193 222.047,156.443L238.25,156.443M222.094,154.287C222.094,150.787 223.703,145.787 227.906,145.787C230.906,145.787 232.906,148.443 232.906,152.49C232.906,153.896 232.453,154.287 230.844,154.287L222.094,154.287" style="fill-rule:nonzero;"/>
    </g>
    <g transform="matrix(0.2,0,0,0.2,0.000834515,0)">
        <path d="M119.656,497.452L110.5,474.249C110.25,473.593 110.094,472.952 110.094,472.702C110.094,471.796 110.953,471.452 113.203,471.452L115.203,471.452L115.203,469.093L99.594,469.093L99.594,471.452L100.594,471.452C102.906,471.499 103.656,472.046 104.453,474.249L117.094,505.952L119.094,505.952L130.609,476.343C132.109,472.452 133.156,471.546 136.047,471.452L136.547,471.452L136.547,469.093L123,469.093L123,471.452L123.953,471.452C126.5,471.452 128,472.452 128,474.046C128,474.749 127.75,475.843 127.406,476.843L119.656,497.452M143.953,469.452C142.344,469.452 141.047,470.749 141.047,472.343C141.047,473.952 142.344,475.249 143.906,475.249C145.547,475.249 146.844,473.952 146.844,472.343C146.844,470.749 145.547,469.452 143.953,469.452M146.297,481.905L136.906,482.452L136.906,484.608L139.453,484.608C141.344,484.655 141.594,484.952 141.594,487.108L141.594,501.405C141.547,502.155 141.5,502.452 141.297,502.702C140.953,503.155 140,503.358 137.844,503.405L137.5,503.405L137.5,505.202L150.453,505.202L150.453,503.405L150.094,503.405C146.75,503.296 146.297,503.046 146.297,501.249L146.297,481.905M164.594,481.155C158.453,481.155 153.703,486.608 153.703,493.608C153.703,500.452 158.5,505.952 164.5,505.952C170.5,505.952 175.297,500.452 175.297,493.546C175.297,486.702 170.5,481.155 164.594,481.155M164.594,483.296C168.094,483.296 170.047,486.952 170.047,493.546C170.047,500.202 168.094,503.796 164.5,503.796C160.906,503.796 158.953,500.202 158.953,493.608C158.953,486.796 160.844,483.296 164.594,483.296M187.203,468.343L177.953,468.905L177.953,471.046L180.406,471.046C182.25,471.093 182.5,471.405 182.5,473.546L182.5,501.405C182.453,502.155 182.406,502.452 182.203,502.702C181.844,503.155 180.906,503.358 178.75,503.405L178.406,503.405L178.406,505.202L191.344,505.202L191.344,503.405L191,503.405C187.656,503.296 187.203,503.046 187.203,501.249L187.203,468.343M200.953,469.452C199.344,469.452 198.047,470.749 198.047,472.343C198.047,473.952 199.344,475.249 200.906,475.249C202.547,475.249 203.844,473.952 203.844,472.343C203.844,470.749 202.547,469.452 200.953,469.452M203.297,481.905L193.906,482.452L193.906,484.608L196.453,484.608C198.344,484.655 198.594,484.952 198.594,487.108L198.594,501.405C198.547,502.155 198.5,502.452 198.297,502.702C197.953,503.155 197,503.358 194.844,503.405L194.5,503.405L194.5,505.202L207.453,505.202L207.453,503.405L207.094,503.405C203.75,503.296 203.297,503.046 203.297,501.249L203.297,481.905M219,481.905L210.344,482.452L210.344,484.608L212.156,484.608C214.047,484.655 214.297,484.952 214.297,487.108L214.297,501.405C214.25,502.155 214.203,502.452 214,502.702C213.656,503.155 212.703,503.358 210.547,503.405L210.344,503.405L210.344,505.202L223,505.202L223,503.405L222.797,503.405C219.453,503.296 219,503.046 219,501.249L219,493.858C219,491.405 219.344,489.155 219.906,487.999C220.953,485.749 223.203,484.202 225.344,484.202C226.656,484.202 228.156,484.905 228.906,485.952C229.656,487.046 230,488.546 230,490.952L230,501.405C229.953,502.155 229.906,502.452 229.703,502.702C229.344,503.155 228.344,503.358 226.203,503.405L226,503.405L226,505.202L238.656,505.202L238.656,503.405L238.453,503.405C235.156,503.296 234.703,503.046 234.703,501.249L234.703,491.202C234.703,487.608 234.547,486.702 233.656,484.999C232.406,482.608 229.906,481.155 226.906,481.155C223.656,481.155 221.203,482.655 219,485.952L219,481.905" style="fill-rule:nonzero;"/>
    </g>
    <g transform="matrix(0.2,0,0,0.2,0.000834515,0)">
        <path d="M50.5,806.102L50.5,808.461L51.406,808.461C54.25,808.508 55.203,808.664 55.594,809.164C55.906,809.602 55.906,809.711 55.906,812.258L55.906,836.055C55.906,838.617 55.906,838.711 55.594,839.164C55.203,839.664 54.25,839.867 51.406,839.867L50.5,839.867L50.5,842.211L68.656,842.211C77.297,842.211 82.5,838.555 82.5,832.414C82.5,827.414 79.359,824.555 72.5,823.367C74.906,822.867 76,822.414 77.297,821.461C79.359,819.914 80.609,817.461 80.609,814.961C80.609,811.711 78.609,808.555 75.703,807.305C73.906,806.508 71.406,806.102 68.453,806.102L50.5,806.102M61.5,822.367L61.5,810.961C61.5,809.008 62.156,808.508 64.797,808.461L66.797,808.461C71.703,808.461 74.797,810.055 74.797,815.508C74.797,820.461 72.406,822.367 65.953,822.367L61.5,822.367M61.5,824.711L65.906,824.711C73.547,824.711 76.359,826.758 76.359,832.258C76.359,838.961 72.156,839.867 66.5,839.867L64.406,839.867C61.906,839.867 61.406,839.367 61.5,836.711L61.5,824.711M107.594,826.117C107.594,822.961 107.047,821.367 105.594,820.164C103.953,818.805 101.5,818.164 98.297,818.164C92.656,818.164 88.547,820.805 88.547,824.461C88.547,826.305 89.703,827.508 91.453,827.508C93.047,827.508 94.156,826.461 94.156,824.961C94.156,824.305 93.906,823.617 93.406,822.914C93.094,822.555 93.047,822.461 93.047,822.211C93.047,821.211 95.047,820.305 97.453,820.305C99.047,820.305 100.797,820.805 101.594,821.555C102.547,822.367 102.906,823.555 102.906,825.805L102.906,827.758C97.703,828.664 96.047,829.055 93.594,830.008C89.25,831.617 87.203,833.914 87.203,837.117C87.203,840.711 90,842.961 94.453,842.961C97.906,842.961 101,841.555 103.156,839.008C103.953,841.555 105.203,842.555 107.547,842.555C109.797,842.555 112.156,841.117 112.156,839.664C112.156,839.305 111.953,839.055 111.656,839.055C111.453,839.055 111.25,839.117 110.906,839.258C110.203,839.555 109.906,839.617 109.5,839.617C108.094,839.617 107.594,838.711 107.594,836.164L107.594,826.117M102.906,832.211C102.906,835.211 102.75,835.914 101.906,837.211C100.656,839.055 98.406,840.305 96.203,840.305C93.906,840.305 92.25,838.664 92.25,836.414C92.25,834.305 93.297,832.805 95.5,831.758C97.047,831.055 99,830.555 102.906,829.914L102.906,832.211M132.5,818.367L130.75,818.367L129.297,820.164C127.5,818.758 125.703,818.164 123.203,818.164C118.797,818.164 115.906,821.008 115.906,825.414C115.906,830.117 118.953,831.305 122.953,832.258L125.594,832.867C129.547,833.805 130.953,834.805 130.953,836.805C130.953,839.164 128.906,840.805 126,840.805C121.75,840.805 118.75,838.117 117.547,833.117L115.547,833.117L115.547,842.555L117.297,842.555L119.047,840.508C121.094,842.164 123.344,842.961 125.906,842.961C130.797,842.961 134.047,839.914 134.047,835.258C134.047,833.055 133.344,831.367 131.953,830.211C130.75,829.164 129.75,828.758 126.703,828.117L124.203,827.555C121.453,826.961 121.453,826.961 120.547,826.461C119.453,825.961 118.797,824.914 118.797,823.805C118.797,821.758 120.703,820.367 123.453,820.367C127.547,820.367 129.547,823.258 130.75,826.758L132.5,826.758L132.5,818.367M155.5,818.367L153.75,818.367L152.297,820.164C150.5,818.758 148.703,818.164 146.203,818.164C141.797,818.164 138.906,821.008 138.906,825.414C138.906,830.117 141.953,831.305 145.953,832.258L148.594,832.867C152.547,833.805 153.953,834.805 153.953,836.805C153.953,839.164 151.906,840.805 149,840.805C144.75,840.805 141.75,838.117 140.547,833.117L138.547,833.117L138.547,842.555L140.297,842.555L142.047,840.508C144.094,842.164 146.344,842.961 148.906,842.961C153.797,842.961 157.047,839.914 157.047,835.258C157.047,833.055 156.344,831.367 154.953,830.211C153.75,829.164 152.75,828.758 149.703,828.117L147.203,827.555C144.453,826.961 144.453,826.961 143.547,826.461C142.453,825.961 141.797,824.914 141.797,823.805C141.797,821.758 143.703,820.367 146.453,820.367C150.547,820.367 152.547,823.258 153.75,826.758L155.5,826.758L155.5,818.367M171.594,818.164C165.453,818.164 160.703,823.617 160.703,830.617C160.703,837.461 165.5,842.961 171.5,842.961C177.5,842.961 182.297,837.461 182.297,830.555C182.297,823.711 177.5,818.164 171.594,818.164M171.594,820.305C175.094,820.305 177.047,823.961 177.047,830.555C177.047,837.211 175.094,840.805 171.5,840.805C167.906,840.805 165.953,837.211 165.953,830.617C165.953,823.805 167.844,820.305 171.594,820.305M196.594,818.164C190.453,818.164 185.703,823.617 185.703,830.617C185.703,837.461 190.5,842.961 196.5,842.961C202.5,842.961 207.297,837.461 207.297,830.555C207.297,823.711 202.5,818.164 196.594,818.164M196.594,820.305C200.094,820.305 202.047,823.961 202.047,830.555C202.047,837.211 200.094,840.805 196.5,840.805C192.906,840.805 190.953,837.211 190.953,830.617C190.953,823.805 192.844,820.305 196.594,820.305M219,818.914L210.344,819.461L210.344,821.617L212.156,821.617C214.047,821.664 214.297,821.961 214.297,824.117L214.297,838.414C214.25,839.164 214.203,839.461 214,839.711C213.656,840.164 212.703,840.367 210.547,840.414L210.344,840.414L210.344,842.211L223,842.211L223,840.414L222.797,840.414C219.453,840.305 219,840.055 219,838.258L219,830.867C219,828.414 219.344,826.164 219.906,825.008C220.953,822.758 223.203,821.211 225.344,821.211C226.656,821.211 228.156,821.914 228.906,822.961C229.656,824.055 230,825.555 230,827.961L230,838.414C229.953,839.164 229.906,839.461 229.703,839.711C229.344,840.164 228.344,840.367 226.203,840.414L226,840.414L226,842.211L238.656,842.211L238.656,840.414L238.453,840.414C235.156,840.305 234.703,840.055 234.703,838.258L234.703,828.211C234.703,824.617 234.547,823.711 233.656,822.008C232.406,819.617 229.906,818.164 226.906,818.164C223.656,818.164 221.203,819.664 219,822.961L219,818.914" style="fill-rule:nonzero;"/>
    </g>
    <g transform="matrix(0.2,0,0,0.2,0.000834515,0)">
        <path d="M488.202,892.765C735.334,938.402 1476.73,938.402 1723.86,892.765C1476.73,946.339 735.334,946.339 488.202,892.765" style="fill:rgb(170,51,119);stroke:rgb(170,51,119);stroke-width:1.24px;stroke-linecap:round;stroke-linejoin:round;"/>
    </g>
    <g transform="matrix(0.2,0,0,0.2,0.000834515,0)">
        <path d="M1674.61,98.723L1674.61,200.664" style="fill:none;fill-rule:nonzero;stroke:black;stroke-width:4.46px;"/>
    </g>
    <g transform="matrix(0.2,0,0,0.2,0.000834515,0)">
        <path d="M266.035,98.723L266.035,437.596" style="fill:none;fill-rule:nonzero;stroke:black;stroke-width:4.46px;"/>
    </g>
    <g transform="matrix(0.2,0,0,0.2,0.000834515,0)">
        <path d="M2576.95,98.723L2576.95,200.664" style="fill:none;fill-rule:nonzero;stroke:black;stroke-width:4.46px;"/>
    </g>
    <g transform="matrix(0.2,0,0,0.2,0.000834515,0)">
        <path d="M2595.18,98.723L2595.18,200.664" style="fill:none;fill-rule:nonzero;stroke:black;stroke-width:13.64px;"/>
    </g>
    <g transform="matrix(0.2,0,0,0.2,0.000834515,0)">
        <path d="M1674.61,436.232L1674.61,538.172" style="fill:none;fill-rule:nonzero;stroke:black;stroke-width:4.46px;"/>
    </g>
    <g transform="matrix(0.2,0,0,0.2,0.000834515,0)">
        <path d="M266.035,436.232L266.035,775.105" style="fill:none;fill-rule:nonzero;stroke:black;stroke-width:4.46px;"/>
    </g>
    <g transform="matrix(0.2,0,0,0.2,0.000834515,0)">
        <path d="M2576.95,436.232L2576.95,538.172" style="fill:none;fill-rule:nonzero;stroke:black;stroke-width:4.46px;"/>
    </g>
    <g transform="matrix(0.2,0,0,0.2,0.000834515,0)">
        <path d="M2595.18,436.232L2595.18,538.172" style="fill:none;fill-rule:nonzero;stroke:black;stroke-width:13.64px;"/>
    </g>
    <g transform="matrix(0.2,0,0,0.2,0.000834515,0)">
        <path d="M1674.61,773.74L1674.61,875.681" style="fill:none;fill-rule:nonzero;stroke:black;stroke-width:4.46px;"/>
    </g>
    <g transform="matrix(0.2,0,0,0.2,0.000834515,0)">
        <path d="M266.035,773.74L266.035,875.681" style="fill:none;fill-rule:nonzero;stroke:black;stroke-width:4.46px;"/>
    </g>
    <g transform="matrix(0.2,0,0,0.2,0.000834515,0)">
        <path d="M2576.95,773.74L2576.95,875.681" style="fill:none;fill-rule:nonzero;stroke:black;stroke-width:4.46px;"/>
    </g>
    <g transform="matrix(0.2,0,0,0.2,0.000834515,0)">
        <path d="M2595.18,773.74L2595.18,875.681" style="fill:none;fill-rule:nonzero;stroke:black;stroke-width:13.64px;"/>
    </g>
    <g transform="matrix(0.2,0,0,0.2,0.000834515,0)">
        <path d="M1213.15,75.284L1261.75,75.284" style="fill:none;fill-rule:nonzero;stroke:rgb(238,102,119);stroke-width:3.97px;"/>
    </g>
    <g transform="matrix(0.2,0,0,0.2,0.000834515,0)">
        <path d="M1363.5,75.284L1412.1,75.284" style="fill:none;fill-rule:nonzero;stroke:rgb(238,102,119);stroke-width:3.97px;"/>
    </g>
    <g transform="matrix(0.2,0,0,0.2,0.000834515,0)">
        <path d="M1513.84,75.284L1562.44,75.284" style="fill:none;fill-rule:nonzero;stroke:rgb(238,102,119);stroke-width:3.97px;"/>
    </g>
    <g transform="matrix(0.2,0,0,0.2,0.000834515,0)">
        <path d="M1372.92,67.049L1372.92,143.543" style="fill:none;fill-rule:nonzero;stroke:rgb(238,102,119);stroke-width:2.48px;"/>
    </g>
    <g transform="matrix(0.2,0,0,0.2,0.000834515,0)">
        <path d="M771.539,129.057L771.539,199.299" style="fill:none;fill-rule:nonzero;stroke:rgb(238,102,119);stroke-width:2.48px;"/>
    </g>
    <g transform="matrix(0.2,0,0,0.2,0.000834515,0)">
        <path d="M1523.27,79.451L1523.27,149.643" style="fill:none;fill-rule:nonzero;stroke:rgb(238,102,119);stroke-width:2.48px;"/>
    </g>
    <g transform="matrix(0.2,0,0,0.2,0.000834515,0)">
        <path d="M621.193,129.057L621.193,211.602" style="fill:none;fill-rule:nonzero;stroke:rgb(238,102,119);stroke-width:2.48px;"/>
    </g>
    <g transform="matrix(0.2,0,0,0.2,0.000834515,0)">
        <path d="M1222.58,79.451L1222.58,149.743" style="fill:none;fill-rule:nonzero;stroke:rgb(238,102,119);stroke-width:2.48px;"/>
    </g>
    <g transform="matrix(0.2,0,0,0.2,0.000834515,0)">
        <path d="M1711.47,91.852L1711.47,174.496" style="fill:none;fill-rule:nonzero;stroke:rgb(34,136,51);stroke-width:2.48px;"/>
    </g>
    <g transform="matrix(0.2,0,0,0.2,0.000834515,0)">
        <path d="M921.885,129.057L921.885,199.299" style="fill:none;fill-rule:nonzero;stroke:rgb(238,102,119);stroke-width:2.48px;"/>
    </g>
    <g transform="matrix(0.2,0,0,0.2,0.000834515,0)">
        <path d="M1072.23,91.852L1072.23,155.844" style="fill:none;fill-rule:nonzero;stroke:rgb(238,102,119);stroke-width:2.48px;"/>
    </g>
    <g transform="matrix(0.2,0,0,0.2,0.000834515,0)">
        <path d="M1402.67,495.635L1402.67,418.993" style="fill:none;fill-rule:nonzero;stroke:rgb(204,187,68);stroke-width:2.48px;"/>
    </g>
    <g transform="matrix(0.2,0,0,0.2,0.000834515,0)">
        <path d="M1072.23,491.369L1072.23,561.611" style="fill:none;fill-rule:nonzero;stroke:rgb(204,187,68);stroke-width:2.48px;"/>
    </g>
    <g transform="matrix(0.2,0,0,0.2,0.000834515,0)">
        <path d="M1741.22,508.037L1741.22,425.194" style="fill:none;fill-rule:nonzero;stroke:rgb(102,204,238);stroke-width:2.48px;"/>
    </g>
    <g transform="matrix(0.2,0,0,0.2,0.000834515,0)">
        <path d="M1966.74,508.037L1966.74,437.646" style="fill:none;fill-rule:nonzero;stroke:rgb(102,204,238);stroke-width:2.48px;"/>
    </g>
    <g transform="matrix(0.2,0,0,0.2,0.000834515,0)">
        <path d="M2117.08,545.241L2117.08,443.746" style="fill:none;fill-rule:nonzero;stroke:rgb(102,204,238);stroke-width:2.48px;"/>
    </g>
    <g transform="matrix(0.2,0,0,0.2,0.000834515,0)">
        <path d="M2267.43,508.037L2267.43,425.194" style="fill:none;fill-rule:nonzero;stroke:rgb(102,204,238);stroke-width:2.48px;"/>
    </g>
    <g transform="matrix(0.198425,0,0,0.198425,123.991,42.3402)">
        <path d="M0,-0.094C0,0.594 0.594,1.203 1.297,1.203C1.797,1.203 2.406,0.797 2.5,0.406C2.5,0.297 3.406,-3.203 3.5,-3.5C3.594,-3.906 4.5,-7.703 8.094,-13.594C12,-20.094 18,-24.797 23,-31.797C27.906,-38.797 30.906,-45.406 30.906,-54.203C30.906,-63.297 28.797,-70.906 23.5,-80.609C23.203,-81.313 22.594,-81.703 22,-81.703C21.797,-81.703 21.594,-81.703 21.5,-81.609C21,-81.406 20.797,-81 20.797,-80.406C20.797,-80.109 20.906,-79.609 21.094,-79.203C25.094,-69.906 26.703,-64.609 26.703,-57.406C26.703,-49.109 23.797,-44.797 22,-41.703C15.5,-30.609 5,-25.203 0.797,-23.797C0.094,-23.5 0,-23 0,-22.703L0,-0.094" style="fill:rgb(238,102,119);fill-rule:nonzero;"/>
    </g>
    <g transform="matrix(0.198425,0,0,0.198425,304.407,15.0567)">
        <path d="M0,4.203C0,8.5 3.094,13.297 11.203,13.297C21.594,13.297 32.5,4.797 32.5,-4C32.5,-9.906 27.5,-13.203 21.297,-13.203C11.594,-13.203 0,-5 0,4.203" style="fill:rgb(238,102,119);fill-rule:nonzero;"/>
    </g>
    <g transform="matrix(0.198425,0,0,0.198425,244.269,15.0567)">
        <path d="M0,4.203C0,8.5 3.094,13.297 11.203,13.297C21.594,13.297 32.5,4.797 32.5,-4C32.5,-9.906 27.5,-13.203 21.297,-13.203C11.594,-13.203 0,-5 0,4.203" style="fill:rgb(238,102,119);fill-rule:nonzero;"/>
    </g>
    <g transform="matrix(0.198425,0,0,0.198425,214.199,17.5371)">
        <path d="M0,4.203C0,8.5 3.094,13.297 11.203,13.297C21.594,13.297 32.5,4.797 32.5,-4C32.5,-9.906 27.5,-13.203 21.297,-13.203C11.594,-13.203 0,-5 0,4.203" style="fill:rgb(238,102,119);fill-rule:nonzero;"/>
    </g>
    <g transform="matrix(0.198425,0,0,0.198425,274.337,12.5764)">
        <path d="M0,4.203C0,8.5 3.094,13.297 11.203,13.297C21.594,13.297 32.5,4.797 32.5,-4C32.5,-9.906 27.5,-13.203 21.297,-13.203C11.594,-13.203 0,-5 0,4.203" style="fill:rgb(238,102,119);fill-rule:nonzero;"/>
    </g>
    <g transform="matrix(0.198425,0,0,0.198425,154.061,24.978)">
        <path d="M0,4.203C0,8.5 3.094,13.297 11.203,13.297C21.594,13.297 32.5,4.797 32.5,-4C32.5,-9.906 27.5,-13.203 21.297,-13.203C11.594,-13.203 0,-5 0,4.203" style="fill:rgb(238,102,119);fill-rule:nonzero;"/>
    </g>
    <g transform="matrix(0.198425,0,0,0.198425,184.13,24.978)">
        <path d="M0,4.203C0,8.5 3.094,13.297 11.203,13.297C21.594,13.297 32.5,4.797 32.5,-4C32.5,-9.906 27.5,-13.203 21.297,-13.203C11.594,-13.203 0,-5 0,4.203" style="fill:rgb(238,102,119);fill-rule:nonzero;"/>
    </g>
    <g transform="matrix(0.198425,0,0,0.198425,123.991,24.978)">
        <path d="M0,4.203C0,8.5 3.094,13.297 11.203,13.297C21.594,13.297 32.5,4.797 32.5,-4C32.5,-9.906 27.5,-13.203 21.297,-13.203C11.594,-13.203 0,-5 0,4.203" style="fill:rgb(238,102,119);fill-rule:nonzero;"/>
    </g>
    <g transform="matrix(0.198425,0,0,0.198425,342.047,17.5371)">
        <path d="M21.297,-13.203C11.594,-13.203 0,-5.094 0,4.203C0,8.5 3.094,13.297 11.203,13.297C21.594,13.297 32.5,4.797 32.5,-4C32.5,-9.906 27.5,-13.203 21.297,-13.203M18.594,4.406C18.297,4.594 11,8.594 7.5,8.594C4.203,8.594 3.5,5.906 3.5,5C3.5,0.797 13.5,-4.094 13.906,-4.297C14.297,-4.5 21.406,-8.5 25,-8.5C27.406,-8.5 29,-7.094 29,-4.906C29,-0.594 18.906,4.203 18.594,4.406" style="fill:rgb(34,136,51);fill-rule:nonzero;"/>
    </g>
    <g transform="matrix(0.198425,0,0,0.198425,274.337,99.9208)">
        <path d="M0,4.203C0,8.5 3.094,13.297 11.203,13.297C21.594,13.297 32.5,4.797 32.5,-4C32.5,-9.906 27.5,-13.203 21.297,-13.203C11.594,-13.203 0,-5 0,4.203" style="fill:rgb(204,187,68);fill-rule:nonzero;"/>
    </g>
    <g transform="matrix(0.198425,0,0,0.198425,342.047,102.401)">
        <path d="M0,4.203C0,8.5 3.094,13.297 11.203,13.297C21.594,13.297 32.5,4.797 32.5,-4C32.5,-9.906 27.5,-13.203 21.297,-13.203C11.594,-13.203 0,-5 0,4.203" style="fill:rgb(102,204,238);fill-rule:nonzero;"/>
    </g>
    <g transform="matrix(0.198425,0,0,0.198425,387.151,102.401)">
        <path d="M0,4.203C0,8.5 3.094,13.297 11.203,13.297C21.594,13.297 32.5,4.797 32.5,-4C32.5,-9.906 27.5,-13.203 21.297,-13.203C11.594,-13.203 0,-5 0,4.203" style="fill:rgb(102,204,238);fill-rule:nonzero;"/>
    </g>
    <g transform="matrix(0.198425,0,0,0.198425,417.221,109.842)">
        <path d="M0,4.203C0,8.5 3.094,13.297 11.203,13.297C21.594,13.297 32.5,4.797 32.5,-4C32.5,-9.906 27.5,-13.203 21.297,-13.203C11.594,-13.203 0,-5 0,4.203" style="fill:rgb(102,204,238);fill-rule:nonzero;"/>
    </g>
    <g transform="matrix(0.198425,0,0,0.198425,214.199,97.4404)">
        <path d="M0,4.203C0,8.5 3.094,13.297 11.203,13.297C21.594,13.297 32.5,4.797 32.5,-4C32.5,-9.906 27.5,-13.203 21.297,-13.203C11.594,-13.203 0,-5 0,4.203" style="fill:rgb(204,187,68);fill-rule:nonzero;"/>
    </g>
    <g transform="matrix(0.198425,0,0,0.198425,447.289,102.401)">
        <path d="M21.297,-13.203C11.594,-13.203 0,-5.094 0,4.203C0,8.5 3.094,13.297 11.203,13.297C21.594,13.297 32.5,4.797 32.5,-4C32.5,-9.906 27.5,-13.203 21.297,-13.203M18.594,4.406C18.297,4.594 11,8.594 7.5,8.594C4.203,8.594 3.5,5.906 3.5,5C3.5,0.797 13.5,-4.094 13.906,-4.297C14.297,-4.5 21.406,-8.5 25,-8.5C27.406,-8.5 29,-7.094 29,-4.906C29,-0.594 18.906,4.203 18.594,4.406" style="fill:rgb(102,204,238);fill-rule:nonzero;"/>
    </g>
    <g transform="matrix(0.198425,0,0,0.198425,341.569,174.863)">
        <path d="M18.703,-13.594C4.906,-13.594 0,-6.594 0,-0.094C0,6.406 4.906,13.406 18.703,13.406C32.5,13.406 37.297,6.406 37.297,-0.094C37.297,-6.594 32.5,-13.594 18.703,-13.594M23.797,9.594C22.594,10 21,10.203 19.5,10.203C16.703,10.203 14.797,9.406 13.5,6.906C12.203,4.406 10.406,-2 10.297,-4.703C10.094,-7.406 11.094,-9 13.5,-9.797C14.703,-10.203 16.297,-10.406 17.797,-10.406C20.594,-10.406 22.406,-9.797 23.797,-7.094C25.203,-4.406 27,2 27,4.5C27,7.094 26.203,8.906 23.797,9.594" style="fill:rgb(170,51,119);fill-rule:nonzero;"/>
    </g>
    <g transform="matrix(0.198425,0,0,0.198425,93.4449,174.863)">
        <path d="M18.703,-13.594C4.906,-13.594 0,-6.594 0,-0.094C0,6.406 4.906,13.406 18.703,13.406C32.5,13.406 37.297,6.406 37.297,-0.094C37.297,-6.594 32.5,-13.594 18.703,-13.594M23.797,9.594C22.594,10 21,10.203 19.5,10.203C16.703,10.203 14.797,9.406 13.5,6.906C12.203,4.406 10.406,-2 10.297,-4.703C10.094,-7.406 11.094,-9 13.5,-9.797C14.703,-10.203 16.297,-10.406 17.797,-10.406C20.594,-10.406 22.406,-9.797 23.797,-7.094C25.203,-4.406 27,2 27,4.5C27,7.094 26.203,8.906 23.797,9.594" style="fill:rgb(170,51,119);fill-rule:nonzero;"/>
    </g>
    <g transform="matrix(0.198425,0,0,0.198425,57.3749,34.8992)">
        <path d="M56.203,2.094C56.203,9.203 53.297,16.5 46.203,19.406C44.109,7.406 41.406,-8.5 40.703,-12.906C49.703,-12.906 56.203,-6.797 56.203,2.094M42,20.594C40,21 38.109,21.203 36.203,21.203C21.906,21.203 9.703,11.203 9.703,-3.906C9.703,-16.094 18.297,-27 27.109,-34.609C28.797,-36.109 30.406,-37.5 31.906,-39C32.797,-33.609 33.5,-28.906 34.203,-24.797C25.094,-22.094 18.906,-12.5 18.906,-3.094C18.906,3.906 24.406,13.5 32.406,13.5C33.203,13.5 34.109,13.094 34.109,12.203C34.109,11.297 33.109,10.797 31.906,10C28,7.594 25.797,5 25.797,0.094C25.797,-6 30.297,-10.906 36.203,-12.297L42,20.594M33.203,-82.203C34.109,-86.203 38.703,-96.703 43.906,-96.703C45.406,-96.703 47.797,-91.813 47.797,-84.906C47.797,-74.5 40.109,-66.703 33.203,-59.906C32.609,-63.906 32.109,-67.797 32.109,-72C32.109,-75.703 32.406,-79.109 33.203,-82.203M12.203,51.297C12.203,57.906 17.297,66.609 30.797,66.609C35.5,66.609 39.609,65.406 43.203,63.203C48.609,59.406 50,52.797 50,46.5C50,42.609 49.406,38.109 48.406,32.406C48.109,30.406 47.5,27.406 46.906,23.5C56.703,20.297 64,10.094 64,-0.203C64,-15.297 53.297,-25.5 38.703,-25.5C37.703,-31.5 36.703,-37.406 35.797,-43C46.406,-54.109 53.703,-66.609 53.703,-82.5C53.703,-91.609 50.906,-99 49.297,-102.609C46.906,-107.703 44,-111.203 42.203,-111.203C41.5,-111.203 38.406,-110 35.109,-106.109C28.703,-98.5 26.906,-85.703 26.906,-77.313C26.906,-71.906 27.406,-67 29.109,-55.797C29,-55.703 23.797,-50.406 21.703,-48.703C12.594,-40.203 0,-28.109 0,-8.094C0,10.594 16.297,25.297 34.906,25.297C37.797,25.297 40.5,25 42.797,24.594C44.703,34.203 45.797,41.203 45.797,46.5C45.797,56.906 40.5,62.406 30.406,62.406C28,62.406 25.906,61.906 25.703,61.906C25.609,61.797 25.406,61.703 25.406,61.609C25.406,61.406 25.609,61.297 25.906,61.203C30.609,60.5 35.297,56.5 35.297,50.109C35.297,44.703 31.203,39 23.703,39C16.703,39 12.203,44.703 12.203,51.297" style="fill-rule:nonzero;"/>
    </g>
    <g transform="matrix(0.198425,0,0,0.198425,57.3749,102.401)">
        <path d="M56.203,2.094C56.203,9.203 53.297,16.5 46.203,19.406C44.109,7.406 41.406,-8.5 40.703,-12.906C49.703,-12.906 56.203,-6.797 56.203,2.094M42,20.594C40,21 38.109,21.203 36.203,21.203C21.906,21.203 9.703,11.203 9.703,-3.906C9.703,-16.094 18.297,-27 27.109,-34.609C28.797,-36.109 30.406,-37.5 31.906,-39C32.797,-33.609 33.5,-28.906 34.203,-24.797C25.094,-22.094 18.906,-12.5 18.906,-3.094C18.906,3.906 24.406,13.5 32.406,13.5C33.203,13.5 34.109,13.094 34.109,12.203C34.109,11.297 33.109,10.797 31.906,10C28,7.594 25.797,5 25.797,0.094C25.797,-6 30.297,-10.906 36.203,-12.297L42,20.594M33.203,-82.203C34.109,-86.203 38.703,-96.703 43.906,-96.703C45.406,-96.703 47.797,-91.813 47.797,-84.906C47.797,-74.5 40.109,-66.703 33.203,-59.906C32.609,-63.906 32.109,-67.797 32.109,-72C32.109,-75.703 32.406,-79.109 33.203,-82.203M12.203,51.297C12.203,57.906 17.297,66.609 30.797,66.609C35.5,66.609 39.609,65.406 43.203,63.203C48.609,59.406 50,52.797 50,46.5C50,42.609 49.406,38.109 48.406,32.406C48.109,30.406 47.5,27.406 46.906,23.5C56.703,20.297 64,10.094 64,-0.203C64,-15.297 53.297,-25.5 38.703,-25.5C37.703,-31.5 36.703,-37.406 35.797,-43C46.406,-54.109 53.703,-66.609 53.703,-82.5C53.703,-91.609 50.906,-99 49.297,-102.609C46.906,-107.703 44,-111.203 42.203,-111.203C41.5,-111.203 38.406,-110 35.109,-106.109C28.703,-98.5 26.906,-85.703 26.906,-77.313C26.906,-71.906 27.406,-67 29.109,-55.797C29,-55.703 23.797,-50.406 21.703,-48.703C12.594,-40.203 0,-28.109 0,-8.094C0,10.594 16.297,25.297 34.906,25.297C37.797,25.297 40.5,25 42.797,24.594C44.703,34.203 45.797,41.203 45.797,46.5C45.797,56.906 40.5,62.406 30.406,62.406C28,62.406 25.906,61.906 25.703,61.906C25.609,61.797 25.406,61.703 25.406,61.609C25.406,61.406 25.609,61.297 25.906,61.203C30.609,60.5 35.297,56.5 35.297,50.109C35.297,44.703 31.203,39 23.703,39C16.703,39 12.203,44.703 12.203,51.297" style="fill-rule:nonzero;"/>
    </g>
    <g transform="matrix(0.198425,0,0,0.198425,57.3749,159.982)">
        <path d="M25.406,-25.094C17.797,-25.094 11.703,-20.703 11.594,-20.703C5.797,-16.406 3.5,-11.297 2.594,-7.797C2.094,-6 1.906,-4.203 1.906,-2.5C1.906,-0.094 2.297,2.094 3.203,4C4.406,6.703 6.703,8.594 9.703,9.594C10.906,10 12.203,10.203 13.5,10.203C15.703,10.203 18,9.594 19.906,8.5C23,6.797 24.906,3.203 24.906,-0.703C24.906,-4.203 23.094,-7.406 20.094,-9.297C18,-10.703 16,-11.094 14.297,-11.094C13.094,-11.094 12,-10.906 11.094,-10.594C10.094,-10.203 8.406,-9.203 7.594,-8.5C7.906,-10.406 9.094,-13.297 10.203,-14.906C11.297,-16.5 13.5,-18.5 15.203,-19.406C17.703,-20.797 20.906,-21.406 24.406,-21.406C34.609,-21.406 39.609,-13.203 39.609,3.594C39.609,12.906 36.109,21.797 33.109,27.703C29.797,34.297 25.406,40.609 21.5,44.109C11.094,53.609 1.297,58.109 1.203,58.109C1.203,58.109 0,58.797 0,60C0,60.203 0.094,60.297 0.094,60.5C0.406,61.5 1.297,61.703 1.906,61.703C2,61.703 2.297,61.609 2.406,61.609C2.5,61.609 13.906,56.906 23,49.797C28.109,46.109 32.703,42.109 36.703,37.797C40.297,33.906 43.406,29.703 45.906,25.5C50.297,18 52.797,10.203 52.797,3.5C52.797,-4.797 50.609,-11.703 46.5,-16.594C41.797,-22.203 34.703,-25.094 25.406,-25.094M56.797,-12.406C56.797,-9.594 59,-7.406 61.609,-7.406C64.203,-7.406 66.406,-9.594 66.406,-12.406C66.406,-15.203 64.203,-17.5 61.609,-17.5C59,-17.5 56.797,-15.203 56.797,-12.406M56.797,12.297C56.797,15.094 59,17.406 61.609,17.406C64.203,17.406 66.406,15.094 66.406,12.297C66.406,9.5 64.203,7.203 61.609,7.203C59,7.203 56.797,9.5 56.797,12.297" style="fill-rule:nonzero;"/>
    </g>
    <g transform="matrix(0.198425,0,0,0.198425,75.2331,24.978)">
        <path d="M20.797,12.703L20.797,20.094L12.5,20.094C11.797,20.094 11.094,20.703 11.094,21.5L11.094,23.406C11.094,24.203 11.797,24.797 12.5,24.797L42.797,24.797C43.609,24.797 44.203,24.203 44.203,23.406L44.203,21.5C44.203,20.703 43.609,20.094 42.797,20.094L33.797,20.094L33.797,12.703L42.797,12.703C43.609,12.703 44.203,12 44.203,11.203L44.203,9.297C44.203,8.594 43.609,7.906 42.797,7.906L33.797,7.906L33.797,-8C33.797,-8.594 33.5,-9.094 33.109,-9.297L31.906,-9.906C31.703,-10 31.609,-10 31.406,-10L31.203,-10C30.906,-10 30.5,-9.906 30.297,-9.703L21.203,-1.406C20.906,-1.094 20.797,-0.703 20.797,-0.297L20.797,7.906L9.203,7.906C9.203,7.906 20.406,-4.094 32.203,-19.906C32.609,-20.406 32.703,-20.906 32.703,-21.297C32.703,-21.797 32.5,-22.203 32.406,-22.297L30.203,-24.5C29.906,-24.703 29.609,-24.906 29.203,-24.906L14.297,-24.906C13.594,-24.906 13.094,-24.297 13,-23.703C13,-23.703 12.5,-16.297 9.906,-8.203C7.297,-0.094 4.297,4.906 1.703,8.594C1.703,8.594 1.406,9.094 1.406,9.703C1.406,9.906 1.406,10.094 1.5,10.297C1.797,11 2.5,12.094 2.5,12.094C2.5,12.094 2.703,12.703 3.594,12.703L20.797,12.703" style="fill-rule:nonzero;"/>
    </g>
    <g transform="matrix(0.198425,0,0,0.198425,75.2331,34.8992)">
        <path d="M20.797,12.703L20.797,20.094L12.5,20.094C11.797,20.094 11.094,20.703 11.094,21.5L11.094,23.406C11.094,24.203 11.797,24.797 12.5,24.797L42.797,24.797C43.609,24.797 44.203,24.203 44.203,23.406L44.203,21.5C44.203,20.703 43.609,20.094 42.797,20.094L33.797,20.094L33.797,12.703L42.797,12.703C43.609,12.703 44.203,12 44.203,11.203L44.203,9.297C44.203,8.594 43.609,7.906 42.797,7.906L33.797,7.906L33.797,-8C33.797,-8.594 33.5,-9.094 33.109,-9.297L31.906,-9.906C31.703,-10 31.609,-10 31.406,-10L31.203,-10C30.906,-10 30.5,-9.906 30.297,-9.703L21.203,-1.406C20.906,-1.094 20.797,-0.703 20.797,-0.297L20.797,7.906L9.203,7.906C9.203,7.906 20.406,-4.094 32.203,-19.906C32.609,-20.406 32.703,-20.906 32.703,-21.297C32.703,-21.797 32.5,-22.203 32.406,-22.297L30.203,-24.5C29.906,-24.703 29.609,-24.906 29.203,-24.906L14.297,-24.906C13.594,-24.906 13.094,-24.297 13,-23.703C13,-23.703 12.5,-16.297 9.906,-8.203C7.297,-0.094 4.297,4.906 1.703,8.594C1.703,8.594 1.406,9.094 1.406,9.703C1.406,9.906 1.406,10.094 1.5,10.297C1.797,11 2.5,12.094 2.5,12.094C2.5,12.094 2.703,12.703 3.594,12.703L20.797,12.703" style="fill-rule:nonzero;"/>
    </g>
    <g transform="matrix(0.198425,0,0,0.198425,75.2331,92.4798)">
        <path d="M20.797,12.703L20.797,20.094L12.5,20.094C11.797,20.094 11.094,20.703 11.094,21.5L11.094,23.406C11.094,24.203 11.797,24.797 12.5,24.797L42.797,24.797C43.609,24.797 44.203,24.203 44.203,23.406L44.203,21.5C44.203,20.703 43.609,20.094 42.797,20.094L33.797,20.094L33.797,12.703L42.797,12.703C43.609,12.703 44.203,12 44.203,11.203L44.203,9.297C44.203,8.594 43.609,7.906 42.797,7.906L33.797,7.906L33.797,-8C33.797,-8.594 33.5,-9.094 33.109,-9.297L31.906,-9.906C31.703,-10 31.609,-10 31.406,-10L31.203,-10C30.906,-10 30.5,-9.906 30.297,-9.703L21.203,-1.406C20.906,-1.094 20.797,-0.703 20.797,-0.297L20.797,7.906L9.203,7.906C9.203,7.906 20.406,-4.094 32.203,-19.906C32.609,-20.406 32.703,-20.906 32.703,-21.297C32.703,-21.797 32.5,-22.203 32.406,-22.297L30.203,-24.5C29.906,-24.703 29.609,-24.906 29.203,-24.906L14.297,-24.906C13.594,-24.906 13.094,-24.297 13,-23.703C13,-23.703 12.5,-16.297 9.906,-8.203C7.297,-0.094 4.297,4.906 1.703,8.594C1.703,8.594 1.406,9.094 1.406,9.703C1.406,9.906 1.406,10.094 1.5,10.297C1.797,11 2.5,12.094 2.5,12.094C2.5,12.094 2.703,12.703 3.594,12.703L20.797,12.703" style="fill-rule:nonzero;"/>
    </g>
    <g transform="matrix(0.198425,0,0,0.198425,75.2331,102.401)">
        <path d="M20.797,12.703L20.797,20.094L12.5,20.094C11.797,20.094 11.094,20.703 11.094,21.5L11.094,23.406C11.094,24.203 11.797,24.797 12.5,24.797L42.797,24.797C43.609,24.797 44.203,24.203 44.203,23.406L44.203,21.5C44.203,20.703 43.609,20.094 42.797,20.094L33.797,20.094L33.797,12.703L42.797,12.703C43.609,12.703 44.203,12 44.203,11.203L44.203,9.297C44.203,8.594 43.609,7.906 42.797,7.906L33.797,7.906L33.797,-8C33.797,-8.594 33.5,-9.094 33.109,-9.297L31.906,-9.906C31.703,-10 31.609,-10 31.406,-10L31.203,-10C30.906,-10 30.5,-9.906 30.297,-9.703L21.203,-1.406C20.906,-1.094 20.797,-0.703 20.797,-0.297L20.797,7.906L9.203,7.906C9.203,7.906 20.406,-4.094 32.203,-19.906C32.609,-20.406 32.703,-20.906 32.703,-21.297C32.703,-21.797 32.5,-22.203 32.406,-22.297L30.203,-24.5C29.906,-24.703 29.609,-24.906 29.203,-24.906L14.297,-24.906C13.594,-24.906 13.094,-24.297 13,-23.703C13,-23.703 12.5,-16.297 9.906,-8.203C7.297,-0.094 4.297,4.906 1.703,8.594C1.703,8.594 1.406,9.094 1.406,9.703C1.406,9.906 1.406,10.094 1.5,10.297C1.797,11 2.5,12.094 2.5,12.094C2.5,12.094 2.703,12.703 3.594,12.703L20.797,12.703" style="fill-rule:nonzero;"/>
    </g>
    <g transform="matrix(0.198425,0,0,0.198425,75.2331,159.982)">
        <path d="M20.797,12.703L20.797,20.094L12.5,20.094C11.797,20.094 11.094,20.703 11.094,21.5L11.094,23.406C11.094,24.203 11.797,24.797 12.5,24.797L42.797,24.797C43.609,24.797 44.203,24.203 44.203,23.406L44.203,21.5C44.203,20.703 43.609,20.094 42.797,20.094L33.797,20.094L33.797,12.703L42.797,12.703C43.609,12.703 44.203,12 44.203,11.203L44.203,9.297C44.203,8.594 43.609,7.906 42.797,7.906L33.797,7.906L33.797,-8C33.797,-8.594 33.5,-9.094 33.109,-9.297L31.906,-9.906C31.703,-10 31.609,-10 31.406,-10L31.203,-10C30.906,-10 30.5,-9.906 30.297,-9.703L21.203,-1.406C20.906,-1.094 20.797,-0.703 20.797,-0.297L20.797,7.906L9.203,7.906C9.203,7.906 20.406,-4.094 32.203,-19.906C32.609,-20.406 32.703,-20.906 32.703,-21.297C32.703,-21.797 32.5,-22.203 32.406,-22.297L30.203,-24.5C29.906,-24.703 29.609,-24.906 29.203,-24.906L14.297,-24.906C13.594,-24.906 13.094,-24.297 13,-23.703C13,-23.703 12.5,-16.297 9.906,-8.203C7.297,-0.094 4.297,4.906 1.703,8.594C1.703,8.594 1.406,9.094 1.406,9.703C1.406,9.906 1.406,10.094 1.5,10.297C1.797,11 2.5,12.094 2.5,12.094C2.5,12.094 2.703,12.703 3.594,12.703L20.797,12.703" style="fill-rule:nonzero;"/>
    </g>
    <g transform="matrix(0.198425,0,0,0.198425,75.2331,169.903)">
        <path d="M20.797,12.703L20.797,20.094L12.5,20.094C11.797,20.094 11.094,20.703 11.094,21.5L11.094,23.406C11.094,24.203 11.797,24.797 12.5,24.797L42.797,24.797C43.609,24.797 44.203,24.203 44.203,23.406L44.203,21.5C44.203,20.703 43.609,20.094 42.797,20.094L33.797,20.094L33.797,12.703L42.797,12.703C43.609,12.703 44.203,12 44.203,11.203L44.203,9.297C44.203,8.594 43.609,7.906 42.797,7.906L33.797,7.906L33.797,-8C33.797,-8.594 33.5,-9.094 33.109,-9.297L31.906,-9.906C31.703,-10 31.609,-10 31.406,-10L31.203,-10C30.906,-10 30.5,-9.906 30.297,-9.703L21.203,-1.406C20.906,-1.094 20.797,-0.703 20.797,-0.297L20.797,7.906L9.203,7.906C9.203,7.906 20.406,-4.094 32.203,-19.906C32.609,-20.406 32.703,-20.906 32.703,-21.297C32.703,-21.797 32.5,-22.203 32.406,-22.297L30.203,-24.5C29.906,-24.703 29.609,-24.906 29.203,-24.906L14.297,-24.906C13.594,-24.906 13.094,-24.297 13,-23.703C13,-23.703 12.5,-16.297 9.906,-8.203C7.297,-0.094 4.297,4.906 1.703,8.594C1.703,8.594 1.406,9.094 1.406,9.703C1.406,9.906 1.406,10.094 1.5,10.297C1.797,11 2.5,12.094 2.5,12.094C2.5,12.094 2.703,12.703 3.594,12.703L20.797,12.703" style="fill-rule:nonzero;"/>
    </g>
    <g transform="matrix(0.198425,0,0,0.198425,447.289,29.9386)">
        <path d="M0,-1C0,0.406 0,0.406 1.406,0.406L31.109,0.406C32.5,0.406 32.5,0.406 32.5,-1L32.5,-11.797C32.5,-13.203 32.5,-13.203 31.109,-13.203L1.406,-13.203C0,-13.203 0,-13.203 0,-11.797L0,-1" style="fill-rule:nonzero;"/>
    </g>
    <g transform="matrix(0.198425,0,0,0.198425,93.9223,29.9386)">
        <path d="M26.703,-20.297C26.609,-20.297 26.406,-20.406 26.297,-20.406C25.703,-20.406 25.203,-20.094 25,-19.594C24.594,-19 21.5,-13.094 17,-9.797C15.703,-8.797 14.094,-8.094 12.5,-7.797C13.594,-9.094 14.297,-10.703 14.297,-12.594C14.297,-16.5 11.094,-19.703 7.203,-19.703C3.203,-19.703 0,-16.5 0,-12.594C0,-9.5 1.906,-7 4.5,-5.906C6,-5.203 8,-4.703 10,-4.703C12.906,-4.703 16,-5.594 18.703,-7.594C19.906,-8.5 21.094,-9.703 22.203,-10.906L10.797,24.703L13.5,25.5L27.5,-18.594C27.609,-18.703 27.609,-18.906 27.609,-19.094C27.609,-19.594 27.297,-20 26.703,-20.297" style="fill-rule:nonzero;"/>
    </g>
    <g transform="matrix(0.198425,0,0,0.198425,93.9223,97.4404)">
        <path d="M0,-1C0,0.406 0,0.406 1.406,0.406L31.109,0.406C32.5,0.406 32.5,0.406 32.5,-1L32.5,-11.797C32.5,-13.203 32.5,-13.203 31.109,-13.203L1.406,-13.203C0,-13.203 0,-13.203 0,-11.797L0,-1" style="fill-rule:nonzero;"/>
    </g>
    <g transform="matrix(0.2,0,0,0.2,0.000834515,0)">
        <path d="M1070.99,149.688L1223.82,143.487L1223.82,155.899L1070.99,162.1L1070.99,149.688" style="fill:rgb(238,102,119);"/>
    </g>
    <g transform="matrix(0.2,0,0,0.2,0.000834515,0)">
        <path d="M770.299,193.099L923.125,193.099L923.125,205.5L770.299,205.5L770.299,193.099" style="fill:rgb(238,102,119);"/>
    </g>
    <g transform="matrix(0.2,0,0,0.2,0.000834515,0)">
        <path d="M1371.68,137.286L1524.51,143.487L1524.51,155.899L1371.68,149.698L1371.68,137.286" style="fill:rgb(238,102,119);"/>
    </g>
    <g transform="matrix(0.2,0,0,0.2,0.000834515,0)">
        <path d="M1965.5,431.39L2118.32,437.591L2118.32,450.002L1965.5,443.802L1965.5,431.39" style="fill:rgb(102,204,238);"/>
    </g>
    <g transform="matrix(1.11968,0,0,0.954698,-39.2139,1.08065)">
        <rect x="115.499" y="4.946" width="212.161" height="50.562" style="fill:none;stroke:rgb(238,102,119);stroke-width:1.92px;stroke-linecap:round;stroke-linejoin:miter;stroke-miterlimit:1.5;"/>
    </g>
    <g transform="matrix(1.98533,0,0,0.954698,-139.196,136.084)">
        <rect x="115.499" y="4.946" width="212.161" height="50.562" style="fill:none;stroke:rgb(170,51,119);stroke-width:1.28px;stroke-linecap:round;stroke-linejoin:miter;stroke-miterlimit:1.5;"/>
    </g>
    <g transform="matrix(0.817757,0,0,0.954698,243.371,1.08065)">
        <rect x="115.499" y="4.946" width="212.161" height="50.562" style="fill:none;stroke:rgb(34,136,51);stroke-width:2.25px;stroke-linecap:round;stroke-linejoin:miter;stroke-miterlimit:1.5;"/>
    </g>
    <g transform="matrix(1.11968,0,0,0.954698,-39.2139,68.5825)">
        <rect x="115.499" y="4.946" width="212.161" height="50.562" style="fill:none;stroke:rgb(204,187,68);stroke-width:1.92px;stroke-linecap:round;stroke-linejoin:miter;stroke-miterlimit:1.5;"/>
    </g>
    <g transform="matrix(0.817757,0,0,0.954698,243.371,68.5825)">
        <rect x="115.499" y="4.946" width="212.161" height="50.562" style="fill:none;stroke:rgb(102,204,238);stroke-width:2.25px;stroke-linecap:round;stroke-linejoin:miter;stroke-miterlimit:1.5;"/>
    </g>
</svg>
