<?xml version="1.0" encoding="UTF-8" standalone="no"?>
<svg width="180.058mm" height="62.3615mm" viewBox="0 0 2552 883.864"
 xmlns="http://www.w3.org/2000/svg" xmlns:xlink="http://www.w3.org/1999/xlink" version="1.2" baseProfile="full">
<title>toy-score.musicxml</title>
<desc>Generated by MuseScore Studio 4.5.1</desc>
<path class="" fill="#ffffff" fill-rule="evenodd" d="M0,0 L2552,0 L2552,883.864 L0,883.864 L0,0 "/>
<polyline class="StaffLines" fill="none" stroke="#000000" stroke-width="2.73" stroke-linejoin="bevel" points="213.803,50.0869 2552,50.0869" />
<polyline class="StaffLines" fill="none" stroke="#000000" stroke-width="2.73" stroke-linejoin="bevel" points="213.803,74.89 2552,74.89" />
<polyline class="StaffLines" fill="none" stroke="#000000" stroke-width="2.73" stroke-linejoin="bevel" points="213.803,99.6932 2552,99.6932" />
<polyline class="StaffLines" fill="none" stroke="#000000" stroke-width="2.73" stroke-linejoin="bevel" points="213.803,124.496 2552,124.496" />
<polyline class="StaffLines" fill="none" stroke="#000000" stroke-width="2.73" stroke-linejoin="bevel" points="213.803,149.299 2552,149.299" />
<polyline class="StaffLines" fill="none" stroke="#000000" stroke-width="2.73" stroke-linejoin="bevel" points="213.803,387.596 2552,387.596" />
<polyline class="StaffLines" fill="none" stroke="#000000" stroke-width="2.73" stroke-linejoin="bevel" points="213.803,412.399 2552,412.399" />
<polyline class="StaffLines" fill="none" stroke="#000000" stroke-width="2.73" stroke-linejoin="bevel" points="213.803,437.202 2552,437.202" />
<polyline class="StaffLines" fill="none" stroke="#000000" stroke-width="2.73" stroke-linejoin="bevel" points="213.803,462.005 2552,462.005" />
<polyline class="StaffLines" fill="none" stroke="#000000" stroke-width="2.73" stroke-linejoin="bevel" points="213.803,486.808 2552,486.808" />
<polyline class="StaffLines" fill="none" stroke="#000000" stroke-width="2.73" stroke-linejoin="bevel" points="213.803,725.105 2552,725.105" />
<polyline class="StaffLines" fill="none" stroke="#000000" stroke-width="2.73" stroke-linejoin="bevel" points="213.803,749.908 2552,749.908" />
<polyline class="StaffLines" fill="none" stroke="#000000" stroke-width="2.73" stroke-linejoin="bevel" points="213.803,774.711 2552,774.711" />
<polyline class="StaffLines" fill="none" stroke="#000000" stroke-width="2.73" stroke-linejoin="bevel" points="213.803,799.514 2552,799.514" />
<polyline class="StaffLines" fill="none" stroke="#000000" stroke-width="2.73" stroke-linejoin="bevel" points="213.803,824.317 2552,824.317" />
<path class="InstrumentName" d="M97.2031,81.5838 L67.4531,81.5838 L67.4531,83.9432 L68.3438,83.9432 C71.2031,83.99 72.1563,84.1463 72.5469,84.6463 C72.8438,85.0838 72.8438,85.1932 72.8438,87.74 L72.8438,111.537 C72.8438,114.099 72.8438,114.193 72.5469,114.646 C72.1563,115.146 71.2031,115.349 68.3438,115.349 L67.4531,115.349 L67.4531,117.693 L84.5938,117.693 L84.5938,115.349 L82.9531,115.349 C80.0938,115.349 79.1563,115.146 78.75,114.646 C78.4531,114.193 78.4531,114.037 78.4531,111.537 L78.4531,100.193 L79.4531,100.193 C84.5938,99.99 86.4531,101.849 86.6563,107.396 L89,107.396 L89,90.99 L86.6563,90.99 C86.3438,95.8963 84.4063,97.7869 79.6563,97.8494 L78.4531,97.8494 L78.4531,86.4432 C78.4063,84.3338 78.9063,83.99 81.5938,83.9432 L83.9063,83.9432 C92.1094,83.8963 94.1563,85.74 95.7031,94.3494 L97.9063,94.3494 L97.2031,81.5838 M109.203,80.8338 L99.9531,81.3963 L99.9531,83.5369 L102.406,83.5369 C104.25,83.5838 104.5,83.8963 104.5,86.0369 L104.5,113.896 C104.453,114.646 104.406,114.943 104.203,115.193 C103.844,115.646 102.906,115.849 100.75,115.896 L100.406,115.896 L100.406,117.693 L113.344,117.693 L113.344,115.896 L113,115.896 C109.656,115.787 109.203,115.537 109.203,113.74 L109.203,80.8338 M135.594,118.037 L144.703,117.693 L144.703,115.537 L143.453,115.537 C140.547,115.443 140.297,115.146 140.297,111.896 L140.297,94.3963 L130.906,94.9432 L130.906,97.0994 L133.453,97.0994 C135.344,97.1463 135.594,97.4432 135.594,99.5994 L135.594,105.74 C135.594,110.099 134.547,115.396 129.047,115.396 C127.5,115.396 126.203,114.849 125.547,113.849 C124.906,112.896 124.797,112.396 124.797,109.646 L124.797,94.3963 L116.047,94.9432 L116.047,97.0994 L117.953,97.0994 C119.844,97.1463 120.094,97.4432 120.094,99.5994 L120.094,110.396 C120.094,112.943 120.297,114.099 121.047,115.24 C122.406,117.287 124.797,118.443 127.797,118.443 C131.094,118.443 133.406,117.099 135.594,113.896 L135.594,118.037 M155.703,94.3963 L155.703,84.49 L153.656,84.49 C153.156,90.99 150.953,94.2869 146.906,94.5994 L146.906,96.5369 L151,96.5369 L151,109.287 C151,112.787 151.094,114.037 151.594,115.193 C152.406,117.287 154.406,118.443 157.297,118.443 C161.797,118.443 164.703,115.037 164.703,109.74 C164.703,109.443 164.703,109.099 164.656,108.599 L162.547,108.599 C162.406,113.099 161.094,115.396 158.656,115.396 C157.5,115.396 156.5,114.787 156.156,113.943 C155.844,113.24 155.703,111.99 155.703,110.193 L155.703,96.5369 L163.047,96.5369 L163.047,94.3963 L155.703,94.3963 M188.25,106.443 C188.297,98.9432 184.047,93.6463 177.953,93.6463 C171.547,93.6463 166.75,99.1932 166.75,106.693 C166.75,113.74 171.297,118.443 178.047,118.443 C182.844,118.443 186.203,116.099 188.25,111.349 L186.5,110.396 C184.453,114.24 182.344,115.74 179,115.74 C176.453,115.74 174.594,114.693 173.297,112.443 C172.406,110.943 172,109.193 172.047,106.443 L188.25,106.443 M172.094,104.287 C172.094,100.787 173.703,95.7869 177.906,95.7869 C180.906,95.7869 182.906,98.4432 182.906,102.49 C182.906,103.896 182.453,104.287 180.844,104.287 L172.094,104.287 "/>
<path class="InstrumentName" d="M69.6563,447.452 L60.5,424.249 C60.25,423.593 60.0938,422.952 60.0938,422.702 C60.0938,421.796 60.9531,421.452 63.2031,421.452 L65.2031,421.452 L65.2031,419.093 L49.5938,419.093 L49.5938,421.452 L50.5938,421.452 C52.9063,421.499 53.6563,422.046 54.4531,424.249 L67.0938,455.952 L69.0938,455.952 L80.6094,426.343 C82.1094,422.452 83.1563,421.546 86.0469,421.452 L86.5469,421.452 L86.5469,419.093 L73,419.093 L73,421.452 L73.9531,421.452 C76.5,421.452 78,422.452 78,424.046 C78,424.749 77.75,425.843 77.4063,426.843 L69.6563,447.452 M93.9531,419.452 C92.3438,419.452 91.0469,420.749 91.0469,422.343 C91.0469,423.952 92.3438,425.249 93.9063,425.249 C95.5469,425.249 96.8438,423.952 96.8438,422.343 C96.8438,420.749 95.5469,419.452 93.9531,419.452 M96.2969,431.905 L86.9063,432.452 L86.9063,434.608 L89.4531,434.608 C91.3438,434.655 91.5938,434.952 91.5938,437.108 L91.5938,451.405 C91.5469,452.155 91.5,452.452 91.2969,452.702 C90.9531,453.155 90,453.358 87.8438,453.405 L87.5,453.405 L87.5,455.202 L100.453,455.202 L100.453,453.405 L100.094,453.405 C96.75,453.296 96.2969,453.046 96.2969,451.249 L96.2969,431.905 M114.594,431.155 C108.453,431.155 103.703,436.608 103.703,443.608 C103.703,450.452 108.5,455.952 114.5,455.952 C120.5,455.952 125.297,450.452 125.297,443.546 C125.297,436.702 120.5,431.155 114.594,431.155 M114.594,433.296 C118.094,433.296 120.047,436.952 120.047,443.546 C120.047,450.202 118.094,453.796 114.5,453.796 C110.906,453.796 108.953,450.202 108.953,443.608 C108.953,436.796 110.844,433.296 114.594,433.296 M137.203,418.343 L127.953,418.905 L127.953,421.046 L130.406,421.046 C132.25,421.093 132.5,421.405 132.5,423.546 L132.5,451.405 C132.453,452.155 132.406,452.452 132.203,452.702 C131.844,453.155 130.906,453.358 128.75,453.405 L128.406,453.405 L128.406,455.202 L141.344,455.202 L141.344,453.405 L141,453.405 C137.656,453.296 137.203,453.046 137.203,451.249 L137.203,418.343 M150.953,419.452 C149.344,419.452 148.047,420.749 148.047,422.343 C148.047,423.952 149.344,425.249 150.906,425.249 C152.547,425.249 153.844,423.952 153.844,422.343 C153.844,420.749 152.547,419.452 150.953,419.452 M153.297,431.905 L143.906,432.452 L143.906,434.608 L146.453,434.608 C148.344,434.655 148.594,434.952 148.594,437.108 L148.594,451.405 C148.547,452.155 148.5,452.452 148.297,452.702 C147.953,453.155 147,453.358 144.844,453.405 L144.5,453.405 L144.5,455.202 L157.453,455.202 L157.453,453.405 L157.094,453.405 C153.75,453.296 153.297,453.046 153.297,451.249 L153.297,431.905 M169,431.905 L160.344,432.452 L160.344,434.608 L162.156,434.608 C164.047,434.655 164.297,434.952 164.297,437.108 L164.297,451.405 C164.25,452.155 164.203,452.452 164,452.702 C163.656,453.155 162.703,453.358 160.547,453.405 L160.344,453.405 L160.344,455.202 L173,455.202 L173,453.405 L172.797,453.405 C169.453,453.296 169,453.046 169,451.249 L169,443.858 C169,441.405 169.344,439.155 169.906,437.999 C170.953,435.749 173.203,434.202 175.344,434.202 C176.656,434.202 178.156,434.905 178.906,435.952 C179.656,437.046 180,438.546 180,440.952 L180,451.405 C179.953,452.155 179.906,452.452 179.703,452.702 C179.344,453.155 178.344,453.358 176.203,453.405 L176,453.405 L176,455.202 L188.656,455.202 L188.656,453.405 L188.453,453.405 C185.156,453.296 184.703,453.046 184.703,451.249 L184.703,441.202 C184.703,437.608 184.547,436.702 183.656,434.999 C182.406,432.608 179.906,431.155 176.906,431.155 C173.656,431.155 171.203,432.655 169,435.952 L169,431.905 "/>
<path class="InstrumentName" d="M0.5,756.102 L0.5,758.461 L1.40625,758.461 C4.25,758.508 5.20313,758.664 5.59375,759.164 C5.90625,759.602 5.90625,759.711 5.90625,762.258 L5.90625,786.055 C5.90625,788.617 5.90625,788.711 5.59375,789.164 C5.20313,789.664 4.25,789.867 1.40625,789.867 L0.5,789.867 L0.5,792.211 L18.6563,792.211 C27.2969,792.211 32.5,788.555 32.5,782.414 C32.5,777.414 29.3594,774.555 22.5,773.367 C24.9063,772.867 26,772.414 27.2969,771.461 C29.3594,769.914 30.6094,767.461 30.6094,764.961 C30.6094,761.711 28.6094,758.555 25.7031,757.305 C23.9063,756.508 21.4063,756.102 18.4531,756.102 L0.5,756.102 M11.5,772.367 L11.5,760.961 C11.5,759.008 12.1563,758.508 14.7969,758.461 L16.7969,758.461 C21.7031,758.461 24.7969,760.055 24.7969,765.508 C24.7969,770.461 22.4063,772.367 15.9531,772.367 L11.5,772.367 M11.5,774.711 L15.9063,774.711 C23.5469,774.711 26.3594,776.758 26.3594,782.258 C26.3594,788.961 22.1563,789.867 16.5,789.867 L14.4063,789.867 C11.9063,789.867 11.4063,789.367 11.5,786.711 L11.5,774.711 M57.5938,776.117 C57.5938,772.961 57.0469,771.367 55.5938,770.164 C53.9531,768.805 51.5,768.164 48.2969,768.164 C42.6563,768.164 38.5469,770.805 38.5469,774.461 C38.5469,776.305 39.7031,777.508 41.4531,777.508 C43.0469,777.508 44.1563,776.461 44.1563,774.961 C44.1563,774.305 43.9063,773.617 43.4063,772.914 C43.0938,772.555 43.0469,772.461 43.0469,772.211 C43.0469,771.211 45.0469,770.305 47.4531,770.305 C49.0469,770.305 50.7969,770.805 51.5938,771.555 C52.5469,772.367 52.9063,773.555 52.9063,775.805 L52.9063,777.758 C47.7031,778.664 46.0469,779.055 43.5938,780.008 C39.25,781.617 37.2031,783.914 37.2031,787.117 C37.2031,790.711 40,792.961 44.4531,792.961 C47.9063,792.961 51,791.555 53.1563,789.008 C53.9531,791.555 55.2031,792.555 57.5469,792.555 C59.7969,792.555 62.1563,791.117 62.1563,789.664 C62.1563,789.305 61.9531,789.055 61.6563,789.055 C61.4531,789.055 61.25,789.117 60.9063,789.258 C60.2031,789.555 59.9063,789.617 59.5,789.617 C58.0938,789.617 57.5938,788.711 57.5938,786.164 L57.5938,776.117 M52.9063,782.211 C52.9063,785.211 52.75,785.914 51.9063,787.211 C50.6563,789.055 48.4063,790.305 46.2031,790.305 C43.9063,790.305 42.25,788.664 42.25,786.414 C42.25,784.305 43.2969,782.805 45.5,781.758 C47.0469,781.055 49,780.555 52.9063,779.914 L52.9063,782.211 M82.5,768.367 L80.75,768.367 L79.2969,770.164 C77.5,768.758 75.7031,768.164 73.2031,768.164 C68.7969,768.164 65.9063,771.008 65.9063,775.414 C65.9063,780.117 68.9531,781.305 72.9531,782.258 L75.5938,782.867 C79.5469,783.805 80.9531,784.805 80.9531,786.805 C80.9531,789.164 78.9063,790.805 76,790.805 C71.75,790.805 68.75,788.117 67.5469,783.117 L65.5469,783.117 L65.5469,792.555 L67.2969,792.555 L69.0469,790.508 C71.0938,792.164 73.3438,792.961 75.9063,792.961 C80.7969,792.961 84.0469,789.914 84.0469,785.258 C84.0469,783.055 83.3438,781.367 81.9531,780.211 C80.75,779.164 79.75,778.758 76.7031,778.117 L74.2031,777.555 C71.4531,776.961 71.4531,776.961 70.5469,776.461 C69.4531,775.961 68.7969,774.914 68.7969,773.805 C68.7969,771.758 70.7031,770.367 73.4531,770.367 C77.5469,770.367 79.5469,773.258 80.75,776.758 L82.5,776.758 L82.5,768.367 M105.5,768.367 L103.75,768.367 L102.297,770.164 C100.5,768.758 98.7031,768.164 96.2031,768.164 C91.7969,768.164 88.9063,771.008 88.9063,775.414 C88.9063,780.117 91.9531,781.305 95.9531,782.258 L98.5938,782.867 C102.547,783.805 103.953,784.805 103.953,786.805 C103.953,789.164 101.906,790.805 99,790.805 C94.75,790.805 91.75,788.117 90.5469,783.117 L88.5469,783.117 L88.5469,792.555 L90.2969,792.555 L92.0469,790.508 C94.0938,792.164 96.3438,792.961 98.9063,792.961 C103.797,792.961 107.047,789.914 107.047,785.258 C107.047,783.055 106.344,781.367 104.953,780.211 C103.75,779.164 102.75,778.758 99.7031,778.117 L97.2031,777.555 C94.4531,776.961 94.4531,776.961 93.5469,776.461 C92.4531,775.961 91.7969,774.914 91.7969,773.805 C91.7969,771.758 93.7031,770.367 96.4531,770.367 C100.547,770.367 102.547,773.258 103.75,776.758 L105.5,776.758 L105.5,768.367 M121.594,768.164 C115.453,768.164 110.703,773.617 110.703,780.617 C110.703,787.461 115.5,792.961 121.5,792.961 C127.5,792.961 132.297,787.461 132.297,780.555 C132.297,773.711 127.5,768.164 121.594,768.164 M121.594,770.305 C125.094,770.305 127.047,773.961 127.047,780.555 C127.047,787.211 125.094,790.805 121.5,790.805 C117.906,790.805 115.953,787.211 115.953,780.617 C115.953,773.805 117.844,770.305 121.594,770.305 M146.594,768.164 C140.453,768.164 135.703,773.617 135.703,780.617 C135.703,787.461 140.5,792.961 146.5,792.961 C152.5,792.961 157.297,787.461 157.297,780.555 C157.297,773.711 152.5,768.164 146.594,768.164 M146.594,770.305 C150.094,770.305 152.047,773.961 152.047,780.555 C152.047,787.211 150.094,790.805 146.5,790.805 C142.906,790.805 140.953,787.211 140.953,780.617 C140.953,773.805 142.844,770.305 146.594,770.305 M169,768.914 L160.344,769.461 L160.344,771.617 L162.156,771.617 C164.047,771.664 164.297,771.961 164.297,774.117 L164.297,788.414 C164.25,789.164 164.203,789.461 164,789.711 C163.656,790.164 162.703,790.367 160.547,790.414 L160.344,790.414 L160.344,792.211 L173,792.211 L173,790.414 L172.797,790.414 C169.453,790.305 169,790.055 169,788.258 L169,780.867 C169,778.414 169.344,776.164 169.906,775.008 C170.953,772.758 173.203,771.211 175.344,771.211 C176.656,771.211 178.156,771.914 178.906,772.961 C179.656,774.055 180,775.555 180,777.961 L180,788.414 C179.953,789.164 179.906,789.461 179.703,789.711 C179.344,790.164 178.344,790.367 176.203,790.414 L176,790.414 L176,792.211 L188.656,792.211 L188.656,790.414 L188.453,790.414 C185.156,790.305 184.703,790.055 184.703,788.258 L184.703,778.211 C184.703,774.617 184.547,773.711 183.656,772.008 C182.406,769.617 179.906,768.164 176.906,768.164 C173.656,768.164 171.203,769.664 169,772.961 L169,768.914 "/>
<path class="TieSegment" stroke="#000000" stroke-width="1.24" stroke-linecap="round" stroke-linejoin="round" fill-rule="evenodd" d="M438.202,842.765 C685.334,888.402 1426.73,888.402 1673.86,842.765 C1426.73,896.339 685.334,896.339 438.202,842.765"/>
<polyline class="BarLine" fill="none" stroke="#000000" stroke-width="4.46" stroke-linejoin="bevel" points="1624.61,48.7227 1624.61,150.664" />
<polyline class="BarLine" fill="none" stroke="#000000" stroke-width="4.46" stroke-linejoin="bevel" points="216.035,48.7227 216.035,387.596" />
<polyline class="BarLine" fill="none" stroke="#000000" stroke-width="4.46" stroke-linejoin="bevel" points="2526.95,48.7227 2526.95,150.664" />
<polyline class="BarLine" fill="none" stroke="#000000" stroke-width="13.64" stroke-linejoin="bevel" points="2545.18,48.7227 2545.18,150.664" />
<polyline class="BarLine" fill="none" stroke="#000000" stroke-width="4.46" stroke-linejoin="bevel" points="1624.61,386.232 1624.61,488.172" />
<polyline class="BarLine" fill="none" stroke="#000000" stroke-width="4.46" stroke-linejoin="bevel" points="216.035,386.232 216.035,725.105" />
<polyline class="BarLine" fill="none" stroke="#000000" stroke-width="4.46" stroke-linejoin="bevel" points="2526.95,386.232 2526.95,488.172" />
<polyline class="BarLine" fill="none" stroke="#000000" stroke-width="13.64" stroke-linejoin="bevel" points="2545.18,386.232 2545.18,488.172" />
<polyline class="BarLine" fill="none" stroke="#000000" stroke-width="4.46" stroke-linejoin="bevel" points="1624.61,723.74 1624.61,825.681" />
<polyline class="BarLine" fill="none" stroke="#000000" stroke-width="4.46" stroke-linejoin="bevel" points="216.035,723.74 216.035,825.681" />
<polyline class="BarLine" fill="none" stroke="#000000" stroke-width="4.46" stroke-linejoin="bevel" points="2526.95,723.74 2526.95,825.681" />
<polyline class="BarLine" fill="none" stroke="#000000" stroke-width="13.64" stroke-linejoin="bevel" points="2545.18,723.74 2545.18,825.681" />
<polyline class="LedgerLine" fill="none" stroke="#000000" stroke-width="3.97" stroke-linejoin="bevel" points="1163.15,25.2837 1211.75,25.2837" />
<polyline class="LedgerLine" fill="none" stroke="#000000" stroke-width="3.97" stroke-linejoin="bevel" points="1313.5,25.2837 1362.1,25.2837" />
<polyline class="LedgerLine" fill="none" stroke="#000000" stroke-width="3.97" stroke-linejoin="bevel" points="1463.84,25.2837 1512.44,25.2837" />
<polyline class="Stem" fill="none" stroke="#ee6677" stroke-width="2.48" stroke-linejoin="bevel" points="1322.92,17.0491 1322.92,93.5427" />
<polyline class="Stem" fill="none" stroke="#ee6677" stroke-width="2.48" stroke-linejoin="bevel" points="721.539,79.0569 721.539,149.299" />
<polyline class="Stem" fill="none" stroke="#ee6677" stroke-width="2.48" stroke-linejoin="bevel" points="1473.27,29.4506 1473.27,99.6428" />
<polyline class="Stem" fill="none" stroke="#ee6677" stroke-width="2.48" stroke-linejoin="bevel" points="571.193,79.0569 571.193,161.602" />
<polyline class="Stem" fill="none" stroke="#ee6677" stroke-width="2.48" stroke-linejoin="bevel" points="1172.58,29.4506 1172.58,99.7435" />
<polyline class="Stem" fill="none" stroke="#228833" stroke-width="2.48" stroke-linejoin="bevel" points="1661.47,41.8522 1661.47,124.496" />
<polyline class="Stem" fill="none" stroke="#ee6677" stroke-width="2.48" stroke-linejoin="bevel" points="871.885,79.0569 871.885,149.299" />
<polyline class="Stem" fill="none" stroke="#ee6677" stroke-width="2.48" stroke-linejoin="bevel" points="1022.23,41.8522 1022.23,105.844" />
<polyline class="Stem" fill="none" stroke="#ccbb44" stroke-width="2.48" stroke-linejoin="bevel" points="1352.67,445.635 1352.67,368.993" />
<polyline class="Stem" fill="none" stroke="#ccbb44" stroke-width="2.48" stroke-linejoin="bevel" points="1022.23,441.369 1022.23,511.611" />
<polyline class="Stem" fill="none" stroke="#66ccee" stroke-width="2.48" stroke-linejoin="bevel" points="1691.22,458.037 1691.22,375.194" />
<polyline class="Stem" fill="none" stroke="#66ccee" stroke-width="2.48" stroke-linejoin="bevel" points="1916.74,458.037 1916.74,387.646" />
<polyline class="Stem" fill="none" stroke="#66ccee" stroke-width="2.48" stroke-linejoin="bevel" points="2067.08,495.241 2067.08,393.746" />
<polyline class="Stem" fill="none" stroke="#66ccee" stroke-width="2.48" stroke-linejoin="bevel" points="2217.43,458.037 2217.43,375.194" />
<path class="Hook" transform="matrix(0.992126,0,0,0.992126,569.953,161.701)" d="M0,-0.09375 C0,0.59375 0.59375,1.20313 1.29688,1.20313 C1.79688,1.20313 2.40625,0.796875 2.5,0.40625 C2.5,0.296875 3.40625,-3.20313 3.5,-3.5 C3.59375,-3.90625 4.5,-7.70313 8.09375,-13.5938 C12,-20.0938 18,-24.7969 23,-31.7969 C27.9063,-38.7969 30.9063,-45.4063 30.9063,-54.2031 C30.9063,-63.2969 28.7969,-70.9063 23.5,-80.6094 C23.2031,-81.3125 22.5938,-81.7031 22,-81.7031 C21.7969,-81.7031 21.5938,-81.7031 21.5,-81.6094 C21,-81.4063 20.7969,-81 20.7969,-80.4063 C20.7969,-80.1094 20.9063,-79.6094 21.0938,-79.2031 C25.0938,-69.9063 26.7031,-64.6094 26.7031,-57.4063 C26.7031,-49.1094 23.7969,-44.7969 22,-41.7031 C15.5,-30.6094 5,-25.2031 0.796875,-23.7969 C0.09375,-23.5 0,-23 0,-22.7031 L0,-0.09375 "/>
<path class="Note" fill="#ee6677" transform="matrix(0.992126,0,0,0.992126,1472.03,25.2837)" d="M0,4.20313 C0,8.5 3.09375,13.2969 11.2031,13.2969 C21.5938,13.2969 32.5,4.79688 32.5,-4 C32.5,-9.90625 27.5,-13.2031 21.2969,-13.2031 C11.5938,-13.2031 0,-5 0,4.20313"/>
<path class="Note" fill="#ee6677" transform="matrix(0.992126,0,0,0.992126,1171.34,25.2837)" d="M0,4.20313 C0,8.5 3.09375,13.2969 11.2031,13.2969 C21.5938,13.2969 32.5,4.79688 32.5,-4 C32.5,-9.90625 27.5,-13.2031 21.2969,-13.2031 C11.5938,-13.2031 0,-5 0,4.20313"/>
<path class="Note" fill="#ee6677" transform="matrix(0.992126,0,0,0.992126,1020.99,37.6853)" d="M0,4.20313 C0,8.5 3.09375,13.2969 11.2031,13.2969 C21.5938,13.2969 32.5,4.79688 32.5,-4 C32.5,-9.90625 27.5,-13.2031 21.2969,-13.2031 C11.5938,-13.2031 0,-5 0,4.20313"/>
<path class="Note" fill="#ee6677" transform="matrix(0.992126,0,0,0.992126,1321.68,12.8821)" d="M0,4.20313 C0,8.5 3.09375,13.2969 11.2031,13.2969 C21.5938,13.2969 32.5,4.79688 32.5,-4 C32.5,-9.90625 27.5,-13.2031 21.2969,-13.2031 C11.5938,-13.2031 0,-5 0,4.20313"/>
<path class="Note" fill="#ee6677" transform="matrix(0.992126,0,0,0.992126,720.299,74.89)" d="M0,4.20313 C0,8.5 3.09375,13.2969 11.2031,13.2969 C21.5938,13.2969 32.5,4.79688 32.5,-4 C32.5,-9.90625 27.5,-13.2031 21.2969,-13.2031 C11.5938,-13.2031 0,-5 0,4.20313"/>
<path class="Note" fill="#ee6677" transform="matrix(0.992126,0,0,0.992126,870.645,74.89)" d="M0,4.20313 C0,8.5 3.09375,13.2969 11.2031,13.2969 C21.5938,13.2969 32.5,4.79688 32.5,-4 C32.5,-9.90625 27.5,-13.2031 21.2969,-13.2031 C11.5938,-13.2031 0,-5 0,4.20313"/>
<path class="Note" fill="#ee6677" transform="matrix(0.992126,0,0,0.992126,569.953,74.89)" d="M0,4.20313 C0,8.5 3.09375,13.2969 11.2031,13.2969 C21.5938,13.2969 32.5,4.79688 32.5,-4 C32.5,-9.90625 27.5,-13.2031 21.2969,-13.2031 C11.5938,-13.2031 0,-5 0,4.20313"/>
<path class="Note" fill="#228833" transform="matrix(0.992126,0,0,0.992126,1660.23,37.6853)" d="M21.2969,-13.2031 C11.5938,-13.2031 0,-5.09375 0,4.20313 C0,8.5 3.09375,13.2969 11.2031,13.2969 C21.5938,13.2969 32.5,4.79688 32.5,-4 C32.5,-9.90625 27.5,-13.2031 21.2969,-13.2031 M18.5938,4.40625 C18.2969,4.59375 11,8.59375 7.5,8.59375 C4.20313,8.59375 3.5,5.90625 3.5,5 C3.5,0.796875 13.5,-4.09375 13.9063,-4.29688 C14.2969,-4.5 21.4063,-8.5 25,-8.5 C27.4063,-8.5 29,-7.09375 29,-4.90625 C29,-0.59375 18.9063,4.20313 18.5938,4.40625"/>
<path class="Note" fill="#ccbb44" transform="matrix(0.992126,0,0,0.992126,1321.68,449.604)" d="M0,4.20313 C0,8.5 3.09375,13.2969 11.2031,13.2969 C21.5938,13.2969 32.5,4.79688 32.5,-4 C32.5,-9.90625 27.5,-13.2031 21.2969,-13.2031 C11.5938,-13.2031 0,-5 0,4.20313"/>
<path class="Note" fill="#66ccee" transform="matrix(0.992126,0,0,0.992126,1660.23,462.005)" d="M0,4.20313 C0,8.5 3.09375,13.2969 11.2031,13.2969 C21.5938,13.2969 32.5,4.79688 32.5,-4 C32.5,-9.90625 27.5,-13.2031 21.2969,-13.2031 C11.5938,-13.2031 0,-5 0,4.20313"/>
<path class="Note" fill="#66ccee" transform="matrix(0.992126,0,0,0.992126,1885.75,462.005)" d="M0,4.20313 C0,8.5 3.09375,13.2969 11.2031,13.2969 C21.5938,13.2969 32.5,4.79688 32.5,-4 C32.5,-9.90625 27.5,-13.2031 21.2969,-13.2031 C11.5938,-13.2031 0,-5 0,4.20313"/>
<path class="Note" fill="#66ccee" transform="matrix(0.992126,0,0,0.992126,2036.1,499.21)" d="M0,4.20313 C0,8.5 3.09375,13.2969 11.2031,13.2969 C21.5938,13.2969 32.5,4.79688 32.5,-4 C32.5,-9.90625 27.5,-13.2031 21.2969,-13.2031 C11.5938,-13.2031 0,-5 0,4.20313"/>
<path class="Note" fill="#ccbb44" transform="matrix(0.992126,0,0,0.992126,1020.99,437.202)" d="M0,4.20313 C0,8.5 3.09375,13.2969 11.2031,13.2969 C21.5938,13.2969 32.5,4.79688 32.5,-4 C32.5,-9.90625 27.5,-13.2031 21.2969,-13.2031 C11.5938,-13.2031 0,-5 0,4.20313"/>
<path class="Note" fill="#66ccee" transform="matrix(0.992126,0,0,0.992126,2186.44,462.005)" d="M21.2969,-13.2031 C11.5938,-13.2031 0,-5.09375 0,4.20313 C0,8.5 3.09375,13.2969 11.2031,13.2969 C21.5938,13.2969 32.5,4.79688 32.5,-4 C32.5,-9.90625 27.5,-13.2031 21.2969,-13.2031 M18.5938,4.40625 C18.2969,4.59375 11,8.59375 7.5,8.59375 C4.20313,8.59375 3.5,5.90625 3.5,5 C3.5,0.796875 13.5,-4.09375 13.9063,-4.29688 C14.2969,-4.5 21.4063,-8.5 25,-8.5 C27.4063,-8.5 29,-7.09375 29,-4.90625 C29,-0.59375 18.9063,4.20313 18.5938,4.40625"/>
<path class="Note" fill="#aa3377" transform="matrix(0.992126,0,0,0.992126,1657.84,824.317)" d="M18.7031,-13.5938 C4.90625,-13.5938 0,-6.59375 0,-0.09375 C0,6.40625 4.90625,13.4063 18.7031,13.4063 C32.5,13.4063 37.2969,6.40625 37.2969,-0.09375 C37.2969,-6.59375 32.5,-13.5938 18.7031,-13.5938 M23.7969,9.59375 C22.5938,10 21,10.2031 19.5,10.2031 C16.7031,10.2031 14.7969,9.40625 13.5,6.90625 C12.2031,4.40625 10.4063,-2 10.2969,-4.70313 C10.0938,-7.40625 11.0938,-9 13.5,-9.79688 C14.7031,-10.2031 16.2969,-10.4063 17.7969,-10.4063 C20.5938,-10.4063 22.4063,-9.79688 23.7969,-7.09375 C25.2031,-4.40625 27,2 27,4.5 C27,7.09375 26.2031,8.90625 23.7969,9.59375"/>
<path class="Note" fill="#aa3377" transform="matrix(0.992126,0,0,0.992126,417.22,824.317)" d="M18.7031,-13.5938 C4.90625,-13.5938 0,-6.59375 0,-0.09375 C0,6.40625 4.90625,13.4063 18.7031,13.4063 C32.5,13.4063 37.2969,6.40625 37.2969,-0.09375 C37.2969,-6.59375 32.5,-13.5938 18.7031,-13.5938 M23.7969,9.59375 C22.5938,10 21,10.2031 19.5,10.2031 C16.7031,10.2031 14.7969,9.40625 13.5,6.90625 C12.2031,4.40625 10.4063,-2 10.2969,-4.70313 C10.0938,-7.40625 11.0938,-9 13.5,-9.79688 C14.7031,-10.2031 16.2969,-10.4063 17.7969,-10.4063 C20.5938,-10.4063 22.4063,-9.79688 23.7969,-7.09375 C25.2031,-4.40625 27,2 27,4.5 C27,7.09375 26.2031,8.90625 23.7969,9.59375"/>
<path class="Clef" transform="matrix(0.992126,0,0,0.992126,236.87,124.496)" d="M56.2031,2.09375 C56.2031,9.20313 53.2969,16.5 46.2031,19.4063 C44.1094,7.40625 41.4063,-8.5 40.7031,-12.9063 C49.7031,-12.9063 56.2031,-6.79688 56.2031,2.09375 M42,20.5938 C40,21 38.1094,21.2031 36.2031,21.2031 C21.9063,21.2031 9.70313,11.2031 9.70313,-3.90625 C9.70313,-16.0938 18.2969,-27 27.1094,-34.6094 C28.7969,-36.1094 30.4063,-37.5 31.9063,-39 C32.7969,-33.6094 33.5,-28.9063 34.2031,-24.7969 C25.0938,-22.0938 18.9063,-12.5 18.9063,-3.09375 C18.9063,3.90625 24.4063,13.5 32.4063,13.5 C33.2031,13.5 34.1094,13.0938 34.1094,12.2031 C34.1094,11.2969 33.1094,10.7969 31.9063,10 C28,7.59375 25.7969,5 25.7969,0.09375 C25.7969,-6 30.2969,-10.9063 36.2031,-12.2969 L42,20.5938 M33.2031,-82.2031 C34.1094,-86.2031 38.7031,-96.7031 43.9063,-96.7031 C45.4063,-96.7031 47.7969,-91.8125 47.7969,-84.9063 C47.7969,-74.5 40.1094,-66.7031 33.2031,-59.9063 C32.6094,-63.9063 32.1094,-67.7969 32.1094,-72 C32.1094,-75.7031 32.4063,-79.1094 33.2031,-82.2031 M12.2031,51.2969 C12.2031,57.9063 17.2969,66.6094 30.7969,66.6094 C35.5,66.6094 39.6094,65.4063 43.2031,63.2031 C48.6094,59.4063 50,52.7969 50,46.5 C50,42.6094 49.4063,38.1094 48.4063,32.4063 C48.1094,30.4063 47.5,27.4063 46.9063,23.5 C56.7031,20.2969 64,10.0938 64,-0.203125 C64,-15.2969 53.2969,-25.5 38.7031,-25.5 C37.7031,-31.5 36.7031,-37.4063 35.7969,-43 C46.4063,-54.1094 53.7031,-66.6094 53.7031,-82.5 C53.7031,-91.6094 50.9063,-99 49.2969,-102.609 C46.9063,-107.703 44,-111.203 42.2031,-111.203 C41.5,-111.203 38.4063,-110 35.1094,-106.109 C28.7031,-98.5 26.9063,-85.7031 26.9063,-77.3125 C26.9063,-71.9063 27.4063,-67 29.1094,-55.7969 C29,-55.7031 23.7969,-50.4063 21.7031,-48.7031 C12.5938,-40.2031 0,-28.1094 0,-8.09375 C0,10.5938 16.2969,25.2969 34.9063,25.2969 C37.7969,25.2969 40.5,25 42.7969,24.5938 C44.7031,34.2031 45.7969,41.2031 45.7969,46.5 C45.7969,56.9063 40.5,62.4063 30.4063,62.4063 C28,62.4063 25.9063,61.9063 25.7031,61.9063 C25.6094,61.7969 25.4063,61.7031 25.4063,61.6094 C25.4063,61.4063 25.6094,61.2969 25.9063,61.2031 C30.6094,60.5 35.2969,56.5 35.2969,50.1094 C35.2969,44.7031 31.2031,39 23.7031,39 C16.7031,39 12.2031,44.7031 12.2031,51.2969"/>
<path class="Clef" transform="matrix(0.992126,0,0,0.992126,236.87,462.005)" d="M56.2031,2.09375 C56.2031,9.20313 53.2969,16.5 46.2031,19.4063 C44.1094,7.40625 41.4063,-8.5 40.7031,-12.9063 C49.7031,-12.9063 56.2031,-6.79688 56.2031,2.09375 M42,20.5938 C40,21 38.1094,21.2031 36.2031,21.2031 C21.9063,21.2031 9.70313,11.2031 9.70313,-3.90625 C9.70313,-16.0938 18.2969,-27 27.1094,-34.6094 C28.7969,-36.1094 30.4063,-37.5 31.9063,-39 C32.7969,-33.6094 33.5,-28.9063 34.2031,-24.7969 C25.0938,-22.0938 18.9063,-12.5 18.9063,-3.09375 C18.9063,3.90625 24.4063,13.5 32.4063,13.5 C33.2031,13.5 34.1094,13.0938 34.1094,12.2031 C34.1094,11.2969 33.1094,10.7969 31.9063,10 C28,7.59375 25.7969,5 25.7969,0.09375 C25.7969,-6 30.2969,-10.9063 36.2031,-12.2969 L42,20.5938 M33.2031,-82.2031 C34.1094,-86.2031 38.7031,-96.7031 43.9063,-96.7031 C45.4063,-96.7031 47.7969,-91.8125 47.7969,-84.9063 C47.7969,-74.5 40.1094,-66.7031 33.2031,-59.9063 C32.6094,-63.9063 32.1094,-67.7969 32.1094,-72 C32.1094,-75.7031 32.4063,-79.1094 33.2031,-82.2031 M12.2031,51.2969 C12.2031,57.9063 17.2969,66.6094 30.7969,66.6094 C35.5,66.6094 39.6094,65.4063 43.2031,63.2031 C48.6094,59.4063 50,52.7969 50,46.5 C50,42.6094 49.4063,38.1094 48.4063,32.4063 C48.1094,30.4063 47.5,27.4063 46.9063,23.5 C56.7031,20.2969 64,10.0938 64,-0.203125 C64,-15.2969 53.2969,-25.5 38.7031,-25.5 C37.7031,-31.5 36.7031,-37.4063 35.7969,-43 C46.4063,-54.1094 53.7031,-66.6094 53.7031,-82.5 C53.7031,-91.6094 50.9063,-99 49.2969,-102.609 C46.9063,-107.703 44,-111.203 42.2031,-111.203 C41.5,-111.203 38.4063,-110 35.1094,-106.109 C28.7031,-98.5 26.9063,-85.7031 26.9063,-77.3125 C26.9063,-71.9063 27.4063,-67 29.1094,-55.7969 C29,-55.7031 23.7969,-50.4063 21.7031,-48.7031 C12.5938,-40.2031 0,-28.1094 0,-8.09375 C0,10.5938 16.2969,25.2969 34.9063,25.2969 C37.7969,25.2969 40.5,25 42.7969,24.5938 C44.7031,34.2031 45.7969,41.2031 45.7969,46.5 C45.7969,56.9063 40.5,62.4063 30.4063,62.4063 C28,62.4063 25.9063,61.9063 25.7031,61.9063 C25.6094,61.7969 25.4063,61.7031 25.4063,61.6094 C25.4063,61.4063 25.6094,61.2969 25.9063,61.2031 C30.6094,60.5 35.2969,56.5 35.2969,50.1094 C35.2969,44.7031 31.2031,39 23.7031,39 C16.7031,39 12.2031,44.7031 12.2031,51.2969"/>
<path class="Clef" transform="matrix(0.992126,0,0,0.992126,236.87,749.908)" d="M25.4063,-25.0938 C17.7969,-25.0938 11.7031,-20.7031 11.5938,-20.7031 C5.79688,-16.4063 3.5,-11.2969 2.59375,-7.79688 C2.09375,-6 1.90625,-4.20313 1.90625,-2.5 C1.90625,-0.09375 2.29688,2.09375 3.20313,4 C4.40625,6.70313 6.70313,8.59375 9.70313,9.59375 C10.9063,10 12.2031,10.2031 13.5,10.2031 C15.7031,10.2031 18,9.59375 19.9063,8.5 C23,6.79688 24.9063,3.20313 24.9063,-0.703125 C24.9063,-4.20313 23.0938,-7.40625 20.0938,-9.29688 C18,-10.7031 16,-11.0938 14.2969,-11.0938 C13.0938,-11.0938 12,-10.9063 11.0938,-10.5938 C10.0938,-10.2031 8.40625,-9.20313 7.59375,-8.5 C7.90625,-10.4063 9.09375,-13.2969 10.2031,-14.9063 C11.2969,-16.5 13.5,-18.5 15.2031,-19.4063 C17.7031,-20.7969 20.9063,-21.4063 24.4063,-21.4063 C34.6094,-21.4063 39.6094,-13.2031 39.6094,3.59375 C39.6094,12.9063 36.1094,21.7969 33.1094,27.7031 C29.7969,34.2969 25.4063,40.6094 21.5,44.1094 C11.0938,53.6094 1.29688,58.1094 1.20313,58.1094 C1.20313,58.1094 0,58.7969 0,60 C0,60.2031 0.09375,60.2969 0.09375,60.5 C0.40625,61.5 1.29688,61.7031 1.90625,61.7031 C2,61.7031 2.29688,61.6094 2.40625,61.6094 C2.5,61.6094 13.9063,56.9063 23,49.7969 C28.1094,46.1094 32.7031,42.1094 36.7031,37.7969 C40.2969,33.9063 43.4063,29.7031 45.9063,25.5 C50.2969,18 52.7969,10.2031 52.7969,3.5 C52.7969,-4.79688 50.6094,-11.7031 46.5,-16.5938 C41.7969,-22.2031 34.7031,-25.0938 25.4063,-25.0938 M56.7969,-12.4063 C56.7969,-9.59375 59,-7.40625 61.6094,-7.40625 C64.2031,-7.40625 66.4063,-9.59375 66.4063,-12.4063 C66.4063,-15.2031 64.2031,-17.5 61.6094,-17.5 C59,-17.5 56.7969,-15.2031 56.7969,-12.4063 M56.7969,12.2969 C56.7969,15.0938 59,17.4063 61.6094,17.4063 C64.2031,17.4063 66.4063,15.0938 66.4063,12.2969 C66.4063,9.5 64.2031,7.20313 61.6094,7.20313 C59,7.20313 56.7969,9.5 56.7969,12.2969"/>
<path class="TimeSig" transform="matrix(0.992126,0,0,0.992126,326.161,74.89)" d="M20.7969,12.7031 L20.7969,20.0938 L12.5,20.0938 C11.7969,20.0938 11.0938,20.7031 11.0938,21.5 L11.0938,23.4063 C11.0938,24.2031 11.7969,24.7969 12.5,24.7969 L42.7969,24.7969 C43.6094,24.7969 44.2031,24.2031 44.2031,23.4063 L44.2031,21.5 C44.2031,20.7031 43.6094,20.0938 42.7969,20.0938 L33.7969,20.0938 L33.7969,12.7031 L42.7969,12.7031 C43.6094,12.7031 44.2031,12 44.2031,11.2031 L44.2031,9.29688 C44.2031,8.59375 43.6094,7.90625 42.7969,7.90625 L33.7969,7.90625 L33.7969,-8 C33.7969,-8.59375 33.5,-9.09375 33.1094,-9.29688 L31.9063,-9.90625 C31.7031,-10 31.6094,-10 31.4063,-10 C31.2969,-10 31.2969,-10 31.2031,-10 C30.9063,-10 30.5,-9.90625 30.2969,-9.70313 L21.2031,-1.40625 C20.9063,-1.09375 20.7969,-0.703125 20.7969,-0.296875 L20.7969,7.90625 L9.20313,7.90625 C9.20313,7.90625 20.4063,-4.09375 32.2031,-19.9063 C32.6094,-20.4063 32.7031,-20.9063 32.7031,-21.2969 C32.7031,-21.7969 32.5,-22.2031 32.4063,-22.2969 L30.2031,-24.5 C29.9063,-24.7031 29.6094,-24.9063 29.2031,-24.9063 C28.6094,-24.9063 15.0938,-24.9063 14.2969,-24.9063 C13.5938,-24.9063 13.0938,-24.2969 13,-23.7031 C13,-23.7031 12.5,-16.2969 9.90625,-8.20313 C7.29688,-0.09375 4.29688,4.90625 1.70313,8.59375 C1.70313,8.59375 1.40625,9.09375 1.40625,9.70313 C1.40625,9.90625 1.40625,10.0938 1.5,10.2969 C1.79688,11 2.5,12.0938 2.5,12.0938 C2.5,12.0938 2.70313,12.7031 3.59375,12.7031 L20.7969,12.7031 "/>
<path class="TimeSig" transform="matrix(0.992126,0,0,0.992126,326.161,124.496)" d="M20.7969,12.7031 L20.7969,20.0938 L12.5,20.0938 C11.7969,20.0938 11.0938,20.7031 11.0938,21.5 L11.0938,23.4063 C11.0938,24.2031 11.7969,24.7969 12.5,24.7969 L42.7969,24.7969 C43.6094,24.7969 44.2031,24.2031 44.2031,23.4063 L44.2031,21.5 C44.2031,20.7031 43.6094,20.0938 42.7969,20.0938 L33.7969,20.0938 L33.7969,12.7031 L42.7969,12.7031 C43.6094,12.7031 44.2031,12 44.2031,11.2031 L44.2031,9.29688 C44.2031,8.59375 43.6094,7.90625 42.7969,7.90625 L33.7969,7.90625 L33.7969,-8 C33.7969,-8.59375 33.5,-9.09375 33.1094,-9.29688 L31.9063,-9.90625 C31.7031,-10 31.6094,-10 31.4063,-10 C31.2969,-10 31.2969,-10 31.2031,-10 C30.9063,-10 30.5,-9.90625 30.2969,-9.70313 L21.2031,-1.40625 C20.9063,-1.09375 20.7969,-0.703125 20.7969,-0.296875 L20.7969,7.90625 L9.20313,7.90625 C9.20313,7.90625 20.4063,-4.09375 32.2031,-19.9063 C32.6094,-20.4063 32.7031,-20.9063 32.7031,-21.2969 C32.7031,-21.7969 32.5,-22.2031 32.4063,-22.2969 L30.2031,-24.5 C29.9063,-24.7031 29.6094,-24.9063 29.2031,-24.9063 C28.6094,-24.9063 15.0938,-24.9063 14.2969,-24.9063 C13.5938,-24.9063 13.0938,-24.2969 13,-23.7031 C13,-23.7031 12.5,-16.2969 9.90625,-8.20313 C7.29688,-0.09375 4.29688,4.90625 1.70313,8.59375 C1.70313,8.59375 1.40625,9.09375 1.40625,9.70313 C1.40625,9.90625 1.40625,10.0938 1.5,10.2969 C1.79688,11 2.5,12.0938 2.5,12.0938 C2.5,12.0938 2.70313,12.7031 3.59375,12.7031 L20.7969,12.7031 "/>
<path class="TimeSig" transform="matrix(0.992126,0,0,0.992126,326.161,412.399)" d="M20.7969,12.7031 L20.7969,20.0938 L12.5,20.0938 C11.7969,20.0938 11.0938,20.7031 11.0938,21.5 L11.0938,23.4063 C11.0938,24.2031 11.7969,24.7969 12.5,24.7969 L42.7969,24.7969 C43.6094,24.7969 44.2031,24.2031 44.2031,23.4063 L44.2031,21.5 C44.2031,20.7031 43.6094,20.0938 42.7969,20.0938 L33.7969,20.0938 L33.7969,12.7031 L42.7969,12.7031 C43.6094,12.7031 44.2031,12 44.2031,11.2031 L44.2031,9.29688 C44.2031,8.59375 43.6094,7.90625 42.7969,7.90625 L33.7969,7.90625 L33.7969,-8 C33.7969,-8.59375 33.5,-9.09375 33.1094,-9.29688 L31.9063,-9.90625 C31.7031,-10 31.6094,-10 31.4063,-10 C31.2969,-10 31.2969,-10 31.2031,-10 C30.9063,-10 30.5,-9.90625 30.2969,-9.70313 L21.2031,-1.40625 C20.9063,-1.09375 20.7969,-0.703125 20.7969,-0.296875 L20.7969,7.90625 L9.20313,7.90625 C9.20313,7.90625 20.4063,-4.09375 32.2031,-19.9063 C32.6094,-20.4063 32.7031,-20.9063 32.7031,-21.2969 C32.7031,-21.7969 32.5,-22.2031 32.4063,-22.2969 L30.2031,-24.5 C29.9063,-24.7031 29.6094,-24.9063 29.2031,-24.9063 C28.6094,-24.9063 15.0938,-24.9063 14.2969,-24.9063 C13.5938,-24.9063 13.0938,-24.2969 13,-23.7031 C13,-23.7031 12.5,-16.2969 9.90625,-8.20313 C7.29688,-0.09375 4.29688,4.90625 1.70313,8.59375 C1.70313,8.59375 1.40625,9.09375 1.40625,9.70313 C1.40625,9.90625 1.40625,10.0938 1.5,10.2969 C1.79688,11 2.5,12.0938 2.5,12.0938 C2.5,12.0938 2.70313,12.7031 3.59375,12.7031 L20.7969,12.7031 "/>
<path class="TimeSig" transform="matrix(0.992126,0,0,0.992126,326.161,462.005)" d="M20.7969,12.7031 L20.7969,20.0938 L12.5,20.0938 C11.7969,20.0938 11.0938,20.7031 11.0938,21.5 L11.0938,23.4063 C11.0938,24.2031 11.7969,24.7969 12.5,24.7969 L42.7969,24.7969 C43.6094,24.7969 44.2031,24.2031 44.2031,23.4063 L44.2031,21.5 C44.2031,20.7031 43.6094,20.0938 42.7969,20.0938 L33.7969,20.0938 L33.7969,12.7031 L42.7969,12.7031 C43.6094,12.7031 44.2031,12 44.2031,11.2031 L44.2031,9.29688 C44.2031,8.59375 43.6094,7.90625 42.7969,7.90625 L33.7969,7.90625 L33.7969,-8 C33.7969,-8.59375 33.5,-9.09375 33.1094,-9.29688 L31.9063,-9.90625 C31.7031,-10 31.6094,-10 31.4063,-10 C31.2969,-10 31.2969,-10 31.2031,-10 C30.9063,-10 30.5,-9.90625 30.2969,-9.70313 L21.2031,-1.40625 C20.9063,-1.09375 20.7969,-0.703125 20.7969,-0.296875 L20.7969,7.90625 L9.20313,7.90625 C9.20313,7.90625 20.4063,-4.09375 32.2031,-19.9063 C32.6094,-20.4063 32.7031,-20.9063 32.7031,-21.2969 C32.7031,-21.7969 32.5,-22.2031 32.4063,-22.2969 L30.2031,-24.5 C29.9063,-24.7031 29.6094,-24.9063 29.2031,-24.9063 C28.6094,-24.9063 15.0938,-24.9063 14.2969,-24.9063 C13.5938,-24.9063 13.0938,-24.2969 13,-23.7031 C13,-23.7031 12.5,-16.2969 9.90625,-8.20313 C7.29688,-0.09375 4.29688,4.90625 1.70313,8.59375 C1.70313,8.59375 1.40625,9.09375 1.40625,9.70313 C1.40625,9.90625 1.40625,10.0938 1.5,10.2969 C1.79688,11 2.5,12.0938 2.5,12.0938 C2.5,12.0938 2.70313,12.7031 3.59375,12.7031 L20.7969,12.7031 "/>
<path class="TimeSig" transform="matrix(0.992126,0,0,0.992126,326.161,749.908)" d="M20.7969,12.7031 L20.7969,20.0938 L12.5,20.0938 C11.7969,20.0938 11.0938,20.7031 11.0938,21.5 L11.0938,23.4063 C11.0938,24.2031 11.7969,24.7969 12.5,24.7969 L42.7969,24.7969 C43.6094,24.7969 44.2031,24.2031 44.2031,23.4063 L44.2031,21.5 C44.2031,20.7031 43.6094,20.0938 42.7969,20.0938 L33.7969,20.0938 L33.7969,12.7031 L42.7969,12.7031 C43.6094,12.7031 44.2031,12 44.2031,11.2031 L44.2031,9.29688 C44.2031,8.59375 43.6094,7.90625 42.7969,7.90625 L33.7969,7.90625 L33.7969,-8 C33.7969,-8.59375 33.5,-9.09375 33.1094,-9.29688 L31.9063,-9.90625 C31.7031,-10 31.6094,-10 31.4063,-10 C31.2969,-10 31.2969,-10 31.2031,-10 C30.9063,-10 30.5,-9.90625 30.2969,-9.70313 L21.2031,-1.40625 C20.9063,-1.09375 20.7969,-0.703125 20.7969,-0.296875 L20.7969,7.90625 L9.20313,7.90625 C9.20313,7.90625 20.4063,-4.09375 32.2031,-19.9063 C32.6094,-20.4063 32.7031,-20.9063 32.7031,-21.2969 C32.7031,-21.7969 32.5,-22.2031 32.4063,-22.2969 L30.2031,-24.5 C29.9063,-24.7031 29.6094,-24.9063 29.2031,-24.9063 C28.6094,-24.9063 15.0938,-24.9063 14.2969,-24.9063 C13.5938,-24.9063 13.0938,-24.2969 13,-23.7031 C13,-23.7031 12.5,-16.2969 9.90625,-8.20313 C7.29688,-0.09375 4.29688,4.90625 1.70313,8.59375 C1.70313,8.59375 1.40625,9.09375 1.40625,9.70313 C1.40625,9.90625 1.40625,10.0938 1.5,10.2969 C1.79688,11 2.5,12.0938 2.5,12.0938 C2.5,12.0938 2.70313,12.7031 3.59375,12.7031 L20.7969,12.7031 "/>
<path class="TimeSig" transform="matrix(0.992126,0,0,0.992126,326.161,799.514)" d="M20.7969,12.7031 L20.7969,20.0938 L12.5,20.0938 C11.7969,20.0938 11.0938,20.7031 11.0938,21.5 L11.0938,23.4063 C11.0938,24.2031 11.7969,24.7969 12.5,24.7969 L42.7969,24.7969 C43.6094,24.7969 44.2031,24.2031 44.2031,23.4063 L44.2031,21.5 C44.2031,20.7031 43.6094,20.0938 42.7969,20.0938 L33.7969,20.0938 L33.7969,12.7031 L42.7969,12.7031 C43.6094,12.7031 44.2031,12 44.2031,11.2031 L44.2031,9.29688 C44.2031,8.59375 43.6094,7.90625 42.7969,7.90625 L33.7969,7.90625 L33.7969,-8 C33.7969,-8.59375 33.5,-9.09375 33.1094,-9.29688 L31.9063,-9.90625 C31.7031,-10 31.6094,-10 31.4063,-10 C31.2969,-10 31.2969,-10 31.2031,-10 C30.9063,-10 30.5,-9.90625 30.2969,-9.70313 L21.2031,-1.40625 C20.9063,-1.09375 20.7969,-0.703125 20.7969,-0.296875 L20.7969,7.90625 L9.20313,7.90625 C9.20313,7.90625 20.4063,-4.09375 32.2031,-19.9063 C32.6094,-20.4063 32.7031,-20.9063 32.7031,-21.2969 C32.7031,-21.7969 32.5,-22.2031 32.4063,-22.2969 L30.2031,-24.5 C29.9063,-24.7031 29.6094,-24.9063 29.2031,-24.9063 C28.6094,-24.9063 15.0938,-24.9063 14.2969,-24.9063 C13.5938,-24.9063 13.0938,-24.2969 13,-23.7031 C13,-23.7031 12.5,-16.2969 9.90625,-8.20313 C7.29688,-0.09375 4.29688,4.90625 1.70313,8.59375 C1.70313,8.59375 1.40625,9.09375 1.40625,9.70313 C1.40625,9.90625 1.40625,10.0938 1.5,10.2969 C1.79688,11 2.5,12.0938 2.5,12.0938 C2.5,12.0938 2.70313,12.7031 3.59375,12.7031 L20.7969,12.7031 "/>
<path class="Rest" transform="matrix(0.992126,0,0,0.992126,2186.44,99.6932)" d="M0,-1 C0,0.40625 0,0.40625 1.40625,0.40625 L31.1094,0.40625 C32.5,0.40625 32.5,0.40625 32.5,-1 L32.5,-11.7969 C32.5,-13.2031 32.5,-13.2031 31.1094,-13.2031 L1.40625,-13.2031 C0,-13.2031 0,-13.2031 0,-11.7969 L0,-1 "/>
<path class="Rest" transform="matrix(0.992126,0,0,0.992126,419.607,99.6932)" d="M26.7031,-20.2969 C26.6094,-20.2969 26.4063,-20.4063 26.2969,-20.4063 C25.7031,-20.4063 25.2031,-20.0938 25,-19.5938 C24.5938,-19 21.5,-13.0938 17,-9.79688 C15.7031,-8.79688 14.0938,-8.09375 12.5,-7.79688 C13.5938,-9.09375 14.2969,-10.7031 14.2969,-12.5938 C14.2969,-16.5 11.0938,-19.7031 7.20313,-19.7031 C3.20313,-19.7031 0,-16.5 0,-12.5938 C0,-9.5 1.90625,-7 4.5,-5.90625 C6,-5.20313 8,-4.70313 10,-4.70313 C12.9063,-4.70313 16,-5.59375 18.7031,-7.59375 C19.9063,-8.5 21.0938,-9.70313 22.2031,-10.9063 L10.7969,24.7031 L13.5,25.5 L27.5,-18.5938 C27.6094,-18.7031 27.6094,-18.9063 27.6094,-19.0938 C27.6094,-19.5938 27.2969,-20 26.7031,-20.2969"/>
<path class="Rest" transform="matrix(0.992126,0,0,0.992126,419.607,437.202)" d="M0,-1 C0,0.40625 0,0.40625 1.40625,0.40625 L31.1094,0.40625 C32.5,0.40625 32.5,0.40625 32.5,-1 L32.5,-11.7969 C32.5,-13.2031 32.5,-13.2031 31.1094,-13.2031 L1.40625,-13.2031 C0,-13.2031 0,-13.2031 0,-11.7969 L0,-1 "/>
<path class="Beam" fill-rule="evenodd" d="M1020.99,99.6881 L1173.82,93.4873 L1173.82,105.899 L1020.99,112.1 L1020.99,99.6881 "/>
<path class="Beam" fill-rule="evenodd" d="M720.299,143.099 L873.125,143.099 L873.125,155.5 L720.299,155.5 L720.299,143.099 "/>
<path class="Beam" fill-rule="evenodd" d="M1321.68,87.2865 L1474.51,93.4873 L1474.51,105.899 L1321.68,99.6983 L1321.68,87.2865 "/>
<path class="Beam" fill-rule="evenodd" d="M1915.5,381.39 L2068.32,387.591 L2068.32,400.002 L1915.5,393.802 L1915.5,381.39 "/>
</svg>
