<?xml version="1.0" encoding="utf-8" standalone="no"?>
<!DOCTYPE svg PUBLIC "-//W3C//DTD SVG 1.1//EN"
  "http://www.w3.org/Graphics/SVG/1.1/DTD/svg11.dtd">
<svg xmlns:xlink="http://www.w3.org/1999/xlink" width="223.2pt" height="166.32pt" viewBox="0 0 223.2 166.32" xmlns="http://www.w3.org/2000/svg" version="1.1">
 <metadata>
  <rdf:RDF xmlns:dc="http://purl.org/dc/elements/1.1/" xmlns:cc="http://creativecommons.org/ns#" xmlns:rdf="http://www.w3.org/1999/02/22-rdf-syntax-ns#">
   <cc:Work>
    <dc:type rdf:resource="http://purl.org/dc/dcmitype/StillImage"/>
    <dc:date>2025-03-23T15:40:20.188268</dc:date>
    <dc:format>image/svg+xml</dc:format>
    <dc:creator>
     <cc:Agent>
      <dc:title>Matplotlib v3.9.3, https://matplotlib.org/</dc:title>
     </cc:Agent>
    </dc:creator>
   </cc:Work>
  </rdf:RDF>
 </metadata>
 <defs>
  <style type="text/css">*{stroke-linejoin: round; stroke-linecap: butt}</style>
 </defs>
 <g id="figure_1">
  <g id="patch_1">
   <path d="M 0 166.32 
L 223.2 166.32 
L 223.2 0 
L 0 0 
z
" style="fill: #ffffff"/>
  </g>
  <g id="axes_1">
   <g id="LineCollection_1">
    <path d="M 39.102347 25.595906 
L 19.368595 91.445428 
" clip-path="url(#p3169d04831)" style="fill: none; stroke: #808080"/>
    <path d="M 39.102347 25.595906 
L 111.914702 83.29999 
" clip-path="url(#p3169d04831)" style="fill: none; stroke: #808080"/>
    <path d="M 19.368595 91.445428 
L 111.914702 83.29999 
" clip-path="url(#p3169d04831)" style="fill: none; stroke: #808080"/>
    <path d="M 111.914702 83.29999 
L 184.158496 140.724094 
" clip-path="url(#p3169d04831)" style="fill: none; stroke: #808080"/>
    <path d="M 111.914702 83.29999 
L 203.831405 75.07441 
" clip-path="url(#p3169d04831)" style="fill: none; stroke: #808080"/>
    <path d="M 203.831405 75.07441 
L 184.158496 140.724094 
" clip-path="url(#p3169d04831)" style="fill: none; stroke: #808080"/>
   </g>
   <g id="PathCollection_1">
    <defs>
     <path id="C0_0_49ef654ee8" d="M 0 11.18034 
C 2.965061 11.18034 5.80908 10.002309 7.905694 7.905694 
C 10.002309 5.80908 11.18034 2.965061 11.18034 -0 
C 11.18034 -2.965061 10.002309 -5.80908 7.905694 -7.905694 
C 5.80908 -10.002309 2.965061 -11.18034 0 -11.18034 
C -2.965061 -11.18034 -5.80908 -10.002309 -7.905694 -7.905694 
C -10.002309 -5.80908 -11.18034 -2.965061 -11.18034 0 
C -11.18034 2.965061 -10.002309 5.80908 -7.905694 7.905694 
C -5.80908 10.002309 -2.965061 11.18034 0 11.18034 
z
"/>
    </defs>
    <g clip-path="url(#p3169d04831)">
     <use xlink:href="#C0_0_49ef654ee8" x="39.102347" y="25.595906" style="fill: #d62728; stroke: #d62728"/>
    </g>
    <g clip-path="url(#p3169d04831)">
     <use xlink:href="#C0_0_49ef654ee8" x="19.368595" y="91.445428" style="fill: #2ca02c; stroke: #2ca02c"/>
    </g>
    <g clip-path="url(#p3169d04831)">
     <use xlink:href="#C0_0_49ef654ee8" x="111.914702" y="83.29999" style="fill: #9467bd; stroke: #9467bd"/>
    </g>
    <g clip-path="url(#p3169d04831)">
     <use xlink:href="#C0_0_49ef654ee8" x="203.831405" y="75.07441" style="fill: #1f77b4; stroke: #1f77b4"/>
    </g>
    <g clip-path="url(#p3169d04831)">
     <use xlink:href="#C0_0_49ef654ee8" x="184.158496" y="140.724094" style="fill: #ff7f0e; stroke: #ff7f0e"/>
    </g>
   </g>
   <g id="text_1">
    <!-- F1 -->
    <g style="fill: #ffffff" transform="translate(32.356183 28.584698) scale(0.12 -0.12)">
     <defs>
      <path id="CMR17-46" d="M 3482 4325 
L 326 4325 
L 326 4160 
C 768 4160 838 4160 838 3874 
L 838 446 
C 838 160 768 160 326 160 
L 326 0 
C 512 0 870 0 1069 0 
C 1331 0 1638 0 1901 0 
L 1901 160 
L 1760 160 
C 1274 160 1261 223 1261 452 
L 1261 2075 
L 1837 2075 
C 2432 2075 2490 1865 2490 1332 
L 2605 1332 
L 2605 2987 
L 2490 2987 
C 2490 2450 2432 2240 1837 2240 
L 1261 2240 
L 1261 3911 
C 1261 4128 1274 4160 1530 4160 
L 2355 4160 
C 3322 4160 3430 3765 3520 2916 
L 3635 2916 
L 3482 4325 
z
" transform="scale(0.015625)"/>
      <path id="CMR17-31" d="M 1702 4058 
C 1702 4192 1696 4192 1606 4192 
C 1357 3916 979 3827 621 3827 
C 602 3827 570 3827 563 3808 
C 557 3795 557 3782 557 3648 
C 755 3648 1088 3686 1344 3839 
L 1344 461 
C 1344 236 1331 160 781 160 
L 589 160 
L 589 0 
C 896 0 1216 0 1523 0 
C 1830 0 2150 0 2458 0 
L 2458 160 
L 2266 160 
C 1715 160 1702 230 1702 458 
L 1702 4058 
z
" transform="scale(0.015625)"/>
     </defs>
     <use xlink:href="#CMR17-46" transform="scale(0.996264)"/>
     <use xlink:href="#CMR17-31" transform="translate(59.983847 0) scale(0.996264)"/>
    </g>
   </g>
   <g id="text_2">
    <!-- V1 -->
    <g style="fill: #ffffff" transform="translate(12.054432 94.43422) scale(0.12 -0.12)">
     <defs>
      <path id="CMR17-56" d="M 3776 3745 
C 3834 3886 3936 4160 4365 4160 
L 4365 4332 
C 4218 4319 4051 4319 3891 4319 
C 3738 4319 3475 4319 3328 4332 
L 3328 4160 
C 3648 4160 3661 3936 3661 3898 
C 3661 3827 3642 3783 3622 3732 
L 2362 446 
L 1043 3886 
C 1024 3931 1011 3963 1011 3994 
C 1011 4160 1267 4160 1402 4160 
L 1402 4319 
C 1197 4319 896 4319 685 4319 
C 518 4319 218 4319 64 4332 
L 64 4160 
C 435 4160 506 4135 582 3931 
L 2106 -26 
C 2138 -115 2144 -128 2214 -128 
C 2285 -128 2291 -115 2323 -26 
L 3776 3745 
z
" transform="scale(0.015625)"/>
     </defs>
     <use xlink:href="#CMR17-56" transform="scale(0.996264)"/>
     <use xlink:href="#CMR17-31" transform="translate(69.07243 0) scale(0.996264)"/>
    </g>
   </g>
   <g id="text_3">
    <!-- B1 -->
    <g style="fill: #ffffff" transform="translate(104.843372 86.288782) scale(0.12 -0.12)">
     <defs>
      <path id="CMR17-42" d="M 333 4352 
L 333 4186 
C 774 4186 845 4186 845 3900 
L 845 452 
C 845 166 774 166 333 166 
L 333 0 
L 2534 0 
C 3354 0 3885 583 3885 1164 
C 3885 1741 3360 2233 2675 2233 
C 3290 2356 3718 2771 3718 3264 
C 3718 3802 3194 4352 2368 4352 
L 333 4352 
z
M 1248 2304 
L 1248 3937 
C 1248 4155 1261 4186 1517 4186 
L 2336 4186 
C 2970 4186 3251 3674 3251 3277 
C 3251 2791 2861 2304 2170 2304 
L 1248 2304 
z
M 1517 166 
C 1261 166 1248 197 1248 413 
L 1248 2202 
L 2432 2202 
C 3091 2202 3411 1625 3411 1162 
C 3411 699 3046 166 2349 166 
L 1517 166 
z
" transform="scale(0.015625)"/>
     </defs>
     <use xlink:href="#CMR17-42" transform="scale(0.996264)"/>
     <use xlink:href="#CMR17-31" transform="translate(65.188754 0) scale(0.996264)"/>
    </g>
   </g>
   <g id="text_4">
    <!-- F2 -->
    <g style="fill: #ffffff" transform="translate(197.085242 78.063202) scale(0.12 -0.12)">
     <defs>
      <path id="CMR17-32" d="M 2669 989 
L 2554 989 
C 2490 536 2438 459 2413 420 
C 2381 369 1920 369 1830 369 
L 602 369 
C 832 619 1280 1072 1824 1597 
C 2214 1967 2669 2402 2669 3035 
C 2669 3790 2067 4224 1395 4224 
C 691 4224 262 3604 262 3030 
C 262 2780 448 2748 525 2748 
C 589 2748 781 2787 781 3010 
C 781 3207 614 3264 525 3264 
C 486 3264 448 3258 422 3245 
C 544 3790 915 4058 1306 4058 
C 1862 4058 2227 3617 2227 3035 
C 2227 2479 1901 2000 1536 1584 
L 262 146 
L 262 0 
L 2515 0 
L 2669 989 
z
" transform="scale(0.015625)"/>
     </defs>
     <use xlink:href="#CMR17-46" transform="scale(0.996264)"/>
     <use xlink:href="#CMR17-32" transform="translate(59.983847 0) scale(0.996264)"/>
    </g>
   </g>
   <g id="text_5">
    <!-- V2 -->
    <g style="fill: #ffffff" transform="translate(176.844333 143.712886) scale(0.12 -0.12)">
     <use xlink:href="#CMR17-56" transform="scale(0.996264)"/>
     <use xlink:href="#CMR17-32" transform="translate(69.07243 0) scale(0.996264)"/>
    </g>
   </g>
  </g>
 </g>
 <defs>
  <clipPath id="p3169d04831">
   <rect x="0" y="-0" width="223.2" height="166.32"/>
  </clipPath>
 </defs>
</svg>
